<?xml version="1.0" encoding="UTF-8"?>
<svg version="1.1" xmlns="http://www.w3.org/2000/svg" width="92" height="92">
<path d="M0 0 C30.36 0 60.72 0 92 0 C92 30.36 92 60.72 92 92 C61.64 92 31.28 92 0 92 C0 61.64 0 31.28 0 0 Z " fill="#2C5B37" transform="translate(0,0)"/>
<path d="M0 0 C4.75 0.75 4.75 0.75 7 3 C6.625 4.9375 6.625 4.9375 6 7 C6 7.99 6 8.98 6 10 C6.33 10.33 6.66 10.66 7 11 C8.32 9.35 9.64 7.7 11 6 C11.33 6.99 11.66 7.98 12 9 C10.37660195 10.70884005 8.70680947 12.37446717 7 14 C6.34 14 5.68 14 5 14 C5 15.32 5 16.64 5 18 C5.66 18 6.32 18 7 18 C7.33 18.66 7.66 19.32 8 20 C8.33 17.69 8.66 15.38 9 13 C9.33 13.99 9.66 14.98 10 16 C10.99 16.33 11.98 16.66 13 17 C12.34 18.32 11.68 19.64 11 21 C13.64 19.35 16.28 17.7 19 16 C18.505 17.485 18.505 17.485 18 19 C18.66 19.66 19.32 20.32 20 21 C17.36 21.99 14.72 22.98 12 24 C12 25.32 12 26.64 12 28 C14.31 27.34 16.62 26.68 19 26 C19 26.66 19 27.32 19 28 C16.35261084 29.4606285 15.10551666 30 12 30 C12 32.64 12 35.28 12 38 C11.34 38 10.68 38 10 38 C9.67 34.37 9.34 30.74 9 27 C5.6133629 30.3866371 5.58036746 31.1337532 5.3125 35.6875 C5.24675781 36.68136719 5.18101563 37.67523438 5.11328125 38.69921875 C5.07589844 39.45847656 5.03851563 40.21773437 5 41 C4.01 41 3.02 41 2 41 C2 36.38 2 31.76 2 27 C-0.05362055 32.08940744 -1.43179252 36.54520815 -2 42 C-2.66 42 -3.32 42 -4 42 C-4 36.72 -4 31.44 -4 26 C-4.66 26 -5.32 26 -6 26 C-7.00259507 29.00778521 -7.30314642 31.53820647 -7.5625 34.6875 C-7.64628906 35.68136719 -7.73007812 36.67523438 -7.81640625 37.69921875 C-7.87699219 38.45847656 -7.93757813 39.21773437 -8 40 C-8.99 40 -9.98 40 -11 40 C-11 34.72 -11 29.44 -11 24 C-13.10827055 27.16240582 -13.33817465 28.50657469 -13.625 32.1875 C-13.69976562 33.08855469 -13.77453125 33.98960938 -13.8515625 34.91796875 C-13.92503906 35.94857422 -13.92503906 35.94857422 -14 37 C-14.66 36.67 -15.32 36.34 -16 36 C-16.62674095 26.87743733 -16.62674095 26.87743733 -14.125 23.375 C-12 22 -12 22 -10 22 C-11.35924117 17.55157435 -13.27221998 15.70264051 -17 13 C-17.66 12.34 -18.32 11.68 -19 11 C-18.34 10.67 -17.68 10.34 -17 10 C-16.34 9.01 -15.68 8.02 -15 7 C-13.68 9.64 -12.36 12.28 -11 15 C-13.03684712 10.92630576 -13.0257259 8.41062136 -12 4 C-11.01 4.33 -10.02 4.66 -9 5 C-8.67 7.31 -8.34 9.62 -8 12 C-7.67 10.35 -7.34 8.7 -7 7 C-6.01 7.33 -5.02 7.66 -4 8 C-5.875 12.875 -5.875 12.875 -7 14 C-7.07226502 15.85287502 -7.0838122 17.70833878 -7.0625 19.5625 C-7.05347656 20.57441406 -7.04445313 21.58632813 -7.03515625 22.62890625 C-7.02355469 23.41136719 -7.01195312 24.19382812 -7 25 C-7 24.01 -7 23.02 -7 22 C-6.67 21.34 -6.34 20.68 -6 20 C-5.34 20.66 -4.68 21.32 -4 22 C-4 20.68 -4 19.36 -4 18 C-4.99 17.34 -5.98 16.68 -7 16 C-5.68 16 -4.36 16 -3 16 C-3.33 15.01 -3.66 14.02 -4 13 C-3.00390625 11.17578125 -3.00390625 11.17578125 -1.5625 9.3125 C-1.08941406 8.68988281 -0.61632812 8.06726562 -0.12890625 7.42578125 C0.24363281 6.95527344 0.61617187 6.48476563 1 6 C1.99 7.485 1.99 7.485 3 9 C2.67 7.02 2.34 5.04 2 3 C1.34 3 0.68 3 0 3 C0 2.01 0 1.02 0 0 Z " fill="#CED7D0" transform="translate(47,19)"/>
<path d="M0 0 C0.99 0.33 1.98 0.66 3 1 C3.33 3.31 3.66 5.62 4 8 C4.33 6.35 4.66 4.7 5 3 C5.99 3.33 6.98 3.66 8 4 C6.125 8.875 6.125 8.875 5 10 C4.92773498 11.85287502 4.9161878 13.70833878 4.9375 15.5625 C4.94652344 16.57441406 4.95554687 17.58632813 4.96484375 18.62890625 C4.97644531 19.41136719 4.98804688 20.19382812 5 21 C5 20.01 5 19.02 5 18 C5.33 17.34 5.66 16.68 6 16 C6.66 16.66 7.32 17.32 8 18 C8 16.68 8 15.36 8 14 C7.01 13.34 6.02 12.68 5 12 C6.32 12 7.64 12 9 12 C8.67 11.01 8.34 10.02 8 9 C9.32 7.68 10.64 6.36 12 5 C11.67 5.99 11.34 6.98 11 8 C10.90331405 10.84370451 10.86076163 13.6570727 10.875 16.5 C10.87113281 17.27214844 10.86726563 18.04429688 10.86328125 18.83984375 C10.86900949 22.14503737 10.94792499 24.84377498 12 28 C11.66015625 30.48046875 11.66015625 30.48046875 11.0625 33.1875 C10.86785156 34.08855469 10.67320313 34.98960938 10.47265625 35.91796875 C10.31667969 36.60503906 10.16070312 37.29210938 10 38 C9.34 38 8.68 38 8 38 C8 32.72 8 27.44 8 22 C7.34 22 6.68 22 6 22 C4.99740493 25.00778521 4.69685358 27.53820647 4.4375 30.6875 C4.35371094 31.68136719 4.26992188 32.67523438 4.18359375 33.69921875 C4.12300781 34.45847656 4.06242187 35.21773437 4 36 C3.01 36 2.02 36 1 36 C1 30.72 1 25.44 1 20 C-1.10827055 23.16240582 -1.33817465 24.50657469 -1.625 28.1875 C-1.69976562 29.08855469 -1.77453125 29.98960938 -1.8515625 30.91796875 C-1.90054688 31.60503906 -1.94953125 32.29210938 -2 33 C-2.66 32.67 -3.32 32.34 -4 32 C-4.62674095 22.87743733 -4.62674095 22.87743733 -2.125 19.375 C0 18 0 18 2 18 C0.64075883 13.55157435 -1.27221998 11.70264051 -5 9 C-5.66 8.34 -6.32 7.68 -7 7 C-6.34 6.67 -5.68 6.34 -5 6 C-4.34 5.01 -3.68 4.02 -3 3 C-1.68 5.64 -0.36 8.28 1 11 C-1.03684712 6.92630576 -1.0257259 4.41062136 0 0 Z " fill="#C7D1C9" transform="translate(35,23)"/>
<path d="M0 0 C1.32 0 2.64 0 4 0 C4 0.99 4 1.98 4 3 C4.66 3 5.32 3 6 3 C6.33 2.34 6.66 1.68 7 1 C8.60355101 4.50776784 9.22036864 7.14354879 9 11 C8.01 9.68 7.02 8.36 6 7 C5.34 8.0725 4.68 9.145 4 10.25 C3.62875 10.85328125 3.2575 11.4565625 2.875 12.078125 C1.72375977 14.25479385 1.72375977 14.25479385 2 18 C2 20 2 22 2 24 C1.01 23.34 0.02 22.68 -1 22 C-0.67 22.99 -0.34 23.98 0 25 C-0.99 25.33 -1.98 25.66 -3 26 C-3.08160748 24.10489301 -3.13946459 22.20875496 -3.1875 20.3125 C-3.22230469 19.25675781 -3.25710937 18.20101562 -3.29296875 17.11328125 C-2.96666615 13.64577232 -1.99030125 11.81567552 0 9 C-0.66 8.34 -1.32 7.68 -2 7 C-1.43181818 1.43181818 -1.43181818 1.43181818 0 0 Z " fill="#A3B3A6" transform="translate(42,19)"/>
<path d="M0 0 C3.56050965 0.30518654 5.00035037 1.00028808 7.8125 3.3125 C10 6 10 6 10 10 C8 12.25 8 12.25 6 14 C2.62496331 12.8141763 0.35277269 11.72426311 -2 9 C-1.67 8.01 -1.34 7.02 -1 6 C0.32 7.32 1.64 8.64 3 10 C2.52230045 7.77073544 1.96124037 5.92248075 0.9375 3.875 C0 2 0 2 0 0 Z " fill="#ABB9AD" transform="translate(27,31)"/>
<path d="M0 0 C0.33 0.99 0.66 1.98 1 3 C1.99 3.33 2.98 3.66 4 4 C3.34 5.32 2.68 6.64 2 8 C4.64 6.35 7.28 4.7 10 3 C9.67 3.99 9.34 4.98 9 6 C9.66 6.66 10.32 7.32 11 8 C8.36 8.99 5.72 9.98 3 11 C3 12.32 3 13.64 3 15 C5.31 14.34 7.62 13.68 10 13 C10 13.66 10 14.32 10 15 C7.35261084 16.4606285 6.10551666 17 3 17 C3 19.64 3 22.28 3 25 C2.34 25 1.68 25 1 25 C0.83031334 22.33349537 0.66418179 19.66684474 0.5 17 C0.45230469 16.25621094 0.40460937 15.51242188 0.35546875 14.74609375 C0.05564256 9.82037776 -0.04486229 4.93485224 0 0 Z " fill="#F7F8F7" transform="translate(56,32)"/>
<path d="M0 0 C0.33 0 0.66 0 1 0 C0.67 5.61 0.34 11.22 0 17 C-0.66 17.33 -1.32 17.66 -2 18 C-3.13350534 20.01669827 -3.13350534 20.01669827 -4 22 C-4.33 21.01 -4.66 20.02 -5 19 C-7.00016466 17.79117904 -7.00016466 17.79117904 -9 17 C-8.34 17 -7.68 17 -7 17 C-7.33 11.72 -7.66 6.44 -8 1 C-7.34 1 -6.68 1 -6 1 C-6 6.28 -6 11.56 -6 17 C-5.34 17 -4.68 17 -4 17 C-4.0825 16.05125 -4.165 15.1025 -4.25 14.125 C-4.29215976 8.99204922 -2.07385016 4.60135505 0 0 Z " fill="#245831" transform="translate(49,44)"/>
<path d="M0 0 C0.33 0 0.66 0 1 0 C1 3.3 1 6.6 1 10 C1.66 10 2.32 10 3 10 C2.67 14.29 2.34 18.58 2 23 C1.01 23 0.02 23 -1 23 C-1 17.72 -1 12.44 -1 7 C-3.10827055 10.16240582 -3.33817465 11.50657469 -3.625 15.1875 C-3.69976562 16.08855469 -3.77453125 16.98960938 -3.8515625 17.91796875 C-3.90054688 18.60503906 -3.94953125 19.29210937 -4 20 C-4.66 19.67 -5.32 19.34 -6 19 C-6.62674095 9.87743733 -6.62674095 9.87743733 -4.125 6.375 C-2 5 -2 5 0 5 C0 3.35 0 1.7 0 0 Z " fill="#E7EBE7" transform="translate(37,36)"/>
<path d="M0 0 C0 2.30211316 -0.01443807 4.60423007 -0.03515625 6.90625 C-0.04444459 8.43749896 -0.05355279 9.96874901 -0.0625 11.5 C-0.07087891 12.27214844 -0.07925781 13.04429688 -0.08789062 13.83984375 C-0.10224802 17.15352948 -0.05539795 19.83380616 1 23 C0.66015625 25.48046875 0.66015625 25.48046875 0.0625 28.1875 C-0.13214844 29.08855469 -0.32679687 29.98960938 -0.52734375 30.91796875 C-0.76130859 31.94857422 -0.76130859 31.94857422 -1 33 C-1.66 33 -2.32 33 -3 33 C-3.04898438 31.83082031 -3.09796875 30.66164063 -3.1484375 29.45703125 C-3.22350171 27.90883196 -3.29904795 26.36065599 -3.375 24.8125 C-3.42140625 23.65911133 -3.42140625 23.65911133 -3.46875 22.48242188 C-3.68616111 18.26102289 -4.09743072 14.85927672 -6 11 C-4.515 11.99 -4.515 11.99 -3 13 C-3 11.68 -3 10.36 -3 9 C-3.99 8.34 -4.98 7.68 -6 7 C-4.68 7 -3.36 7 -2 7 C-2.33 6.01 -2.66 5.02 -3 4 C-1.5625 1.8125 -1.5625 1.8125 0 0 Z " fill="#D8DED9" transform="translate(46,28)"/>
<path d="M0 0 C0.87398437 0.33064453 0.87398437 0.33064453 1.765625 0.66796875 C1.765625 1.98796875 1.765625 3.30796875 1.765625 4.66796875 C2.425625 4.99796875 3.085625 5.32796875 3.765625 5.66796875 C0.53770945 7.81991245 -0.51838309 7.86883318 -4.234375 7.66796875 C-4.564375 9.64796875 -4.894375 11.62796875 -5.234375 13.66796875 C-5.894375 12.34796875 -6.554375 11.02796875 -7.234375 9.66796875 C-7.894375 9.66796875 -8.554375 9.66796875 -9.234375 9.66796875 C-9.234375 5.66796875 -9.234375 5.66796875 -7.84375 3.9296875 C-7.23015625 3.41019531 -6.6165625 2.89070313 -5.984375 2.35546875 C-5.38109375 1.82308594 -4.7778125 1.29070313 -4.15625 0.7421875 C-2.234375 -0.33203125 -2.234375 -0.33203125 0 0 Z " fill="#608368" transform="translate(61.234375,27.33203125)"/>
<path d="M0 0 C1.5 1 1.5 1 3 3 C3.27345479 5.71846235 3.13491285 8.25677199 3 11 C2.34 10.67 1.68 10.34 1 10 C1.226875 10.680625 1.45375 11.36125 1.6875 12.0625 C2.12290176 16.15527655 0.79836785 18.33132959 -1 22 C-1.33 22 -1.66 22 -2 22 C-2.05807043 18.89591193 -2.09361914 15.7919636 -2.125 12.6875 C-2.14175781 11.80642578 -2.15851562 10.92535156 -2.17578125 10.01757812 C-2.18222656 9.17001953 -2.18867187 8.32246094 -2.1953125 7.44921875 C-2.20578613 6.66893311 -2.21625977 5.88864746 -2.22705078 5.0847168 C-2 3 -2 3 0 0 Z " fill="#2C5D38" transform="translate(47,28)"/>
<path d="M0 0 C0.66 0 1.32 0 2 0 C2 0.99 2 1.98 2 3 C2.66 3 3.32 3 4 3 C4 2.01 4 1.02 4 0 C6.64 0 9.28 0 12 0 C11.34 3.3 10.68 6.6 10 10 C7.03 9.505 7.03 9.505 4 9 C3.896875 8.360625 3.79375 7.72125 3.6875 7.0625 C3.460625 6.381875 3.23375 5.70125 3 5 C2.01 4.67 1.02 4.34 0 4 C0 2.68 0 1.36 0 0 Z " fill="#7C9681" transform="translate(33,62)"/>
<path d="M0 0 C2.26595445 3.39893167 2.22020749 4.59023214 2.125 8.5625 C2.10695313 9.53316406 2.08890625 10.50382812 2.0703125 11.50390625 C2.03550781 12.73947266 2.03550781 12.73947266 2 14 C2 14.66 2 15.32 2 16 C2 18 2 20 2 22 C1.01 21.34 0.02 20.68 -1 20 C-0.67 20.99 -0.34 21.98 0 23 C-0.99 23.33 -1.98 23.66 -3 24 C-3.08133791 22.08404032 -3.13934367 20.16708068 -3.1875 18.25 C-3.22230469 17.18265625 -3.25710937 16.1153125 -3.29296875 15.015625 C-2.9627802 11.61688424 -2.07828313 10.59785392 0 8 C0.35868159 5.87027179 0.35868159 5.87027179 0.1875 3.75 C0.125625 2.5125 0.06375 1.275 0 0 Z " fill="#285B34" transform="translate(42,21)"/>
<path d="M0 0 C0.66 0 1.32 0 2 0 C2 2.31 2 4.62 2 7 C2.66 7 3.32 7 4 7 C3.67 11.29 3.34 15.58 3 20 C2.01 20 1.02 20 0 20 C0 15.38 0 10.76 0 6 C-0.66 6.66 -1.32 7.32 -2 8 C-1.47731534 5.23723823 -0.89130413 2.6739124 0 0 Z " fill="#CFD7D0" transform="translate(49,40)"/>
<path d="M0 0 C0.33 0.99 0.66 1.98 1 3 C1.99 3.33 2.98 3.66 4 4 C3.34 5.32 2.68 6.64 2 8 C4.64 6.35 7.28 4.7 10 3 C9.67 3.99 9.34 4.98 9 6 C9.66 6.66 10.32 7.32 11 8 C6.545 9.485 6.545 9.485 2 11 C-0.67927341 6.98108988 -0.15601248 4.75838077 0 0 Z " fill="#DDE3DF" transform="translate(56,32)"/>
<path d="M0 0 C0.33 0 0.66 0 1 0 C1.103125 0.9075 1.20625 1.815 1.3125 2.75 C1.74792931 5.99325914 1.74792931 5.99325914 3.625 8.0625 C5 10 5 10 4.6875 12.75 C4.460625 13.4925 4.23375 14.235 4 15 C3.01 15 2.02 15 1 15 C1 12.69 1 10.38 1 8 C0.01 8.33 -0.98 8.66 -2 9 C-2.33 7.02 -2.66 5.04 -3 3 C-2.34 3.66 -1.68 4.32 -1 5 C-0.67 3.35 -0.34 1.7 0 0 Z " fill="#8BA590" transform="translate(50,32)"/>
<path d="M0 0 C3.3 0 6.6 0 10 0 C9.67 1.65 9.34 3.3 9 5 C8.34 5 7.68 5 7 5 C6.67 4.34 6.34 3.68 6 3 C5.67 3.66 5.34 4.32 5 5 C3.35 5 1.7 5 0 5 C0 3.35 0 1.7 0 0 Z " fill="#869E8B" transform="translate(52,61)"/>
<path d="M0 0 C3.90938504 1.30312835 6.41779075 2.74832909 9 6 C9 7.32 9 8.64 9 10 C7.02 10.99 7.02 10.99 5 12 C5 9.69 5 7.38 5 5 C4.360625 4.731875 3.72125 4.46375 3.0625 4.1875 C1 3 1 3 0 0 Z " fill="#275A33" transform="translate(28,31)"/>
<path d="M0 0 C0 2.31 0 4.62 0 7 C-1.65 6.67 -3.3 6.34 -5 6 C-4.625 3.5625 -4.625 3.5625 -4 1 C-2 0 -2 0 0 0 Z M-1 7 C-1 8.65 -1 10.3 -1 12 C-2.32 11.67 -3.64 11.34 -5 11 C-5 10.01 -5 9.02 -5 8 C-2 7 -2 7 -1 7 Z " fill="#7D9683" transform="translate(51,60)"/>
<path d="M0 0 C2.475 0.495 2.475 0.495 5 1 C4.67 2.65 4.34 4.3 4 6 C3.34 6 2.68 6 2 6 C1.67 8.64 1.34 11.28 1 14 C0.67 14 0.34 14 0 14 C0 9.38 0 4.76 0 0 Z " fill="#859C8A" transform="translate(28,58)"/>
<path d="M0 0 C0.33 0.99 0.66 1.98 1 3 C1.99 3.33 2.98 3.66 4 4 C3.01 4.33 2.02 4.66 1 5 C0.67 5.99 0.34 6.98 0 8 C-0.66 8.66 -1.32 9.32 -2 10 C-2 8.35 -2 6.7 -2 5 C-3.32 4.67 -4.64 4.34 -6 4 C-6 3.67 -6 3.34 -6 3 C-4.35 3 -2.7 3 -1 3 C-0.67 2.01 -0.34 1.02 0 0 Z " fill="#1D542B" transform="translate(58,63)"/>
<path d="M0 0 C0.33 0 0.66 0 1 0 C0.67 5.61 0.34 11.22 0 17 C-0.33 17 -0.66 17 -1 17 C-1.22262606 14.91814549 -1.42757926 12.83439574 -1.625 10.75 C-1.74101563 9.58984375 -1.85703125 8.4296875 -1.9765625 7.234375 C-1.99955595 4.06127909 -1.69705154 2.61682756 0 0 Z " fill="#2B5D38" transform="translate(49,44)"/>
<path d="M0 0 C0 3.3 0 6.6 0 10 C-0.66 8.68 -1.32 7.36 -2 6 C-2.66 6 -3.32 6 -4 6 C-4 4.68 -4 3.36 -4 2 C-1 0 -1 0 0 0 Z " fill="#195125" transform="translate(56,31)"/>
<path d="M0 0 C2.52349243 3.12432397 4.27256146 6.38060496 6 10 C2.56404834 8.47291037 -0.11912454 6.40072955 -3 4 C-2.34 3.67 -1.68 3.34 -1 3 C-0.67 2.01 -0.34 1.02 0 0 Z " fill="#B8C5BA" transform="translate(31,26)"/>
<path d="M0 0 C5.875 4.625 5.875 4.625 7 8 C3.62496331 6.8141763 1.35277269 5.72426311 -1 3 C-0.67 2.01 -0.34 1.02 0 0 Z " fill="#C3CEC5" transform="translate(26,37)"/>
<path d="M0 0 C0.99 0.33 1.98 0.66 3 1 C2.01 3.97 1.02 6.94 0 10 C-0.33 10 -0.66 10 -1 10 C-1.02689216 8.52093108 -1.04634621 7.04172517 -1.0625 5.5625 C-1.07410156 4.73878906 -1.08570313 3.91507813 -1.09765625 3.06640625 C-1 1 -1 1 0 0 Z " fill="#23562F" transform="translate(46,40)"/>
<path d="M0 0 C3.00617269 3.00617269 2.59585316 5.82381598 3 10 C2.01 8.68 1.02 7.36 0 6 C-0.66 6.66 -1.32 7.32 -2 8 C-1.125 2.25 -1.125 2.25 0 0 Z " fill="#2E5E38" transform="translate(48,20)"/>
<path d="M0 0 C1.98 0 3.96 0 6 0 C5.67 1.65 5.34 3.3 5 5 C4.34 5 3.68 5 3 5 C2.67 4.34 2.34 3.68 2 3 C1.01 2.67 0.02 2.34 -1 2 C-0.67 1.34 -0.34 0.68 0 0 Z " fill="#6E8B74" transform="translate(56,61)"/>
<path d="M0 0 C0.33 0.99 0.66 1.98 1 3 C3.31 2.34 5.62 1.68 8 1 C8 1.66 8 2.32 8 3 C6.02253397 3.73080266 4.01927511 4.39421747 2 5 C1.34 4.67 0.68 4.34 0 4 C0 2.68 0 1.36 0 0 Z " fill="#CED6D0" transform="translate(58,44)"/>
<path d="M0 0 C0.99 0.33 1.98 0.66 3 1 C2.1875 2.9375 2.1875 2.9375 1 5 C0.01 5.33 -0.98 5.66 -2 6 C-1.125 1.125 -1.125 1.125 0 0 Z " fill="#557B5E" transform="translate(54,21)"/>
<path d="M0 0 C0.99 0 1.98 0 3 0 C3 1.65 3 3.3 3 5 C2.01 5 1.02 5 0 5 C-0.5625 3.0625 -0.5625 3.0625 -1 1 C-0.67 0.67 -0.34 0.34 0 0 Z " fill="#92A696" transform="translate(53,68)"/>
<path d="M0 0 C4.75 0.75 4.75 0.75 7 3 C6.01 3.33 5.02 3.66 4 4 C3.67 4.66 3.34 5.32 3 6 C1 3 1 3 0 0 Z " fill="#AEBDB1" transform="translate(47,19)"/>
</svg>
