<svg xmlns="http://www.w3.org/2000/svg" width="174.516" height="203.818" viewBox="0 0 174.516 203.818">
  <g id="female-waiting-for-order-at-cafe" transform="translate(0 0)">
    <path id="Path_501" data-name="Path 501" d="M327.613,431.046l7.711,4.09,4.461-2.508-.371-6.209a11.359,11.359,0,0,1-2.071.639,12.332,12.332,0,0,1-2.156.291,9.472,9.472,0,0,1-2.184-.141,5.852,5.852,0,0,1-2.024-.789,8.978,8.978,0,0,0,2.071.493,15.186,15.186,0,0,0,2.118.052c.709-.023,1.414-.113,2.123-.2s1.414-.211,2.123-.348c0,0,2.409-.1,3.015-.568a13.1,13.1,0,0,0,1.075,6.866v5.673l7.9,2.6,4.274-2.513-.465-6.5a8.528,8.528,0,0,1-1.954,1.376,8.949,8.949,0,0,1-2.264.822,7.266,7.266,0,0,1-2.4.136,6.833,6.833,0,0,1-2.3-.662c.4.071.765.216,1.16.249l.578.089.582.028a9.276,9.276,0,0,0,2.306-.216,12.829,12.829,0,0,0,2.217-.714c.362-.155.714-.324,1.057-.512a11.16,11.16,0,0,0,1.024-.6s1.024-.93,6.969-.93l-.009-2.024a17.768,17.768,0,0,1-18.668-5.875,5.429,5.429,0,0,0-.291.465,23.689,23.689,0,0,1-14.953-7.063c-.094,2.6-.465,6.631.371,8.289Z" transform="translate(-263.949 -245.258)"/>
    <path id="Path_502" data-name="Path 502" d="M300.307,256.453a2.314,2.314,0,0,0,2.686-1.893l11.341-65.612a2.786,2.786,0,0,0,.033-.395c0-4.335-4.969-22.345-6.828-27.548-1.155-3.236-3.306-9.261-1.423-13.023a6.753,6.753,0,0,1,4.382-3.306c7.927-2.451,17.451,3.015,24.406,7.007,1.09.625,2.113,1.212,3.071,1.733,4.222,2.306,11.172,4.447,19.217,6.927,6.138,1.893,13.1,4.039,19.926,6.594,13.863,5.185,17.677,23.12,17.94,24.435l5.786,55.486v0a38.088,38.088,0,0,1,.8,4.795,37.32,37.32,0,0,1,.244,4.973,37.251,37.251,0,0,1-.822-4.912,39.266,39.266,0,0,1-.253-4.588,44.635,44.635,0,0,0-5.964,1.367s1.55,1.55,1.756,6.617c.023.62.028,1.291.009,2.024a28.041,28.041,0,0,0,5.255-.5l.986,9.482a2.328,2.328,0,0,0,2.311,2.08,2.192,2.192,0,0,0,.244-.014,2.318,2.318,0,0,0,2.066-2.55L406.4,255.265c0,.061,0,.117,0,.178a36.424,36.424,0,0,1-.9-4.9,37.285,37.285,0,0,1-.329-4.973,37.452,37.452,0,0,1,.9,4.9,39.473,39.473,0,0,1,.333,4.771c2.484-1.141,4.311-2.832,4.527-5.166.225-2.437-2.2-3.292-5.419-3.33l-5.838-55.956c-.009-.061-.014-.117-.024-.174-.164-.888-4.133-21.758-20.9-28.032-6.955-2.6-13.985-4.771-20.189-6.683-7.805-2.4-14.544-4.485-18.358-6.565-.911-.493-1.921-1.071-2.982-1.681-7.7-4.419-18.236-10.463-28.093-7.42a11.3,11.3,0,0,0-7.166,5.668c-2.771,5.537-.188,12.774,1.2,16.667,2.024,5.664,6.406,22.138,6.556,25.806l-11.3,65.4a2.321,2.321,0,0,0,1.893,2.682Zm73.167-181a10.615,10.615,0,0,1,1.981,2.427,12.617,12.617,0,0,1,1.267,2.834c.085.244.129.5.2.749a5.567,5.567,0,0,1,.16.756l.124.763.057.771a15.3,15.3,0,0,1,.025,1.544c-.021.515-.09,1.028-.132,1.541l-.011.135.073.118a6.814,6.814,0,0,1,1.122,4.368,10.755,10.755,0,0,1-.624,2.266,6.765,6.765,0,0,0-.55,2.489,6.155,6.155,0,0,1-.239,2.292,3.263,3.263,0,0,1-1.376,1.714,6.405,6.405,0,0,1-2.186.817c-.389.084-.791.12-1.188.182l-1.209.069-.059,0-.023.043c-.3.557-.587,1.12-.874,1.683.349-.527.7-1.055,1.035-1.589l-.082.046a8.978,8.978,0,0,0,4.863-.8,3.852,3.852,0,0,0,1.694-1.946,6.538,6.538,0,0,0,.349-2.517,6.569,6.569,0,0,1,.551-2.231,11.437,11.437,0,0,0,.683-2.421,6.184,6.184,0,0,0-.22-2.565,8.419,8.419,0,0,0-1.068-2.317l.062.252c.031-.538.089-1.075.1-1.613l-.015-.809a5.423,5.423,0,0,0-.056-.806l-.094-.8-.163-.793a5.992,5.992,0,0,0-.2-.782c-.082-.257-.144-.519-.247-.768a11.532,11.532,0,0,0-1.5-2.834,9.553,9.553,0,0,0-2.221-2.267Z" transform="translate(-298.381 -71.351)"/>
    <path id="Path_503" data-name="Path 503" d="M399.587,109.124a4.272,4.272,0,0,1-.752-.967,6.275,6.275,0,0,1-.5-1.1,9.767,9.767,0,0,1-.327-1.172l-.122-.607c-.039-.2-.064-.411-.115-.619-.037.209-.049.419-.074.632,0,.211,0,.425.012.638a5.03,5.03,0,0,0,.261,1.257,4.04,4.04,0,0,0,.613,1.138,2.494,2.494,0,0,0,1,.8Zm6.395-14.638a2.506,2.506,0,0,0-2.4-.427,2.014,2.014,0,0,0-.722.427,7.144,7.144,0,0,1,1.556-.176A8.692,8.692,0,0,1,405.981,94.487Zm-.54,3.09A.581.581,0,1,1,406,97a.581.581,0,0,1-.561.581Zm10.772,41.946a72.608,72.608,0,0,0-3.014-8.205,62.579,62.579,0,0,0-3.994-7.768c-.759-1.245-1.561-2.467-2.438-3.637a34.273,34.273,0,0,0-2.811-3.369,24.327,24.327,0,0,0-3.277-2.936,18.623,18.623,0,0,0-3.8-2.246,41.606,41.606,0,0,0-4.161-1.406c-1.393-.419-2.79-.829-4.2-1.212s-2.822-.739-4.266-1.015a17.706,17.706,0,0,0-2.2-.284,8.087,8.087,0,0,0-2.256.17c-.737.175-1.392.339-2.125.481a11.962,11.962,0,0,0-2.136.661,16.947,16.947,0,0,0-3.783,2.31A45.909,45.909,0,0,0,365.6,117.3c-1.88,2.23-3.6,4.581-5.295,6.944q-1.247,1.791-2.466,3.6c-.384.62-.792,1.226-1.161,1.854-.353.638-.727,1.264-1.062,1.911a59.563,59.563,0,0,0-3.427,8.027c-.968,2.745-1.775,5.544-2.472,8.368a144.193,144.193,0,0,0-3.062,17.173,170.246,170.246,0,0,0-1.2,17.417l0,.207.189.085a57.478,57.478,0,0,0,11.026,3.577,51.708,51.708,0,0,0,11.528,1.257,40.586,40.586,0,0,0,5.8-.505,32.286,32.286,0,0,0,5.643-1.474,28.44,28.44,0,0,0,5.262-2.526l1.23-.791c.4-.275.783-.581,1.175-.87l.584-.44.552-.479,1.1-.963.1-.091.017-.153,1.17-10.4.627-5.194c.225-1.727.447-3.461.754-5.16l-.137.2a20.811,20.811,0,0,0,2.9-2.337,20.2,20.2,0,0,0,2.435-2.8,14.78,14.78,0,0,0,1.736-3.293,11.605,11.605,0,0,0,.654-3.67l-.225.213a21.565,21.565,0,0,0,4.688-.47,21.871,21.871,0,0,0,4.472-1.43c.728-.292,1.408-.686,2.1-1.046a21.979,21.979,0,0,0,1.953-1.3,20.443,20.443,0,0,0,3.423-3.209Zm-.076-.016a21.1,21.1,0,0,1-3.454,3.079,21.765,21.765,0,0,1-1.961,1.242c-.7.34-1.374.715-2.1.987a23.1,23.1,0,0,1-4.434,1.329,21.226,21.226,0,0,1-4.591.408l-.216-.006-.009.219a11.16,11.16,0,0,1-.669,3.509,14.285,14.285,0,0,1-1.713,3.156,19.669,19.669,0,0,1-2.4,2.7,20.312,20.312,0,0,1-2.83,2.231l-.113.072-.024.124c-.335,1.732-.575,3.459-.823,5.19l-.69,5.194c-.448,3.464-.848,6.932-1.233,10.4L389,179.1l-1.072.934-.538.465-.569.426c-.382.28-.752.577-1.143.843l-1.2.766a27.635,27.635,0,0,1-5.121,2.445,35.286,35.286,0,0,1-11.18,1.947,50.949,50.949,0,0,1-11.361-1.18q-2.8-.6-5.541-1.463a53.377,53.377,0,0,1-5.366-1.981l.186.291a169.752,169.752,0,0,1,1-17.364,134.59,134.59,0,0,1,2.88-17.159c.683-2.82,1.475-5.615,2.429-8.355a59.3,59.3,0,0,1,3.46-7.971c.337-.641.712-1.261,1.066-1.892.371-.621.776-1.221,1.164-1.831q1.245-1.784,2.514-3.554c1.726-2.331,3.476-4.648,5.375-6.836a45.388,45.388,0,0,1,6.162-6.061,16.418,16.418,0,0,1,3.643-2.2,11.285,11.285,0,0,1,2.024-.616c.7-.13,1.451-.313,2.128-.471a10.42,10.42,0,0,1,4.19.138c1.412.261,2.818.61,4.217.978s2.793.774,4.185,1.183a41.163,41.163,0,0,1,4.1,1.356,18.018,18.018,0,0,1,3.7,2.155c.585.415,1.126.887,1.675,1.351.523.493,1.062.969,1.553,1.5a33.729,33.729,0,0,1,2.815,3.28c.882,1.143,1.694,2.342,2.464,3.567A74.8,74.8,0,0,1,416.138,139.506Z" transform="translate(-326.723 -80.771)"/>
    <path id="Path_504" data-name="Path 504" d="M342.319,112.45c0,1.706.036,3.409.106,5.109s.162,3.4.284,5.1.248,3.393.408,5.086.339,3.386.545,5.076l.021.172.152,0c.982.028,1.961.084,2.946.089-.967-.181-1.94-.312-2.909-.469l.172.176c-.05-1.7-.118-3.4-.222-5.1s-.218-3.395-.359-5.09-.3-3.389-.483-5.081S342.579,114.137,342.319,112.45Zm.231-24.938S343.3,97.673,339.81,102s-7.11,7.946-8.364,11.431-11.849,5.855-12.965,0,3.625-8.364,4.461-11.989,1.255-10.874,2.37-14.5-2.509-9.9,8.225-17.147,16.519,2.376,16.519,2.376-2.858,13.1-5.088,9.334c0,0-3.067-2.37-2.788,3.485m16.455,74.254.061-.382c-10.648-1.685-21.036-2.687-21.14-2.7l-.037.385C337.623,156.558,348,157.558,358.635,159.242ZM351.7,191.787l-3.083,7.586-3.059,7.6L339.5,222.182l-.363.912.856-.519a8.607,8.607,0,0,1,2.11-.87l.563-.148.573-.1a10.761,10.761,0,0,1,1.157-.142,14.844,14.844,0,0,1,4.641.436l1.134.308,1.1.41.552.2.533.253,1.066.505c.695.369,1.367.783,2.051,1.175l1.949,1.347.242.168.23-.184a4.35,4.35,0,0,1,1.1-.568l.62-.169.64-.089c.214-.019.433,0,.648-.006.108,0,.217-.008.325.006l.324.049c.215.035.433.059.647.1l.632.193a13.5,13.5,0,0,1,4.544,2.8,30.822,30.822,0,0,1,3.636,4.076l.813,1.107.407.554.372.579,1.484,2.319.425.665.195-.753q1.142-4.413,2.256-8.833l2.23-8.84,2.206-8.846,2.172-8.855-2.425,8.789-2.39,8.8-2.366,8.8q-1.192,4.4-2.341,8.811l.62-.088-1.489-2.355-.374-.588-.41-.565-.82-1.13a31.505,31.505,0,0,0-3.707-4.2,14.221,14.221,0,0,0-4.8-2.983l-.692-.213c-.237-.049-.48-.078-.72-.117l-.361-.055c-.121-.015-.245-.006-.367-.01-.245,0-.491-.01-.735.013a5.324,5.324,0,0,0-2.787,1.021l.472-.017-2-1.369c-.7-.4-1.4-.822-2.114-1.2l-1.1-.516L352.11,222l-.573-.21-1.146-.418-1.181-.315a15.538,15.538,0,0,0-4.863-.43,10.977,10.977,0,0,0-4.721,1.4l.493.392,5.835-15.3,2.887-7.662Zm36.055-6.548c.36-1.075.671-2.163,1.009-3.246a13.436,13.436,0,0,0,.454-3.41,16.286,16.286,0,0,0-1.31-6.748,14.328,14.328,0,0,0-4.177-5.462c-.468-.336-.912-.705-1.4-1.011l-1.492-.851a24.636,24.636,0,0,0-3.183-1.221l.768.362.385.174.371.2c.493.273.99.535,1.474.813l1.389.937c.447.331.861.7,1.292,1.052a5.657,5.657,0,0,1,.6.577l.581.591a5.721,5.721,0,0,1,.534.632l.512.65c.323.445.6.923.906,1.381.244.494.515.975.732,1.48a15.318,15.318,0,0,1,.582,1.547l.242.792.184.808c.143.535.2,1.088.287,1.635.033.275.046.552.074.828a7.777,7.777,0,0,1,.048.831,14.959,14.959,0,0,1-.22,3.321C388.187,183.017,387.949,184.121,387.758,185.239Zm-90.873-4.387h.109l0-.194.164-.1a29.769,29.769,0,0,1-4-11.664l-.386.031a30.191,30.191,0,0,0,4.051,11.834Zm69.411-3.16c-2.109.378-4.213.77-6.325,1.119-2.107.372-4.217.728-6.331,1.055-4.227.655-8.458,1.279-12.7,1.719-2.122.227-4.249.4-6.377.5a42.065,42.065,0,0,1-6.36-.121,11.533,11.533,0,0,1-3.046-.7,3.64,3.64,0,0,1-1.25-.822c-.074-.095-.153-.189-.219-.289s-.117-.2-.169-.329l-.32-.737c-.876-1.955-1.727-3.92-2.624-5.865.735,2.013,1.517,4.006,2.273,6.01l.292.748c.043.122.124.262.186.391s.166.241.254.358a4.086,4.086,0,0,0,1.379.981,12.033,12.033,0,0,0,3.166.845,37.875,37.875,0,0,0,6.465.263c2.151-.072,4.294-.245,6.43-.46,4.269-.462,8.512-1.108,12.725-1.9q3.159-.6,6.3-1.269C362.134,178.706,364.225,178.241,366.3,177.692ZM336.464,165.7c4.484.3,8.968.374,13.453.387,4.484-.011,8.968-.081,13.452-.387-4.484-.306-8.968-.376-13.452-.387C345.433,165.329,340.949,165.4,336.464,165.7Z" transform="translate(-273.917 -67.089)"/>
    <path id="Path_505" data-name="Path 505" d="M327.108,330.23c.31-1.51.571-3.027.858-4.54l.778-4.552c.518-3.035.975-6.078,1.433-9.122.439-3.046.877-6.093,1.255-9.148l.565-4.583c.16-1.532.347-3.06.484-4.6-.311,1.51-.572,3.027-.859,4.54l-.778,4.552c-.517,3.035-.975,6.079-1.431,9.122-.438,3.047-.876,6.093-1.253,9.148l-.565,4.583C327.433,327.167,327.246,328.695,327.108,330.23Zm-23.47-58.013c-.243,1.375-.482,2.738-.751,4.092s-.568,2.7-.948,4.01a19.1,19.1,0,0,1-1.458,3.8,5.224,5.224,0,0,1-2.858,2.726,3.607,3.607,0,0,0,1.954-.8A6.529,6.529,0,0,0,301,284.426a12.333,12.333,0,0,0,.99-1.891c.268-.657.492-1.327.694-2a26.519,26.519,0,0,0,.8-4.13A24.738,24.738,0,0,0,303.639,272.217ZM340.6,336.5c-.551,1.059-1.046,2.145-1.513,3.245s-.9,2.217-1.258,3.366a14.879,14.879,0,0,0-.74,3.577,5.644,5.644,0,0,0,.04.967c.022.165.073.335.111.5a2.416,2.416,0,0,0,.243.5,1.646,1.646,0,0,0,.953.7,2.762,2.762,0,0,0,1.076.01l.485-.111.424-.12.852-.227c.569-.149,1.145-.274,1.718-.405,1.15-.25,2.309-.465,3.472-.619a31.44,31.44,0,0,1,3.491-.293,12.573,12.573,0,0,1,3.4.308,3.991,3.991,0,0,1,1.439.658,1.889,1.889,0,0,1,.72,1.242,3.791,3.791,0,0,1-.167,1.591,4.857,4.857,0,0,1-.766,1.475,8.219,8.219,0,0,1-2.646,2.181,15.879,15.879,0,0,1-3.268,1.306,25.237,25.237,0,0,1-7.008.911c-1.193,0-2.39,0-3.589.082-.6.047-1.2.1-1.8.206-.3.054-.6.112-.9.2q-.226.061-.454.144c-.077.032-.152.058-.231.1a1.334,1.334,0,0,0-.12.062.877.877,0,0,0-.148.1l-.117.1.009.176c.11,2.172.2,4.344.335,6.515l.228-.433-4.309,2.452.434-.046-7.878-2.668.412.57c.022-1.89.019-3.779.021-5.669V359l-.06-.135a14.746,14.746,0,0,1-.764-2.24,13.028,13.028,0,0,1-.382-2.342,9.232,9.232,0,0,1,.167-2.316,6.778,6.778,0,0,1,.867-2.1l.059-.1.017-.066,1.273-4.913q.634-2.456,1.2-4.931c.381-1.648.76-3.3,1.092-4.959q.25-1.245.463-2.5c.06-.421.141-.836.183-1.26l.064-.635c.01-.215,0-.433,0-.647l-.116.01c-.019.208-.029.413-.055.619l-.115.62c-.076.412-.18.823-.268,1.233q-.3,1.229-.626,2.451c-.436,1.63-.876,3.26-1.341,4.883l-1.393,4.87-1.416,4.862.076-.162a7.768,7.768,0,0,0-1.1,2.456,10.4,10.4,0,0,0-.23,2.64,14.244,14.244,0,0,0,.383,2.579,14.045,14.045,0,0,0,.839,2.475l-.06-.266c0,1.89,0,3.779.021,5.669l.005.439.407.13,7.921,2.536.234.075.2-.121,4.241-2.567.251-.152-.023-.281c-.179-2.167-.394-4.331-.594-6.5l-.108.271a1.25,1.25,0,0,1,.114-.068c.052-.03.117-.056.176-.084.125-.052.256-.1.391-.142.269-.087.551-.154.834-.216.569-.121,1.152-.2,1.737-.266,1.172-.125,2.356-.184,3.543-.2a29.6,29.6,0,0,0,7.107-.961,18.057,18.057,0,0,0,3.381-1.258,8.846,8.846,0,0,0,2.924-2.2,5.048,5.048,0,0,0,1.23-3.553,2.738,2.738,0,0,0-.943-1.813,4.826,4.826,0,0,0-1.74-.908,9.806,9.806,0,0,0-1.842-.345,14.407,14.407,0,0,0-1.837-.075,27.112,27.112,0,0,0-3.619.3c-1.194.173-2.375.407-3.547.676q-.878.206-1.747.453l-.866.254-.431.134-.383.1a2.5,2.5,0,0,1-.365.046,2.211,2.211,0,0,1-.329-.022.8.8,0,0,1-.462-.32,2.613,2.613,0,0,1-.316-1.47,15.648,15.648,0,0,1,.554-3.427,57.375,57.375,0,0,1,2.278-6.733Z" transform="translate(-243.372 -171.672)"/>
    <path id="Path_506" data-name="Path 506" d="M324.612,407.024c-.016.259-.041.505-.066.742a2.9,2.9,0,0,1-.146.67,1.385,1.385,0,0,1-.342.537,2.23,2.23,0,0,1-.608.374,1.156,1.156,0,0,0,.785-.129,1.248,1.248,0,0,0,.529-.65A1.92,1.92,0,0,0,324.612,407.024Zm17.865,7.74a19.792,19.792,0,0,0-1.518-8.462l-.349.167a19.385,19.385,0,0,1,1.48,8.28Zm-26.136-26.194a36.541,36.541,0,0,0-1.663,3.756q-.738,1.908-1.356,3.854c-.2.649-.4,1.3-.587,1.956l-.269.986a4.087,4.087,0,0,0-.124.563,3.191,3.191,0,0,0-.015.6,3.019,3.019,0,0,0,.971,2.046,8.655,8.655,0,0,0,.861.615c.287.188.576.374.875.549-.214-.272-.438-.533-.664-.792s-.482-.512-.65-.756a2.571,2.571,0,0,1-.486-1.671,2.922,2.922,0,0,1,.2-.843l.347-.961c.227-.642.438-1.289.646-1.937q.618-1.946,1.109-3.932A36.553,36.553,0,0,0,316.341,388.571Zm-7.807,14.271a1.867,1.867,0,0,1-.62,1.1,1.781,1.781,0,0,1-.557.251c-.212.053-.438.091-.682.14a3.4,3.4,0,0,0,.348.124,2.275,2.275,0,0,0,.373.036,1.357,1.357,0,0,0,.746-.239,1.159,1.159,0,0,0,.437-.663,1.237,1.237,0,0,0-.046-.744Z" transform="translate(-233.998 -230.994)"/>
    <path id="Path_507" data-name="Path 507" d="M300.171,283.426c-1.05,1.992-1.971,4.038-2.857,6.1-.435,1.035-.863,2.072-1.265,3.121s-.8,2.1-1.142,3.173-.654,2.157-.906,3.266a10.749,10.749,0,0,0-.276,1.726c0,.564.005,1.12-.012,1.681-.017,1.122-.06,2.244-.052,3.372.012.564.024,1.13.08,1.7a5.811,5.811,0,0,0,.391,1.714l-.025-.164c-.414,2.058-.877,4.108-1.258,6.172l-.065.35.328.181,3.82,2.113c1.27.71,2.554,1.4,3.84,2.077l.3.162.292-.169,2.214-1.283c.74-.425,1.468-.871,2.2-1.305l.3-.176-.028-.318c-.183-2.065-.384-4.129-.628-6.191l-.262.29c.527-.054,1.04-.14,1.555-.245.257-.055.512-.118.765-.2a2.242,2.242,0,0,0,.721-.357l-.071-.092a2.156,2.156,0,0,1-.708.213c-.249.042-.5.069-.756.089-.507.037-1.023.045-1.527.04l-.263,0v.293c0,2.076.051,4.149.115,6.221l.27-.495c-.753.4-1.512.792-2.259,1.2l-2.247,1.226.6-.007c-1.285-.682-2.573-1.359-3.874-2.012l-3.893-1.976.263.531c.3-2.077.518-4.167.786-6.25l.012-.094-.037-.071a4.828,4.828,0,0,1-.454-1.524,14.061,14.061,0,0,1-.133-1.653,31.34,31.34,0,0,1,.115-3.345c.041-.557.091-1.121.148-1.675a10.394,10.394,0,0,1,.412-1.559c.351-1.049.769-2.084,1.151-3.131.778-2.09,1.533-4.194,2.286-6.3s1.486-4.225,2.141-6.377Zm3.306-87.875a6.369,6.369,0,0,0,.2.619l.209.584.42,1.167.848,2.33,1.729,4.649c1.186,3.087,2.4,6.165,3.675,9.218.317.764.642,1.526.983,2.281s.682,1.51,1.034,2.261a23.942,23.942,0,0,0,2.492,4.348c1.01,1.335,2.117,2.571,3.226,3.8s2.249,2.43,3.387,3.628c2.27,2.4,4.545,4.8,6.619,7.343.51.642,1.007,1.293,1.453,1.974a7.419,7.419,0,0,1,1.039,2.139l.054.277c.008.091,0,.179.006.269,0,.181-.021.416-.03.621a5.564,5.564,0,0,0,0,.634c.006.211,0,.422.028.63a19.8,19.8,0,0,0,.358,2.479,48.052,48.052,0,0,0,1.3,4.8c.246.79.51,1.575.745,2.361a6.246,6.246,0,0,1,.166,2.408c-.133,1.64-.315,3.294-.319,4.954,0,.415-.008.828.02,1.249a2.664,2.664,0,0,0,.325,1.25.691.691,0,0,0,.284.242.638.638,0,0,0,.379.029,1.487,1.487,0,0,0,.594-.318,4.95,4.95,0,0,0,.858-.941l-.237-.048a4.7,4.7,0,0,0,.424,1.279,1.712,1.712,0,0,0,.445.549,1.061,1.061,0,0,0,.7.225,2.212,2.212,0,0,0,1.246-.592,6.263,6.263,0,0,0,.921-.981l-.261-.032a3.26,3.26,0,0,0,.318.619,1.306,1.306,0,0,0,.551.5.992.992,0,0,0,.77-.015,2.125,2.125,0,0,0,.6-.394,5.771,5.771,0,0,0,.877-1.047,10.825,10.825,0,0,0,.683-1.167l-.334.022a3.02,3.02,0,0,0,.414.523,1.2,1.2,0,0,0,.3.219.648.648,0,0,0,.438.049.981.981,0,0,0,.559-.523,3.351,3.351,0,0,0,.251-.613,14.328,14.328,0,0,0,.463-2.486c.18-1.664.27-3.322.3-4.994a24.863,24.863,0,0,0-.092-2.517,10.714,10.714,0,0,0-.5-2.5,10.455,10.455,0,0,0-1.163-2.275,20.289,20.289,0,0,1-1.227-2.126c-1.424-2.972-2.739-6.032-4.06-9.071s-2.609-6.1-3.865-9.17l-.935-2.3-.894-2.329c-.645-1.542-1.317-3.06-2-4.576-1.359-3.031-2.726-6.058-4.122-9.07-2.8-6.021-5.6-12.044-8.458-18.036l-.143-.3-.237.236a17.222,17.222,0,0,1-2.979,2.313,21.528,21.528,0,0,1-3.381,1.732,20.711,20.711,0,0,1-3.64,1.118c-.619.153-1.252.226-1.883.32S304.107,195.489,303.477,195.551Zm.064.044c.644-.031,1.252-.014,1.887-.087s1.277-.131,1.9-.267a20.944,20.944,0,0,0,3.712-1.024,20.248,20.248,0,0,0,3.477-1.677,17.58,17.58,0,0,0,3.111-2.323l-.38-.063,8.2,18.153,4.08,9.081c.673,1.515,1.341,3.036,1.973,4.558l.884,2.322.934,2.315c1.276,3.07,2.6,6.116,3.932,9.159,1.35,3.038,2.666,6.078,4.148,9.076a20.966,20.966,0,0,0,1.292,2.166,9.839,9.839,0,0,1,1.132,2.129,15.093,15.093,0,0,1,.632,4.816c-.007,1.646-.073,3.309-.226,4.948a13.977,13.977,0,0,1-.41,2.41,2.956,2.956,0,0,1-.21.541c-.083.162-.2.309-.3.33s-.234-.035-.367-.164a2.654,2.654,0,0,1-.363-.446l-.188-.278-.145.3a10.482,10.482,0,0,1-.639,1.131,5.44,5.44,0,0,1-.8,1c-.3.281-.686.5-1.014.366a1.7,1.7,0,0,1-.715-.932l-.1-.245-.157.214a5.563,5.563,0,0,1-.861.937,1.955,1.955,0,0,1-1.074.533,1,1,0,0,1-.9-.626,4.45,4.45,0,0,1-.4-1.2l-.064-.291-.174.243a4.706,4.706,0,0,1-.8.891c-.294.254-.7.427-.893.1a2.483,2.483,0,0,1-.286-1.124c-.029-.4-.025-.818-.026-1.229.005-1.649.207-3.284.351-4.936a6.525,6.525,0,0,0-.157-2.507c-.233-.8-.489-1.583-.728-2.373a45.6,45.6,0,0,1-1.206-4.787,19.359,19.359,0,0,1-.3-2.431c-.02-.2-.014-.405-.015-.608a5.2,5.2,0,0,1,.016-.6c.014-.207.036-.384.042-.616,0-.116.008-.236,0-.35l-.057-.332a7.861,7.861,0,0,0-1.066-2.323c-.447-.711-.942-1.384-1.447-2.046-1.018-1.318-2.1-2.574-3.216-3.8s-2.239-2.439-3.369-3.646c-2.237-2.428-4.582-4.773-6.6-7.352a23.343,23.343,0,0,1-2.458-4.221c-.718-1.481-1.386-2.99-2.053-4.5-1.33-3.021-2.6-6.074-3.836-9.136l-1.864-4.593-.918-2.3L304,196.713l-.227-.577a4.747,4.747,0,0,0-.23-.542Z" transform="translate(-229.688 -129.58)"/>
    <path id="Path_508" data-name="Path 508" d="M310.217,320.229l-2.326,9.064.377.089Z" transform="translate(-202.316 -196.151)"/>
    <path id="Path_509" data-name="Path 509" d="M303.835,320.229l-1.632,9.5.383.058Z" transform="translate(-193.146 -196.151)"/>
    <path id="Path_510" data-name="Path 510" d="M297.79,320.229l-.612,7.983.387.02Z" transform="translate(-184.638 -196.151)"/>
    <path id="Path_511" data-name="Path 511" d="M442.059,350.148h.056a2.324,2.324,0,0,0,2.267-2.378l-1.766-73.885a2.336,2.336,0,0,0-.024-.283L435.377,224.5a2.323,2.323,0,1,0-4.6.676l7.195,48.965,1.762,73.743A2.324,2.324,0,0,0,442.059,350.148Z" transform="translate(-396.706 -146.33)"/>
    <path id="Path_512" data-name="Path 512" d="M327.975,302.42l.558,3.9c5.39,6.691,26.487,10.966,26.487,10.966h5.944l51.409-12.174-1.595-4.493s-35.033,11.091-55.386,9.14c-9.48-.91-14.909-5.9-18-10.974h0C327.289,299.984,327.975,302.42,327.975,302.42Z" transform="translate(-314.311 -185.219)"/>
    <path id="Path_513" data-name="Path 513" d="M176.111,289.631l.11,0a2.324,2.324,0,0,0,2.213-2.429l-1.806-38.843a2.324,2.324,0,1,0-4.642.216l1.806,38.843a2.324,2.324,0,0,0,2.319,2.216ZM209.4,199.952c7.035.735,14.111,1.076,21.188,1.158,7.076.04,14.162-.093,21.221-.684q5.292-.452,10.556-1.169,2.631-.36,5.248-.807c1.746-.288,3.489-.6,5.223-.957s3.456-.772,5.169-1.225a39.494,39.494,0,0,0,5.054-1.672,16.743,16.743,0,0,0,2.39-1.219,5.526,5.526,0,0,0,1.979-1.9,2.288,2.288,0,0,0,.262-1.439,2.9,2.9,0,0,0-.612-1.313,7.625,7.625,0,0,0-2.135-1.728,26.334,26.334,0,0,0-4.933-2.111c-1.692-.561-3.413-1.018-5.143-1.42-3.461-.8-6.96-1.412-10.472-1.894-7.024-.972-14.094-1.543-21.171-1.818s-14.163-.225-21.236.05c-7.072.3-14.135.85-21.142,1.84h-.007v.116h.024c7.038-.608,14.1-.934,21.152-1.047s14.114-.019,21.16.28,14.086.777,21.076,1.663c3.492.452,6.976.985,10.415,1.711,1.718.369,3.426.781,5.106,1.276a25.671,25.671,0,0,1,4.856,1.907,7.069,7.069,0,0,1,2.007,1.531,2.359,2.359,0,0,1,.528,1.046,1.768,1.768,0,0,1-.18,1.124,5.067,5.067,0,0,1-1.768,1.764,16.337,16.337,0,0,1-2.316,1.208,50.554,50.554,0,0,1-10.142,2.878c-1.732.331-3.471.631-5.217.88s-3.5.453-5.253.637c-3.509.37-7.027.638-10.548.847a392.927,392.927,0,0,1-42.33.375Zm-18.339-2.075.069-.381a78.2,78.2,0,0,1-8.8-2.047l-.113.371a78.557,78.557,0,0,0,8.843,2.057Zm62.4-23.885c-.027-.2-.249-.3-.411-.377a4.326,4.326,0,0,0-.543-.2,10.653,10.653,0,0,0-1.124-.227,16.457,16.457,0,0,0-4.557,0,10.735,10.735,0,0,0-1.124.227,4.32,4.32,0,0,0-.543.2c-.162.08-.385.173-.411.378.066-.183.28-.224.447-.282a4.2,4.2,0,0,1,.547-.108,11.152,11.152,0,0,1,1.115-.116q1.121-.07,2.247-.067t2.247.067c.374.023.747.057,1.115.117a4.193,4.193,0,0,1,.547.108C253.18,173.768,253.394,173.809,253.461,173.992Z" transform="translate(-113.194 -121.103)"/>
    <path id="Path_514" data-name="Path 514" d="M252.175,169.715v16.8a13.962,13.962,0,0,0,8.713,0v-16.8c0,.422-1.952.767-4.356.767S252.175,170.137,252.175,169.715Zm-1.6-4.112c-.027-.2-.249-.3-.411-.377a4.326,4.326,0,0,0-.543-.2,10.652,10.652,0,0,0-1.124-.227,16.461,16.461,0,0,0-4.557,0,10.729,10.729,0,0,0-1.124.227,4.325,4.325,0,0,0-.543.2c-.162.08-.385.173-.411.378.066-.183.28-.224.447-.282a4.193,4.193,0,0,1,.547-.108,11.14,11.14,0,0,1,1.115-.116q1.121-.07,2.247-.067t2.247.067c.374.023.747.057,1.116.117a4.2,4.2,0,0,1,.547.108C250.292,165.378,250.505,165.419,250.572,165.6Zm-8.713,0v16.8a13.961,13.961,0,0,0,8.713,0V165.6c0,.422-1.952.767-4.356.767S241.859,166.024,241.859,165.6Z" transform="translate(-120.621 -116.826)"/>
    <rect id="Rectangle_174" data-name="Rectangle 174" width="4.647" height="74.711" transform="translate(118.914 79.983)"/>
    <path id="Path_515" data-name="Path 515" d="M257.934,406.871a1.937,1.937,0,0,0,1.767-2.727c-.4-.889-9.862-21.837-20.739-28.073a1.936,1.936,0,1,0-1.926,3.36c9.784,5.609,19.038,26.089,19.131,26.3A1.937,1.937,0,0,0,257.934,406.871Z" transform="translate(-116.762 -224.491)"/>
    <path id="Path_516" data-name="Path 516" d="M264.31,417.891a1.962,1.962,0,0,0,.37-.036,1.936,1.936,0,0,0,1.533-2.269c-.243-1.254-6.032-30.832-14.15-41.716a1.936,1.936,0,0,0-3.1,2.315c7.593,10.181,13.394,39.838,13.452,40.136A1.937,1.937,0,0,0,264.31,417.891Z" transform="translate(-129.275 -223.102)"/>
    <path id="Path_517" data-name="Path 517" d="M277.3,400.021a1.937,1.937,0,0,0,1.868-1.431h0c.04-.149,4.132-14.935,12.943-21.945a1.936,1.936,0,1,0-2.41-3.031c-9.817,7.809-14.093,23.308-14.27,23.964a1.938,1.938,0,0,0,1.871,2.442Z" transform="translate(-168.998 -223.154)"/>
    <path id="Path_518" data-name="Path 518" d="M371.133,296.739a1.936,1.936,0,0,0,1.933-1.86c.012-.3,1.275-30.5,7.243-41.706a1.936,1.936,0,1,0-3.418-1.821c-6.383,11.984-7.644,42.1-7.694,43.373a1.935,1.935,0,0,0,1.858,2.011ZM285.024,164.289a1,1,0,0,1,0-2A1,1,0,0,1,285.024,164.289Zm-2.9,8.455a1,1,0,0,1,0-2A1,1,0,0,1,282.122,172.744Zm-2.822,8.863a1,1,0,0,1,0-2A1,1,0,0,1,279.3,181.607Zm12.793-30.022a1,1,0,0,1,0-2A1,1,0,0,1,292.093,151.585Zm2.532,5.515a1,1,0,0,1,0-2A1,1,0,0,1,294.625,157.1Zm1.618,6.035a1,1,0,0,1,0-2A1,1,0,0,1,296.243,163.135Zm-6.035,1.618a1,1,0,0,1,0-2A1,1,0,0,1,290.208,164.753Zm2.654,9.982a1,1,0,0,1,0-2A1,1,0,0,1,292.862,174.736Zm-5.237,2.223a1,1,0,0,1,0-2A1,1,0,0,1,287.624,176.959Zm-.7-6.555a1,1,0,0,1,0-2A1,1,0,0,1,286.92,170.4Zm1.688-12.451a1,1,0,0,1,0-2A1,1,0,0,1,288.608,157.952Zm9.854,12.54a1,1,0,0,1,0-2A1,1,0,0,1,298.462,170.492Zm-2.2,9.418a1,1,0,0,1,0-2A1,1,0,0,1,296.259,179.91Zm-9.973,6.126a1,1,0,0,1,0-2A1,1,0,0,1,286.286,186.036Zm-5.484,3.119a1,1,0,0,1,0-2A1,1,0,0,1,280.8,189.155Zm21.823-13.471a1,1,0,0,1,0-2A1,1,0,0,1,302.625,175.685ZM299.4,149.546a1,1,0,0,1,0-2A1,1,0,0,1,299.4,149.546Zm3.088,4.9a1,1,0,0,1,0-2A1,1,0,0,1,302.488,154.443Zm2.205,6a1,1,0,0,1,0-2A1,1,0,0,1,304.693,160.446Zm1.99,7.487a1,1,0,0,1,0-2A1,1,0,0,1,306.683,167.933Zm13.831,2.471a1,1,0,0,1,0-2A1,1,0,0,1,320.514,170.4Zm-11.03,6.974a1,1,0,0,1,0-2A1,1,0,0,1,309.485,177.377Zm-5.08,5.158a1,1,0,0,1,0-2A1,1,0,0,1,304.4,182.535Zm-14.923,11.512a1,1,0,0,1,0-2A1,1,0,0,1,289.481,194.047ZM301.293,165.1a1,1,0,0,1,0-2A1,1,0,0,1,301.293,165.1Zm11.82,7.49a1,1,0,0,1,0-2A1,1,0,0,1,313.113,172.592Zm-9.566,26.726a1,1,0,0,1,0-2A1,1,0,0,1,303.547,199.318Zm8.2-35.776a1,1,0,0,1,0-2A1,1,0,0,1,311.746,163.541Zm-2.819-8.678a1,1,0,0,1,0-2A1,1,0,0,1,308.927,154.863Zm7.38,2.607a1,1,0,0,1,0-2A1,1,0,0,1,316.306,157.47Zm2.823,6.559a1,1,0,0,1,0-2A1,1,0,0,1,319.13,164.029Zm-10.97,23.779a1,1,0,0,1,0-2A1,1,0,0,1,308.16,187.808Zm-5.636,5.776a1,1,0,0,1,0-2A1,1,0,0,1,302.524,193.584Zm-6.28,3.016a1,1,0,0,1,0-2A1,1,0,0,1,296.243,196.6Zm-2.977-7.445a1,1,0,0,1,0-2A1,1,0,0,1,293.267,189.155Zm6.134-2.091a1,1,0,0,1,0-2A1,1,0,0,1,299.4,187.064Zm-4.737-42.451a1,1,0,0,1,0-2A1,1,0,0,1,294.663,144.613Zm8.324-4.649a1,1,0,0,1,0-2A1,1,0,0,1,302.987,139.964Zm-4.032,2.747a1,1,0,0,1,0-2A1,1,0,0,1,298.955,142.711Zm20.812,2.829a1,1,0,0,1,0-2A1,1,0,0,1,319.767,145.541Zm-5.242,4.342a1,1,0,0,1,0-2A1,1,0,0,1,314.526,149.883ZM281.437,196.6a1,1,0,0,1,0-2A1,1,0,0,1,281.437,196.6Zm.878,6.116a1,1,0,0,1,0-2A1,1,0,0,1,282.315,202.716Zm16.112,1.942a1,1,0,0,1,0-2A1,1,0,0,1,298.427,204.658Zm-8.218-2.683a1,1,0,0,1,0-2A1,1,0,0,1,290.208,201.976Zm-13.469-2.949a1,1,0,0,1,0-2A1,1,0,0,1,276.739,199.026Zm52-62.235a1,1,0,0,1,0-2A1,1,0,0,1,328.738,136.791Zm-3.122,4.346a1,1,0,0,1,0-2A1,1,0,0,1,325.615,141.137Zm-1.487,9.615a1,1,0,0,1,0-2A1,1,0,0,1,324.129,150.753Zm6.362-2.107a1,1,0,0,1,0-2A1,1,0,0,1,330.491,148.646Zm3.028-6.107a1,1,0,0,1,0-2A1,1,0,0,1,333.519,142.539Zm5.3,6.662a1,1,0,0,1,0-2A1,1,0,0,1,338.82,149.2Zm4.226,6.366a1,1,0,0,1,0-2A1,1,0,0,1,343.046,155.567Zm-8.576.341a1,1,0,0,1,0-2A1,1,0,0,1,334.47,155.909Zm-9.174,2.043a1,1,0,0,1,0-2A1,1,0,0,1,325.3,157.952Zm3.555,7.9a1,1,0,0,1,0-2A1,1,0,0,1,328.851,165.855Zm5.508-3.23a1,1,0,0,1,0-2A1,1,0,0,1,334.359,162.625Zm7.562-1a1,1,0,0,1,0-2A1,1,0,0,1,341.921,161.629Zm-19.532,15.329a1,1,0,0,1,0-2A1,1,0,0,1,322.389,176.959Zm-5.475,2.846a1,1,0,0,1,0-2A1,1,0,0,1,316.914,179.805Zm.611,12.505a1,1,0,0,1,0-2A1,1,0,0,1,317.524,192.31Zm-4.109-7.491a1,1,0,0,1,0-2A1,1,0,0,1,313.415,184.819Zm-3.409,8.894a1,1,0,0,1,0-2A1,1,0,0,1,310.006,193.713Zm6.363,5.6a1,1,0,0,1,0-2A1,1,0,0,1,316.369,199.318Zm-7.863,2.658a1,1,0,0,1,0-2A1,1,0,0,1,308.506,201.976Z" transform="translate(-256.894 -101.607)"/>
    <path id="Path_519" data-name="Path 519" d="M318.923,425.3c.019,0,.042,0,.061-.009l-.028-.258v0c-.009-.038-.019-.08-.028-.117C318.923,425.044,318.923,425.171,318.923,425.3Z" transform="translate(-216.492 -249.523)" fill="#fff"/>
    <path id="Path_520" data-name="Path 520" d="M307.646,442.255l0,.023v-.023Z" transform="translate(-199.63 -258.365)" fill="#fff"/>
  </g>
</svg>
