<svg xmlns="http://www.w3.org/2000/svg" width="147.091" height="130" viewBox="0 0 147.091 130">
  <g id="girl-and-boy-doing-discussion" transform="translate(-136.959 -86.708)">
    <path id="Path_264" data-name="Path 264" d="M234.282,243.457c-.969.179-7.879,2.08-12.549,1.015.949,2.428,2.778,3.175,3.814,3.175,1.293,0,3.754,1.942,4.852,3.559s-4.852,1.422-6.536,1.422-5.762-2.071-7.379-2.716-8.153-1.621-9.579-3.949,1.746-5.567,1.746-5.567,9.192,5.309,12.559,1.942a2.429,2.429,0,0,0,.026,1.092,2.312,2.312,0,0,0,.47.982,4.924,4.924,0,0,0-.149-1.058,4.67,4.67,0,0,0-.347-1.015,7.753,7.753,0,0,1-.906-4.4l.258-2.461s2.378-.175,3.139-1.111l.056-.079s1.4,5.656,5.864,6.109S235.254,243.282,234.282,243.457Zm-25.353-85.67c.526.972,1.072,1.932,1.664,2.864v.007s-6.016,1.359-9.384,6.086a11.189,11.189,0,0,1-1.092-1.469c-.334-.509-.635-1.042-.923-1.574a30.661,30.661,0,0,1-1.488-3.334l-.321-.853-.288-.867c-.212-.576-.351-1.168-.542-1.75-.172-.585-.318-1.178-.476-1.766s-.281-1.191-.437-1.786c.083.609.185,1.214.278,1.819.129.6.248,1.2.387,1.8a29.91,29.91,0,0,0,1.092,3.523,23.088,23.088,0,0,0,1.574,3.337,12.758,12.758,0,0,0,2.236,2.921s.258,11.649.711,12.685c0,0-10.29,8.319-23.3,6.083,0,0,2.428-28.346,12.718-38.93,0,0,5.825-6.311,13.108-4.756,0,0,2.653.129,2.653,6.278a30.047,30.047,0,0,0-.02,3.321,11.01,11.01,0,0,0,.585,3.291c.1.265.2.516.271.774.04.129.069.258.1.39.02.066.043.149.066.218l.083.2C208.413,156.812,208.665,157.3,208.929,157.788Z" transform="translate(-27.28 -35.928)" fill="#020202"/>
    <path id="Path_265" data-name="Path 265" d="M264.608,173.026l-.711-1.488-.724-1.492c-.232-.5-.48-.992-.685-1.5l-.069-.189c-.02-.06-.036-.109-.053-.175-.033-.139-.063-.278-.1-.417-.079-.271-.179-.536-.271-.791a12.711,12.711,0,0,1-.645-3.2c-.06-.546-.1-1.095-.129-1.647s-.06-1.1-.1-1.654c2.719,3.5,2.782.582,2.782.582C263.964,162.677,266.421,167.46,264.608,173.026Z" transform="translate(-81.295 -48.303)" fill="#020202"/>
    <path id="Path_266" data-name="Path 266" d="M215.038,87.519A6.111,6.111,0,0,1,217.99,90.2a5.673,5.673,0,0,1,.62,1.926c.046.335.05.678.071,1.012l.02.5c.009.167.036.332.054.5a5.69,5.69,0,0,0,.568,1.9l.118.219.138.206a4,4,0,0,0,.3.392,4.506,4.506,0,0,0,.738.655c.27.2.562.328.857.557a1.53,1.53,0,0,1,.465.958,1.077,1.077,0,0,1-.114.548,1.184,1.184,0,0,1-.383.4,2.707,2.707,0,0,1-.99.36l.108-.131a22.252,22.252,0,0,1-.239,4.005,7.225,7.225,0,0,1-.57,1.959,2.212,2.212,0,0,1-.678.847,1.257,1.257,0,0,1-.55.206,1.018,1.018,0,0,1-.294,0l-.144-.017-.12-.02a9.8,9.8,0,0,0-3.862.132,5.135,5.135,0,0,0-1.742.724c-.06.046-.124.089-.18.137l-.157.153a2.579,2.579,0,0,0-.261.366c-.181.291-.373.567-.565.839a12.758,12.758,0,0,0-1.041,1.649,3.038,3.038,0,0,0-.361,1.767c.093.605.3,1.256.466,1.9s.342,1.294.474,1.954a17.415,17.415,0,0,1,.392,4.021,13.768,13.768,0,0,1-.689,3.989.249.249,0,0,1-.176.163h0a17.726,17.726,0,0,0-2.655.9,19.036,19.036,0,0,0-2.5,1.291,15.322,15.322,0,0,0-2.26,1.673,13.757,13.757,0,0,0-1.895,2.074l.029-.094c.034,2.118.079,4.237.164,6.354q.059,1.588.149,3.174c.03.529.068,1.056.11,1.583a9.178,9.178,0,0,0,.222,1.539l0,.015a.092.092,0,0,1-.033.1A32.243,32.243,0,0,1,196.3,146.8a35.482,35.482,0,0,1-5.787,2.213c-1,.277-2.005.514-3.025.7a29.353,29.353,0,0,1-3.084.375,27.39,27.39,0,0,1-6.206-.29.2.2,0,0,1-.17-.22,129.246,129.246,0,0,1,2.066-13.891,90.751,90.751,0,0,1,3.812-13.529,46.108,46.108,0,0,1,2.954-6.4,25.21,25.21,0,0,1,4.227-5.682,18.567,18.567,0,0,1,5.975-3.822,12.384,12.384,0,0,1,7.052-.607l-.2.037a3.666,3.666,0,0,0,1.722-2.856,3.2,3.2,0,0,0-.491-1.646l-.235-.378c-.084-.123-.189-.233-.282-.351l-.29-.349c-.1-.122-.213-.24-.312-.367a7.339,7.339,0,0,1-1.445-3.491,9.27,9.27,0,0,1,.234-3.751,8.193,8.193,0,0,1,1.747-3.307,6.542,6.542,0,0,1,1.437-1.209,5.7,5.7,0,0,1,.838-.428c.29-.12.589-.209.883-.315a10.6,10.6,0,0,1,7.323.3Zm-.025.058a10.511,10.511,0,0,0-7.261-.238c-.289.107-.586.2-.869.318a5.563,5.563,0,0,0-.815.425,6.081,6.081,0,0,0-1.383,1.2,7.987,7.987,0,0,0-1.638,3.257,8.968,8.968,0,0,0-.154,3.639,6.978,6.978,0,0,0,1.442,3.288l.613.7c.1.123.215.238.309.368l.266.407a3.663,3.663,0,0,1,.594,1.868,3.452,3.452,0,0,1-.555,1.9c-.086.141-.189.27-.284.4s-.208.254-.325.368a4.854,4.854,0,0,1-.752.645.245.245,0,0,1-.19.039l-.013,0a11.835,11.835,0,0,0-6.714.667,17.942,17.942,0,0,0-5.754,3.7,24.587,24.587,0,0,0-4.1,5.541,49.282,49.282,0,0,0-2.92,6.312,90.158,90.158,0,0,0-3.859,13.414,132.085,132.085,0,0,0-2.218,13.808l-.17-.22a27.068,27.068,0,0,0,6.115.361,29.035,29.035,0,0,0,3.055-.331c1.012-.167,2.014-.389,3.007-.65A33.416,33.416,0,0,0,196.2,146.6q1.388-.669,2.713-1.46a24.726,24.726,0,0,0,2.552-1.718l-.028.115a8.853,8.853,0,0,1-.248-1.6c-.045-.529-.087-1.059-.12-1.588q-.1-1.588-.169-3.177-.136-3.178-.242-6.357v0a.146.146,0,0,1,.029-.092,14.094,14.094,0,0,1,1.908-2.158,15.637,15.637,0,0,1,2.287-1.75,19.462,19.462,0,0,1,2.538-1.359,18.118,18.118,0,0,1,2.725-.966l-.18.164a14.015,14.015,0,0,0,.628-3.849,16.877,16.877,0,0,0-.4-3.9c-.132-.643-.3-1.28-.475-1.918a17.016,17.016,0,0,1-.484-1.974,3.587,3.587,0,0,1,.431-2.078,13.2,13.2,0,0,1,1.1-1.711c.193-.27.383-.537.556-.81a3.181,3.181,0,0,1,.323-.439l.2-.193c.07-.058.145-.109.218-.163a5.6,5.6,0,0,1,1.922-.786,9.876,9.876,0,0,1,4.054-.071l.126.023.1.013a.634.634,0,0,0,.2,0,.848.848,0,0,0,.376-.132,1.841,1.841,0,0,0,.562-.686,6.893,6.893,0,0,0,.575-1.846,21.806,21.806,0,0,0,.315-3.939.133.133,0,0,1,.108-.131,2.476,2.476,0,0,0,.9-.3.954.954,0,0,0,.316-.313.855.855,0,0,0,.1-.425,1.33,1.33,0,0,0-.383-.826c-.233-.19-.556-.351-.825-.556a4.673,4.673,0,0,1-.754-.7,4.16,4.16,0,0,1-.305-.413l-.139-.216L219.2,96.1a5.945,5.945,0,0,1-.564-1.949c-.016-.169-.043-.336-.051-.505l-.017-.507c-.018-.337-.019-.669-.062-1a5.575,5.575,0,0,0-.6-1.9,6.035,6.035,0,0,0-2.9-2.663Z" transform="translate(-26.889)" fill="#020202"/>
    <path id="Path_267" data-name="Path 267" d="M178.593,257.243c.161,1.762.4,3.519.713,5.258a25.56,25.56,0,0,0,1.387,5.087,7.043,7.043,0,0,0,.612,1.14,2.1,2.1,0,0,0,.9.811,7.77,7.77,0,0,0,1.247.324q.648.12,1.3.217c1.746.256,3.506.442,5.266.62,3.521.359,7.05.649,10.581.919l10.6.761h0a.27.27,0,0,1,.25.287q-.326,4.935-.7,9.867l-.725,9.865-.687,9.868-.634,9.871-.056-.105a29.286,29.286,0,0,0,3,1.451,24.459,24.459,0,0,0,3.15,1.085,11.822,11.822,0,0,0,3.266.446,4.2,4.2,0,0,0,2.945-1.077l-.029.232a7.746,7.746,0,0,1-.685-1.671,8.084,8.084,0,0,1-.3-1.776,11.233,11.233,0,0,1,.093-1.785l.174-1.75a.23.23,0,0,1,.2-.206h.009a7.131,7.131,0,0,0,2.4-.61,1.259,1.259,0,0,0,.72-.743.9.9,0,0,0,.008-.245l-.025-.327c-.015-.217-.026-.434-.034-.651a16.837,16.837,0,0,1,.476-5.21c.057-.215.149-.424.223-.636.076-.186.149-.389.219-.589.141-.4.277-.809.411-1.216q.4-1.223.78-2.455.762-2.462,1.477-4.94,1.432-4.953,2.706-9.949c.841-3.331,1.624-6.678,2.22-10.054a46.1,46.1,0,0,0,.643-5.08,11.466,11.466,0,0,0-.083-2.5,2.354,2.354,0,0,0-.425-1.061,4.34,4.34,0,0,0-.873-.83,13.361,13.361,0,0,0-2.179-1.271c-.766-.369-1.554-.7-2.351-1.009-1.6-.616-3.228-1.148-4.871-1.645-3.286-1-6.621-1.84-9.97-2.618s-6.714-1.5-10.094-2.144a.031.031,0,1,1,.011-.062,190.491,190.491,0,0,1,20.185,4.378c1.657.478,3.3,1,4.924,1.606.81.3,1.613.633,2.4,1a13.884,13.884,0,0,1,2.284,1.305,4.892,4.892,0,0,1,1,.935,2.428,2.428,0,0,1,.357.63,3.972,3.972,0,0,1,.188.672,12.007,12.007,0,0,1,.118,2.644,44.214,44.214,0,0,1-.633,5.158c-.593,3.4-1.372,6.764-2.208,10.107s-1.763,6.662-2.739,9.965q-.732,2.478-1.507,4.943-.389,1.232-.8,2.46c-.137.409-.275.818-.422,1.226-.074.205-.146.407-.235.619-.067.194-.152.379-.206.58a16.822,16.822,0,0,0-.5,5.024c.006.213.014.425.026.637l.02.317a1.414,1.414,0,0,1-.022.4,1.364,1.364,0,0,1-.4.672,2.443,2.443,0,0,1-.592.4,5.633,5.633,0,0,1-1.276.432,9.653,9.653,0,0,1-1.31.2l.214-.207-.195,1.747a10.819,10.819,0,0,0-.112,1.72,7.675,7.675,0,0,0,.261,1.688,7.4,7.4,0,0,0,.625,1.583l0,.007a.188.188,0,0,1-.033.225,3.764,3.764,0,0,1-1.5.89,5.882,5.882,0,0,1-1.7.258,12.125,12.125,0,0,1-3.35-.5,24.733,24.733,0,0,1-3.172-1.137,33.075,33.075,0,0,1-3.019-1.489.113.113,0,0,1-.056-.106l.66-9.869.608-9.873.57-9.875q.281-4.938.595-9.874l.252.287-5.3-.351-5.3-.415c-3.532-.291-7.063-.6-10.588-.984-1.762-.2-3.523-.415-5.278-.7q-.658-.107-1.315-.239a7.965,7.965,0,0,1-1.315-.366,2.438,2.438,0,0,1-1.037-.948,7.353,7.353,0,0,1-.626-1.206,24.586,24.586,0,0,1-1.289-5.177q-.411-2.631-.584-5.287a.031.031,0,0,1,.029-.033A.032.032,0,0,1,178.593,257.243Z" transform="translate(-27.22 -107.66)" fill="#020202"/>
    <path id="Path_268" data-name="Path 268" d="M237.648,256.846a182.347,182.347,0,0,1,18.2,4.886c1.492.5,2.977,1.021,4.437,1.617a32.526,32.526,0,0,1,4.281,2.049,8.6,8.6,0,0,1,1.931,1.478,2.391,2.391,0,0,1,.633,1.166,1.727,1.727,0,0,1,.017.364l-.035.3-.069.592c-.2,1.569-.459,3.116-.711,4.667q-.8,4.643-1.659,9.273c-.573,3.087-1.131,6.176-1.74,9.255l-1.815,9.24c-.632,3.075-1.245,6.153-1.9,9.223l1.6-9.28,1.642-9.272c1.092-6.181,2.227-12.355,3.255-18.544.26-1.545.526-3.094.735-4.637l.071-.576.036-.288a1.117,1.117,0,0,0-.01-.221,1.836,1.836,0,0,0-.484-.868,8.085,8.085,0,0,0-1.79-1.379,32.005,32.005,0,0,0-4.192-2.036c-1.445-.593-2.912-1.14-4.387-1.664-2.955-1.04-5.952-1.966-8.964-2.841C243.715,258.456,240.685,257.638,237.648,256.846Z" transform="translate(-65.929 -111.403)" fill="#020202"/>
    <path id="Path_269" data-name="Path 269" d="M254.208,231.06c1.092-1.214,2.218-2.382,3.4-3.5.594-.555,1.2-1.1,1.845-1.6a11.32,11.32,0,0,1,1-.7,3.462,3.462,0,0,1,1.114-.48,3.423,3.423,0,0,0-1.071.545,11.189,11.189,0,0,0-.942.755c-.6.535-1.171,1.109-1.723,1.7-1.1,1.178-2.146,2.415-3.141,3.676l0,0a.315.315,0,1,1-.495-.39Zm-9.536-34.285a65.193,65.193,0,0,0,3.787,8.092,16.375,16.375,0,0,0,1.225,1.841,6.447,6.447,0,0,0,.732.8,1.784,1.784,0,0,0,.848.468.852.852,0,0,0,.244.007l.266-.01c.177-.012.356-.046.533-.067a8.778,8.778,0,0,0,1.058-.26,17.757,17.757,0,0,0,2.062-.787c1.35-.606,2.664-1.308,3.959-2.042s2.581-1.486,3.858-2.257q3.821-2.326,7.6-4.729h0a.2.2,0,0,1,.246.028,13.757,13.757,0,0,0,1.365,1.187,12.574,12.574,0,0,0,1.512,1,8.862,8.862,0,0,0,1.656.718,5.459,5.459,0,0,0,1.773.219h0a.121.121,0,0,1,.048.008c.743.283,1.5.544,2.262.765a11.337,11.337,0,0,0,1.155.276,3.405,3.405,0,0,0,.578.055c.182,0,.394-.045.383-.162a.087.087,0,0,1,.111-.092l.013,0a4.374,4.374,0,0,0,1.387.2.723.723,0,0,0,.564-.228.7.7,0,0,0-.014-.6.1.1,0,0,1,.12-.138h0a5.276,5.276,0,0,0,.954.124,1.332,1.332,0,0,0,.859-.19c.2-.17.092-.509-.052-.775a3,3,0,0,0-.575-.749,3.444,3.444,0,0,0-.772-.549c-.28-.141-.593-.273-.887-.411-.6-.275-1.193-.552-1.785-.839-.3-.144-.592-.289-.885-.442-.147-.077-.293-.155-.439-.239-.073-.042-.146-.087-.221-.139a.624.624,0,0,1-.131-.114.234.234,0,0,1-.051-.124.238.238,0,0,1,.024-.118.286.286,0,0,1,.1-.113.843.843,0,0,1,.3-.105c.089-.017.176-.028.262-.036a4.994,4.994,0,0,1,.511-.017,5.427,5.427,0,0,1,1.015.106,4.61,4.61,0,0,1,.491.141l.468.141q.47.137.944.261c.631.163,1.267.318,1.9.419a3.147,3.147,0,0,0,.89.05c.017,0,.049-.014.035-.011s0,0,0,0a.055.055,0,0,0-.02.019c-.006.016-.022.034-.021.057s0,.007,0,0v-.088l-.006-.107a.739.739,0,0,0-.121-.354,2.109,2.109,0,0,0-.648-.572,7.562,7.562,0,0,0-.84-.444c-.583-.269-1.195-.492-1.808-.712s-1.234-.427-1.857-.619a26.609,26.609,0,0,0-3.785-.9,17.827,17.827,0,0,0-1.925-.193c-.085-.006-.142,0-.284-.021a.924.924,0,0,1-.346-.132.843.843,0,0,1-.4-.652.683.683,0,0,1,.116-.436.835.835,0,0,1,.3-.261,1.753,1.753,0,0,1,.577-.175c.087-.016.191-.02.26-.032s.133-.017.2-.035l.207-.058.208-.08a4.63,4.63,0,0,0,.8-.444,4.021,4.021,0,0,0,1.24-1.3,1.633,1.633,0,0,0,.218-.772c-.01-.061-.017-.123-.023-.184a.286.286,0,0,0-.045-.12.32.32,0,0,0-.426-.1.352.352,0,0,0-.1.085q-.085.1-.175.2a5.978,5.978,0,0,1-.777.693,6.506,6.506,0,0,1-1.831.953,12.852,12.852,0,0,1-1.971.432c-.32.055-.652.107-.938.179a2.875,2.875,0,0,0-.756.427c-.52.369-1.029.784-1.538,1.195a34.8,34.8,0,0,1-3.169,2.4,4.2,4.2,0,0,1-.947.456,8.4,8.4,0,0,1-1.005.187c-.659.091-1.313.152-1.968.218-1.308.127-2.615.234-3.914.391-.649.079-1.3.167-1.935.29a5.774,5.774,0,0,0-1.81.568l-.013.008a.144.144,0,0,1-.2-.051.155.155,0,0,1-.009-.019l-2.418-6.012a.031.031,0,1,1,.058-.025l2.63,5.923-.219-.062a3.823,3.823,0,0,1,.465-.244c.159-.057.317-.127.477-.173l.483-.136.486-.111c.648-.142,1.3-.247,1.952-.343,1.3-.188,2.612-.337,3.916-.484.651-.076,1.3-.147,1.944-.245a8.091,8.091,0,0,0,.928-.185,3.719,3.719,0,0,0,.814-.412,34.519,34.519,0,0,0,3.072-2.4c.507-.42,1.008-.846,1.555-1.243a3.357,3.357,0,0,1,.956-.526c.351-.089.67-.137,1-.195a12.31,12.31,0,0,0,1.872-.413,5.86,5.86,0,0,0,1.646-.863,5.332,5.332,0,0,0,.689-.619q.078-.084.151-.171a1.021,1.021,0,0,1,.273-.233.976.976,0,0,1,1.308.316.936.936,0,0,1,.135.334l.039.3a2.277,2.277,0,0,1-.294,1.106,4.661,4.661,0,0,1-1.443,1.536,5.158,5.158,0,0,1-.925.505l-.253.095-.267.073c-.09.023-.189.031-.284.046s-.155.013-.229.026a1.159,1.159,0,0,0-.363.1.216.216,0,0,0-.073.054c-.006.009-.007.006-.007.031a.2.2,0,0,0,.1.153c.075.048.114.047.318.058a18.454,18.454,0,0,1,1.991.217,27.2,27.2,0,0,1,3.863.957,31.432,31.432,0,0,1,3.718,1.406,8.057,8.057,0,0,1,.891.493,2.561,2.561,0,0,1,.793.746,1.241,1.241,0,0,1,.184.573l.006.139v.1a.3.3,0,0,1,0,.057.339.339,0,0,1-.065.17.571.571,0,0,1-.058.068.587.587,0,0,1-.055.038.564.564,0,0,1-.194.075,2.052,2.052,0,0,1-.562.008c-.173-.016-.34-.042-.506-.071-.661-.119-1.3-.287-1.937-.464q-.477-.135-.95-.282c-.312-.089-.641-.223-.925-.292a5.055,5.055,0,0,0-.939-.115,4.635,4.635,0,0,0-.473.007c-.077.006-.154.014-.226.026a.618.618,0,0,0-.167.047c-.006,0,0,0,.018-.026a.119.119,0,0,0,.011-.059.142.142,0,0,0-.022-.07.594.594,0,0,0,.056.045c.059.042.125.085.194.126.136.083.278.162.421.24.286.156.576.306.868.455.584.3,1.173.586,1.763.871.3.147.587.275.891.435a3.694,3.694,0,0,1,.816.6,3.352,3.352,0,0,1,.611.813,1.621,1.621,0,0,1,.176.5.6.6,0,0,1-.176.547.974.974,0,0,1-.5.214,2.581,2.581,0,0,1-.513.028,5.475,5.475,0,0,1-1-.137l.122-.137a.883.883,0,0,1-.014.788.905.905,0,0,1-.72.311,4.668,4.668,0,0,1-1.455-.219l.123-.088a1.069,1.069,0,0,1-.02.105.658.658,0,0,1-.058.094.44.44,0,0,1-.164.1,1.036,1.036,0,0,1-.326.051,3.585,3.585,0,0,1-.615-.052,11.52,11.52,0,0,1-1.18-.269c-.775-.216-1.534-.47-2.289-.749l.051.007a5.91,5.91,0,0,1-1.862-.206,9.134,9.134,0,0,1-1.73-.7,12.884,12.884,0,0,1-1.576-.989,14,14,0,0,1-1.437-1.191l.248.027c-2.484,1.662-4.981,3.307-7.535,4.865l-1.921,1.162c-.647.377-1.294.754-1.953,1.111-1.31.726-2.641,1.422-4.022,2.027a18.232,18.232,0,0,1-2.129.789,9.245,9.245,0,0,1-1.119.263,4.634,4.634,0,0,1-1.185.058,2.194,2.194,0,0,1-1.079-.6,6.853,6.853,0,0,1-.765-.868,16.763,16.763,0,0,1-1.212-1.914,40.913,40.913,0,0,1-1.933-4.059c-.576-1.381-1.117-2.776-1.6-4.191a.031.031,0,0,1,.02-.04A.032.032,0,0,1,244.672,196.776Z" transform="translate(-70.489 -66.272)" fill="#020202"/>
    <path id="Path_270" data-name="Path 270" d="M270.16,221.237a7.313,7.313,0,0,0,.965-1.547,10.885,10.885,0,0,0,.636-1.7,12.2,12.2,0,0,0,.34-1.783c.047-.3.048-.6.074-.9s.008-.6.012-.906v-.012a.157.157,0,1,1,.315.005v.007c-.018.309-.026.617-.052.924s-.055.615-.115.918a12.407,12.407,0,0,1-.423,1.8,11,11,0,0,1-.716,1.7A7.351,7.351,0,0,1,270.16,221.237ZM298.6,219.3l-4.02-1.748L298.712,219a.157.157,0,0,1-.1.3Zm2.058-.754-4.719-2.208,4.844,1.919a.157.157,0,0,1-.116.293Z" transform="translate(-87.218 -83.496)" fill="#020202"/>
    <path id="Path_271" data-name="Path 271" d="M259.329,229.635c1.011.578,2.011,1.174,3.015,1.762H262.2c1.016-.683,2.038-1.358,3.037-2.061.5-.351,1-.707,1.466-1.082a5.218,5.218,0,0,0,1.146-1.327c.164-.251.32-.509.47-.771l.22-.4.059-.107a.794.794,0,0,1,.1-.138.776.776,0,0,1,.286-.192.762.762,0,0,1,.92.3c.045.072.086.139.126.211a3.223,3.223,0,0,1,.364.932,1.643,1.643,0,0,1-.123,1.074,1.5,1.5,0,0,1-.15.239l-.139.181-.267.36a12.464,12.464,0,0,0-.934,1.527l-.257-.4c1.4-.022,2.8-.012,4.193.045s2.8.138,4.186.32q.522.067,1.04.164c.179.038.332.058.531.117a.685.685,0,0,1,.42.442.7.7,0,0,1-.09.6.737.737,0,0,1-.228.206c-.083.044-.164.078-.246.117a5.689,5.689,0,0,1-1.013.324,21.645,21.645,0,0,1-4.177.434l.048-.208c1.481.719,2.977,1.407,4.466,2.109l.56.261a2.142,2.142,0,0,1,.557.377,1.921,1.921,0,0,1,.408.548,1.023,1.023,0,0,1,.115.752.587.587,0,0,1-.326.335,1.18,1.18,0,0,1-.371.083,2.921,2.921,0,0,1-.667-.041,7.3,7.3,0,0,1-1.236-.326l.318-.147a1.21,1.21,0,0,1-.511.606,2.175,2.175,0,0,1-.669.268,4.236,4.236,0,0,1-.676.1,5.29,5.29,0,0,1-.68.006l.184-.051a2.413,2.413,0,0,1-.5.248,4.182,4.182,0,0,1-.491.151,6.425,6.425,0,0,1-.994.158,3.51,3.51,0,0,1-1.04-.1c-.321-.07-.628-.144-.935-.2a11.463,11.463,0,0,0-3.732-.039c-.312.044-.625.085-.936.147l-.467.083-.493.073a5.8,5.8,0,0,1-2.029-.017,3.316,3.316,0,0,1-1-.368,2.445,2.445,0,0,1-.441-.321l-.2-.187-.17-.216a2.984,2.984,0,0,1-.286-.463,3.647,3.647,0,0,1-.185-.5,3.36,3.36,0,0,1-.13-1.065l.321.346a21.39,21.39,0,0,1-2.218-.242c-.725-.107-1.447-.225-2.168-.347-1.441-.247-2.879-.5-4.313-.8-.359-.079-.714-.15-1.081-.258a6.148,6.148,0,0,1-1.028-.484c-.643-.363-1.259-.759-1.871-1.16q-1.824-1.221-3.575-2.537a.032.032,0,0,1-.006-.044.032.032,0,0,1,.043-.007c1.222.8,2.447,1.59,3.7,2.339.622.376,1.25.747,1.891,1.078a5.894,5.894,0,0,0,.964.414c.335.085.7.146,1.056.21q2.148.38,4.313.694c.72.1,1.442.206,2.163.3s1.454.185,2.135.2a.331.331,0,0,1,.322.341v.005a2.779,2.779,0,0,0,.116.836,3.013,3.013,0,0,0,.15.4,2.222,2.222,0,0,0,1.642,1.184,11.983,11.983,0,0,0,3.7-.277,12.09,12.09,0,0,1,3.931.095,8.033,8.033,0,0,0,1.811.32,5.857,5.857,0,0,0,.906-.132,4.077,4.077,0,0,0,.431-.123,2.094,2.094,0,0,0,.368-.167l.016-.01a.273.273,0,0,1,.168-.042,4.808,4.808,0,0,0,.6.007,3.716,3.716,0,0,0,.592-.076,1.086,1.086,0,0,0,.834-.533l0-.005a.246.246,0,0,1,.316-.142,7.4,7.4,0,0,0,1.141.332,2.5,2.5,0,0,0,.561.056.778.778,0,0,0,.231-.04.162.162,0,0,0,.1-.085.685.685,0,0,0-.082-.436,1.532,1.532,0,0,0-.311-.448,1.774,1.774,0,0,0-.451-.327l-.551-.279c-1.471-.74-2.936-1.492-4.415-2.214a.11.11,0,0,1-.05-.147.112.112,0,0,1,.1-.062,19.069,19.069,0,0,0,4.13-.408,5.233,5.233,0,0,0,.972-.321c.074-.038.154-.074.224-.112a.521.521,0,0,0,.154-.145.472.472,0,0,0,.051-.4.445.445,0,0,0-.28-.283c-.136-.038-.329-.066-.493-.092q-.513-.076-1.031-.124c-1.381-.129-2.772-.162-4.162-.167s-2.781.028-4.172.066h0a.277.277,0,0,1-.284-.269.281.281,0,0,1,.03-.133,12.981,12.981,0,0,1,.975-1.61c.091-.128.184-.254.281-.378l.144-.181a.952.952,0,0,0,.1-.148,1.091,1.091,0,0,0,.084-.717,2.7,2.7,0,0,0-.294-.776c-.033-.062-.072-.127-.107-.185a.238.238,0,0,0-.075-.075.243.243,0,0,0-.214-.02.259.259,0,0,0-.094.06.274.274,0,0,0-.034.046c-.012.017-.036.063-.053.093l-.232.4c-.158.267-.323.532-.5.791a8.911,8.911,0,0,1-.567.756,4.048,4.048,0,0,1-.7.663c-.5.375-1.013.712-1.528,1.049-1.031.668-2.067,1.323-3.121,1.952l-.006,0a.127.127,0,0,1-.135,0c-.97-.644-1.945-1.28-2.908-1.935a.031.031,0,0,1,.033-.053Z" transform="translate(-70.545 -90.728)" fill="#020202"/>
    <path id="Path_272" data-name="Path 272" d="M301.481,241.191a6.175,6.175,0,0,1-.66,1.689,5.052,5.052,0,0,1-1.165,1.421,3.151,3.151,0,0,1-1.7.725,3.217,3.217,0,0,1-1.778-.372,4.03,4.03,0,0,0,1.746.129,3.281,3.281,0,0,0,1.537-.725,5.99,5.99,0,0,0,1.156-1.306A11.041,11.041,0,0,0,301.481,241.191Zm8.944,5.547-5.252-2.7,5.388,2.415a.157.157,0,0,1-.129.287Zm-2.275.8-3.725-1.747,3.848,1.457a.157.157,0,0,1-.112.294Z" transform="translate(-104.251 -101.152)" fill="#020202"/>
    <path id="Path_273" data-name="Path 273" d="M212.455,141.813a17.632,17.632,0,0,1-.87,2.345,17.434,17.434,0,0,1-1.158,2.217,17.427,17.427,0,0,1,.87-2.345,17.646,17.646,0,0,1,1.158-2.217Zm-3.527-.421a6.757,6.757,0,0,1,.041,1.869,6,6,0,0,1-.172.925,2.468,2.468,0,0,1-.387.863,7.811,7.811,0,0,0,.146-.91l.1-.911A17.976,17.976,0,0,1,208.927,141.393ZM189.966,102.43c1.847,3.722,6.7,0,6.7,0s-3.269.065-3.883-2.006.129-4.272,1.165-3.689a3.976,3.976,0,0,1,1.715,2.039c.129.421,1.748,1.068,1.748.453a22.1,22.1,0,0,0-1.322-6.492,1.806,1.806,0,0,1,1.134-2.521l.059-.015c1.909-.485,3.849-1.193,3.85-1.193a6.093,6.093,0,0,0-1.973-1.363,10.47,10.47,0,0,0-8.058,0c-4.531,1.78-5.793,8.932-2.459,12.427a4.226,4.226,0,0,1,1.372,2.815m6.815.129a2.077,2.077,0,0,0,.359,1.362,2.6,2.6,0,0,0,1.2.7c.917.371,1.842.733,2.742,1.173a17.662,17.662,0,0,1-2.859-.881c-.233-.1-.457-.181-.694-.311a1.6,1.6,0,0,1-.591-.542,1.821,1.821,0,0,1-.158-1.5Zm2.977-8.479a1.848,1.848,0,0,1,.262-.968,1.787,1.787,0,0,1,.777-.728,1.437,1.437,0,0,1,1.092-.064,1.705,1.705,0,0,1,.465.236,2.152,2.152,0,0,1,.354.36c-.175-.013-.325-.056-.476-.076a2.923,2.923,0,0,0-.431-.033,1.516,1.516,0,0,0-.739.148,2.583,2.583,0,0,0-.652.46C200.239,94.064,200.033,94.289,199.8,94.533Zm4.728,7.412c-.241.166-.445.291-.638.441-.1.071-.191.149-.287.231s-.188.173-.308.265a.967.967,0,0,1,.405-.747,1.107,1.107,0,0,1,.393-.189A.8.8,0,0,1,204.529,101.946Zm-1.038-3.205a1.813,1.813,0,0,0-.165.6.738.738,0,0,0,.141.548.851.851,0,0,0,.493.244c.1.007.2.019.294.021l.3-.014h.015a.158.158,0,0,1,.014.316h-.02l-.329-.026c-.11-.015-.22-.043-.328-.065a1.039,1.039,0,0,1-.567-.381.856.856,0,0,1-.092-.653A1.85,1.85,0,0,1,203.491,98.74Zm-1.6-1.116a.27.27,0,0,1-.268-.244l-.165-1.694a.27.27,0,0,1,.537-.052l.165,1.694a.27.27,0,0,1-.242.295Zm-11.39,67.15c.384,1.593.738,3.19,1.047,4.795s.6,3.212.877,4.821.52,3.225.74,4.844.418,3.242.566,4.873q-.585-2.386-1.051-4.793c-.319-1.6-.6-3.212-.877-4.823s-.52-3.226-.74-4.845S190.644,166.405,190.5,164.774Zm7.067,42.059c.2.922.384,1.849.576,2.773l.534,2.78a.2.2,0,0,1-.023.135l0,0a2.854,2.854,0,0,1-.84.915,3.734,3.734,0,0,1-1.134.462,5.343,5.343,0,0,1-1.192.129,6.554,6.554,0,0,1-1.194-.1.256.256,0,0,1-.206-.2l0-.013c-.757-4.066-1.233-8.179-1.876-12.263-.16-1.021-.337-2.04-.516-3.058s-.36-2.036-.552-3.052c-.38-2.033-.775-4.063-1.137-6.1-.721-4.072-1.454-8.142-2.085-12.229s-1.252-8.175-1.757-12.283a.031.031,0,0,1,.062-.01c.857,4.049,1.586,8.12,2.322,12.189s1.354,8.158,1.992,12.244c.317,2.043.6,4.092.9,6.138.147,1.024.3,2.046.467,3.066s.323,2.042.5,3.06c.723,4.072,1.6,8.117,2.2,12.209l-.208-.217a6.084,6.084,0,0,0,1.085.109,4.849,4.849,0,0,0,1.084-.1,3.276,3.276,0,0,0,.986-.378,2.413,2.413,0,0,0,.731-.726l-.025.138-.4-2.8c-.12-.936-.252-1.871-.359-2.809a.031.031,0,0,1,.062-.01ZM168.24,165.144c-.735,4.071-1.53,8.129-2.333,12.186-.827,4.052-1.63,8.108-2.511,12.148l-2.681,12.113c-.434,2.021-.874,4.042-1.28,6.069l-.621,3.038-.6,3.043a.151.151,0,0,1-.123.119,6.485,6.485,0,0,1-1.175.073,5.325,5.325,0,0,1-1.172-.151,3.684,3.684,0,0,1-1.108-.477,2.834,2.834,0,0,1-.827-.914.186.186,0,0,1-.021-.129l0-.011q1.167-5.956,2.394-11.9l1.218-5.945,1.256-5.937c.824-3.961,1.71-7.909,2.569-11.862l1.328-5.922,1.365-5.914a.031.031,0,0,1,.062.013l-1.125,5.965-1.161,5.957c-.8,3.966-1.574,7.937-2.409,11.9l-1.233,5.942-1.271,5.934q-1.271,5.934-2.584,11.859l-.019-.14a2.433,2.433,0,0,0,.677.789,3.318,3.318,0,0,0,.977.449,4.86,4.86,0,0,0,1.093.167,6.2,6.2,0,0,0,1.111-.042l-.123.119.668-3.029.647-3.033c.44-2.02.845-4.048,1.256-6.074l2.391-12.173c.81-4.055,1.7-8.094,2.561-12.138.888-4.039,1.783-8.076,2.739-12.1a.031.031,0,0,1,.062.013Z" transform="translate(-11.018 -0.092)" fill="#020202"/>
    <path id="Path_274" data-name="Path 274" d="M153.49,308.112,140.964,357.3s-3.084.387-4-1.591l12.218-47.758" transform="translate(0 -144.868)" fill="#020202"/>
    <path id="Path_275" data-name="Path 275" d="M184.072,243.833l-.735.114c-.246.027-.493.042-.739.061-.494.045-.987.044-1.481.066-.988.023-1.976.031-2.962.011-1.974-.034-3.947-.081-5.917-.173l-5.91-.29c-1.97-.1-3.936-.238-5.9-.349l-5.91-.364a8.563,8.563,0,0,1-5.367-2.415,8.181,8.181,0,0,1-1.624-2.5,9.052,9.052,0,0,1-.7-2.893c-.211-1.96-.46-3.917-.689-5.876q-.718-5.873-1.379-11.75l-.66-5.877-.161-1.475a2.5,2.5,0,0,1,.417-1.619,2.471,2.471,0,0,1,1.345-.99,2.734,2.734,0,0,1,.413-.089l.375-.044c.251-.026.5-.046.756-.058a8.822,8.822,0,0,1,1.533.051,4.382,4.382,0,0,1,1.521.456,2.58,2.58,0,0,1,.666.512,2.23,2.23,0,0,1,.255.347,2.022,2.022,0,0,1,.181.369c.2.48.337.954.492,1.43.563,1.9,1.046,3.815,1.523,5.73.937,3.834,1.794,7.685,2.6,11.547a.031.031,0,0,1-.061.014c-1-3.817-1.987-7.634-3.013-11.439-.513-1.9-1.033-3.8-1.626-5.672-.157-.46-.309-.93-.491-1.359a1.5,1.5,0,0,0-.143-.294,1.6,1.6,0,0,0-.182-.247,1.95,1.95,0,0,0-.5-.381,5.439,5.439,0,0,0-2.718-.417c-.239.012-.479.032-.718.058l-.359.043a2.066,2.066,0,0,0-.309.068,1.811,1.811,0,0,0-.986.732,1.838,1.838,0,0,0-.3,1.19l.149,1.467.6,5.887q.6,5.886,1.133,11.778c.19,1.963.359,3.927.567,5.888a8.206,8.206,0,0,0,2.26,5.256,7.154,7.154,0,0,0,2.409,1.6,9.549,9.549,0,0,0,2.832.623c.964.053,1.968.046,2.949.086l2.958.106c1.97.1,3.94.189,5.908.318l5.9.359c1.968.113,3.934.243,5.9.325a44.263,44.263,0,0,0,5.9.016h0a.031.031,0,0,1,.008.062Z" transform="translate(-4.559 -78.971)" fill="#020202"/>
    <path id="Path_276" data-name="Path 276" d="M184.695,245.3c-3.322.651-20.981-.78-28.845-1.026s-8.252-7.327-8.252-7.327l-2.7-25.318a2.167,2.167,0,0,1,.941-2.026h0s2.439,25.013,3.215,27.052a11.385,11.385,0,0,0,1.979,3.825,5.629,5.629,0,0,0,3.887,1.813l5.391.3a48.435,48.435,0,0,0,7.7,1.156l16.162,1.37.5.033Zm70.356.158-6.019,49.254s-3.01.777-4.175-1.068l5.922-48.186m-5.058,5.775-.022,0a.135.135,0,0,1-.111-.155l1.035-6.182a.138.138,0,0,1,.155-.111.135.135,0,0,1,.111.155l-.063.384-.972,5.8A.135.135,0,0,1,245.721,251.234Zm-1.655,35.752a.135.135,0,0,1-.135-.135.155.155,0,0,1,.01-.052l.127-.785a.138.138,0,0,1,.007-.026l.931-5.6a.138.138,0,0,1,.155-.111.135.135,0,0,1,.111.155l-.934,5.623a.135.135,0,0,1-.01.033l-.126.776a.148.148,0,0,1-.136.123Z" transform="translate(-5.188 -80.47)" fill="#020202"/>
    <path id="Path_277" data-name="Path 277" d="M426.733,328.093a.143.143,0,0,1-.134-.144v0l2.818-16.926a.135.135,0,1,1,.266.044l-2.816,16.9a.126.126,0,0,1-.134.125Zm-9.064,28.414-.023,0a.135.135,0,0,1-.111-.155l.585-3.5a.136.136,0,0,1,.155-.111.135.135,0,0,1,.111.155l-.585,3.5a.135.135,0,0,1-.133.113Zm40.929,3.117a6.082,6.082,0,0,1-.948-.069.157.157,0,0,1-.128-.123l-10.143-48.573a.157.157,0,1,1,.308-.064l10.121,48.464c.528.065,2.91.263,3.773-1.3L451.635,310.5a.157.157,0,0,1,.308-.065l9.957,47.517a.157.157,0,0,1-.015.1A3.531,3.531,0,0,1,458.6,359.623Z" transform="translate(-183.715 -146.41)" fill="#020202"/>
    <path id="Path_278" data-name="Path 278" d="M515.971,308.757l12.245,48.086s3.084.387,4-1.591l-12.013-47.039" transform="translate(-248.17 -145.037)" fill="#020202"/>
    <path id="Path_279" data-name="Path 279" d="M479.595,210.747l-2.7,25.32s-.39,7.078-8.252,7.323-25.525,1.677-28.845,1.025l1.488-1.168c7.108-.228,19.859-.748,25.8-1.654l2.266-.089a6.028,6.028,0,0,0,2.534-.592,5.566,5.566,0,0,0,2.024-1.66,9.311,9.311,0,0,0,1.234-2.3c.159-.407.318-.8.457-1.217.053-.215.119-.433.162-.648l.116-.638c.288-1.707.513-3.417.728-5.13q.61-5.14,1.121-10.287c.337-3.433.658-6.87.926-10.306L477.471,219c-.39,3.423-.764,6.853-1.2,10.273-.205,1.71-.42,3.423-.7,5.117l-.109.635c-.04.208-.1.4-.149.605-.129.407-.291.81-.443,1.211A9.686,9.686,0,0,1,473.7,239.1a5.305,5.305,0,0,1-1.912,1.624,5.853,5.853,0,0,1-2.451.619l-1.313.093a5.072,5.072,0,0,0,2.186-.708c1.082-1.141,3.149-4.654-.757-19.66l.228-.182s1.968-8.7,3.132-11.226c.7-1.531,3.126-1.525,4.918-1.287A2.166,2.166,0,0,1,479.595,210.747Z" transform="translate(-198.291 -79.587)" fill="#020202"/>
    <path id="Path_280" data-name="Path 280" d="M514.274,304.367c-.291.056-.605.106-.943.159l-2.9.116Z" transform="translate(-244.54 -142.519)" fill="#fff"/>
    <path id="Path_281" data-name="Path 281" d="M436.2,174.488a11.958,11.958,0,0,0-.423,2.114h-4.078c-.291-4.892,3.2-6.466,3.2-6.466l2.041,2.329a12.291,12.291,0,0,0-.741,2.024Z" transform="translate(-192.976 -54.626)" fill="#020202"/>
    <path id="Path_282" data-name="Path 282" d="M470.818,184.181c-7.571,7.085-15.046,5.338-15.046,5.338.486-1.455-.972-2.815-.972-2.815a13.3,13.3,0,0,1-6.116-4.419l5.147-8.1a12.655,12.655,0,0,0,1.3-1.707,12.354,12.354,0,0,0,1.025-1.885,12.428,12.428,0,0,0-1.3,1.7,12.225,12.225,0,0,0-1.025,1.889c-2.428-12.331-10.29-5.573-10.29-5.573a14.087,14.087,0,0,0,1.164-4.138,8.862,8.862,0,0,1,4.27-6.311C459.751,155.054,470.818,184.181,470.818,184.181Z" transform="translate(-200.744 -46.633)" fill="#020202"/>
    <path id="Path_283" data-name="Path 283" d="M385.512,245.555a32.3,32.3,0,0,0-4.1,1.068,4.418,4.418,0,0,0-1.777,1.008,6.52,6.52,0,0,0-1.233,1.658,4.663,4.663,0,0,0-.336.963,5.763,5.763,0,0,0-.121,1.02,10.251,10.251,0,0,0,.172,2.073,31.544,31.544,0,0,0,1.066,4.08c.872,2.686,1.917,5.321,2.977,7.948s2.156,5.241,3.234,7.864l-.016-.031a5.134,5.134,0,0,0,.683.829,4.792,4.792,0,0,0,.846.669,3.456,3.456,0,0,0,.981.414,3.2,3.2,0,0,0,1.058.072h.012a.185.185,0,0,1,.075.011,19.026,19.026,0,0,0,2.864.811,15.175,15.175,0,0,0,2.963.325,10.017,10.017,0,0,0,2.94-.379,7.227,7.227,0,0,0,1.367-.567,6.18,6.18,0,0,0,1.191-.872l-.026.1c-.74-2.433-1.482-4.867-2.3-7.277-.4-1.206-.816-2.408-1.253-3.6q-.324-.9-.678-1.777c-.125-.289-.234-.589-.373-.868l-.2-.423-.227-.383-.009-.015a.206.206,0,0,1,.17-.311q7.3-.265,14.6-.623,3.648-.187,7.291-.438c2.428-.162,4.855-.346,7.265-.628a31.1,31.1,0,0,0,3.564-.584,4.864,4.864,0,0,0,.806-.266.65.65,0,0,0,.155-.083.477.477,0,0,0,.123-.1,2.817,2.817,0,0,0,.265-.326,5.376,5.376,0,0,0,.729-1.554,13.86,13.86,0,0,0,.439-3.54,32.056,32.056,0,0,0-.2-3.618,66.706,66.706,0,0,0-1.2-7.185c-.263-1.187-.529-2.376-.82-3.558l-.911-3.539a.031.031,0,0,1,.022-.039.032.032,0,0,1,.039.021,86.937,86.937,0,0,1,3.342,14.246,32.592,32.592,0,0,1,.258,3.673,14.391,14.391,0,0,1-.408,3.7,5.96,5.96,0,0,1-.794,1.749,3.411,3.411,0,0,1-.306.387,1.408,1.408,0,0,1-.463.332,5.077,5.077,0,0,1-.923.314,31.594,31.594,0,0,1-3.644.611c-4.86.569-9.732.826-14.6,1.041-2.436.1-4.872.2-7.309.264s-4.875.1-7.312.156l.161-.326.253.442.2.443c.139.294.243.595.364.892q.342.9.651,1.8c.416,1.205.806,2.417,1.187,3.632.756,2.431,1.511,4.861,2.226,7.3v0a.1.1,0,0,1-.027.1,7.1,7.1,0,0,1-1.23.9,7.423,7.423,0,0,1-1.4.6,10.238,10.238,0,0,1-3,.416,17.517,17.517,0,0,1-3.016-.281,19.312,19.312,0,0,1-2.939-.759l.086.01a3.575,3.575,0,0,1-1.188-.053,3.849,3.849,0,0,1-1.1-.435,5.215,5.215,0,0,1-.94-.709,5.533,5.533,0,0,1-.771-.9.142.142,0,0,1-.012-.021l0-.01c-1.158-2.591-2.254-5.208-3.331-7.836-1.058-2.635-2.069-5.292-2.929-8.008a28.359,28.359,0,0,1-1.027-4.16,10.657,10.657,0,0,1-.13-2.162,6.156,6.156,0,0,1,.154-1.086,5.025,5.025,0,0,1,.386-1.033,6.834,6.834,0,0,1,1.329-1.714,2.958,2.958,0,0,1,.911-.624,8.872,8.872,0,0,1,1.006-.389,29.02,29.02,0,0,1,4.164-.915.031.031,0,0,1,.011.062Z" transform="translate(-157.529 -96.365)" fill="#020202"/>
    <path id="Path_284" data-name="Path 284" d="M435.954,254.217c1.383-.228,2.772-.394,4.163-.538s2.786-.26,4.18-.364l2.094-.131c.181-.011.335-.012.493-.035a2.809,2.809,0,0,0,.466-.1,3.164,3.164,0,0,0,.862-.42,3.089,3.089,0,0,0,.7-.677l.617-.845c.419-.561.836-1.123,1.278-1.669-.324.623-.673,1.23-1.019,1.838l-.534.907a3.327,3.327,0,0,1-.741.837,3.525,3.525,0,0,1-2.085.761l-2.088.163c-1.393.092-2.786.176-4.183.224S437.359,254.248,435.954,254.217Z" transform="translate(-195.776 -106.552)" fill="#020202"/>
    <path id="Path_285" data-name="Path 285" d="M420.1,249.931l.273,1.9a3.233,3.233,0,0,1-.248,1.938,3.155,3.155,0,0,1-1.364,1.437,3.089,3.089,0,0,1-.954.334c-.336.06-.639.086-.96.132-2.531.343-5.062.679-7.577,1.116-1.257.221-2.515.434-3.768.671s-2.5.5-3.748.766-2.485.575-3.713.916a36.269,36.269,0,0,0-3.632,1.191A20.146,20.146,0,0,0,390.978,262a7.3,7.3,0,0,0-2.665,2.613,3.785,3.785,0,0,0-.3.873,3.341,3.341,0,0,0-.036.913c.1.625.18,1.257.306,1.878a33.372,33.372,0,0,0,1,3.675,67.635,67.635,0,0,0,6.59,13.731l.006.009.012.021q1.255,2.548,2.447,5.119,1.176,2.581,2.285,5.193t2.072,5.285c.312.894.62,1.79.87,2.7a16.589,16.589,0,0,1,.579,2.781.031.031,0,0,1-.062.009v0a16.476,16.476,0,0,0-.716-2.726c-.3-.893-.646-1.769-.982-2.649-.7-1.752-1.467-3.473-2.228-5.2s-1.576-3.427-2.389-5.13-1.624-3.4-2.464-5.093l.017.03c-.689-1.1-1.334-2.2-1.939-3.335s-1.188-2.277-1.738-3.437a52.476,52.476,0,0,1-2.811-7.172,33.316,33.316,0,0,1-.9-3.752c-.109-.634-.174-1.275-.256-1.915a3.623,3.623,0,0,1,.067-.995,4.042,4.042,0,0,1,.345-.929,7.57,7.57,0,0,1,2.775-2.671,23.65,23.65,0,0,1,3.448-1.712,70.071,70.071,0,0,1,14.858-3.871q1.9-.3,3.8-.546t3.816-.436c.313-.034.649-.054.944-.1a2.727,2.727,0,0,0,.856-.269,2.976,2.976,0,0,0,.736-.524,3.251,3.251,0,0,0,.542-.73,3,3,0,0,0,.318-1.795l-.159-1.912a.031.031,0,0,1,.063-.007Z" transform="translate(-164.166 -106.857)" fill="#020202"/>
    <path id="Path_286" data-name="Path 286" d="M425.374,258.875a8.024,8.024,0,0,1-.873,1.442,7.939,7.939,0,0,1-1.125,1.255,7.936,7.936,0,0,1,.873-1.442,8.032,8.032,0,0,1,1.125-1.255Zm-13.117,54.013c-1.376,0-4.652-2.277-5.062-2.566a.134.134,0,0,1-.052-.147c.164-.682-3.813-12.242-6.527-19.846a.135.135,0,0,1,.254-.091c.678,1.9,6.48,18.2,6.54,19.905,1.683,1.179,4.5,2.846,5.1,2.419a.142.142,0,0,1,.094-.025c.055.006,5.411.57,5.791-2.34l-3.407-18.865a.135.135,0,1,1,.266-.048l3.41,18.886a.141.141,0,0,1,0,.04c-.376,3.077-5.459,2.658-6.044,2.6A.744.744,0,0,1,412.257,312.888Z" transform="translate(-172.632 -112.731)" fill="#020202"/>
    <path id="Path_287" data-name="Path 287" d="M413.41,215.864c.069.017.061.034.088.047l.058.044.114.089c.075.061.149.122.221.186q.218.19.424.393c.273.272.533.558.78.854a15.072,15.072,0,0,1,1.333,1.893,4.938,4.938,0,0,1,.721,2.244,3.783,3.783,0,0,1-.637,2.316l.049-.139c.026,1.553.024,3.107.037,4.66a.257.257,0,0,1-.246.259h0l-1.407.057a.266.266,0,0,1-.277-.255V228.5l-.012-1.942c-.007-.647,0-1.294,0-1.942l.492.17c-.766.951-1.548,1.879-2.361,2.786s-1.658,1.783-2.535,2.628c-.223.208-.439.422-.668.624a7.72,7.72,0,0,1-.71.6,5.216,5.216,0,0,1-1.693.776,9.284,9.284,0,0,1-3.658.164,11.569,11.569,0,0,1-1.79-.4,6.772,6.772,0,0,1-1.69-.732,2.4,2.4,0,0,1-.373-.294,1.329,1.329,0,0,1-.161-.188.63.63,0,0,1-.1-.255.814.814,0,0,1,.11-.5,2.157,2.157,0,0,1,.276-.393,8.549,8.549,0,0,1,1.412-1.186c1-.7,2.059-1.3,3.107-1.913.261-.152.524-.3.778-.461a2.636,2.636,0,0,0,.666-.521,2.344,2.344,0,0,0,.544-1.52l.344.2a5.787,5.787,0,0,1-.831.323l-.42.125-.422.094c-.281.067-.563.12-.846.163s-.565.095-.848.128c-1.132.154-2.267.24-3.4.293s-2.273.077-3.412.06c-.57-.012-1.14-.029-1.715-.074-.287-.024-.576-.05-.877-.1-.038-.007-.073-.01-.113-.019l-.134-.04a1.092,1.092,0,0,1-.261-.1,1.077,1.077,0,0,1-.417-.427,1.427,1.427,0,0,1-.071-1.073,1.909,1.909,0,0,1,.516-.876.918.918,0,0,1,.581-.275c.093-.012.095-.005.172-.02s.123-.02.19-.037c.261-.057.53-.137.8-.214a33.022,33.022,0,0,0,3.159-1.133c.256-.109.51-.222.752-.344l.18-.093.136-.1a2.254,2.254,0,0,0,.268-.245,7.4,7.4,0,0,0,.907-1.34,24.391,24.391,0,0,0,1.378-3.049l0-.006a.266.266,0,0,1,.343-.154.275.275,0,0,1,.063.034,24.88,24.88,0,0,0,2.632,1.7,10.1,10.1,0,0,0,1.4.665,3.914,3.914,0,0,0,.726.2,1.2,1.2,0,0,0,.669-.051l.008,0a.18.18,0,0,1,.094-.015,9.194,9.194,0,0,0,1.615.024,7.36,7.36,0,0,0,1.594-.276,4.032,4.032,0,0,0,1.426-.733,3.1,3.1,0,0,0,.543-.595,4.276,4.276,0,0,0,.376-.75Zm.02.06a2.543,2.543,0,0,1-.309.746,3.221,3.221,0,0,1-.535.647,4.215,4.215,0,0,1-1.451.838,7.059,7.059,0,0,1-1.637.361,9.487,9.487,0,0,1-1.681.031l.1-.019a1.537,1.537,0,0,1-.885.116,4.286,4.286,0,0,1-.809-.192,10.505,10.505,0,0,1-1.486-.643c-.478-.245-.938-.516-1.392-.8s-.9-.574-1.338-.887l.408-.125a24.925,24.925,0,0,1-1.35,3.159,7.427,7.427,0,0,1-.969,1.478,2.85,2.85,0,0,1-.355.327l-.211.146-.2.1c-.262.134-.525.252-.789.366a33.628,33.628,0,0,1-3.221,1.172c-.277.081-.55.164-.841.23-.07.018-.151.03-.226.046s-.2.021-.249.029a.325.325,0,0,0-.16.1,1.131,1.131,0,0,0-.306,1.149.555.555,0,0,1,.028.052l.041.042c.02.034.064.051.1.077s.09.028.133.046l.069.023c.028.007.064.011.1.017.256.049.53.078.806.1.552.049,1.113.073,1.674.091,1.123.03,2.249.019,3.373-.021s2.248-.113,3.361-.238c.28-.026.556-.066.832-.108s.552-.082.823-.141l.408-.082.4-.109a5.408,5.408,0,0,0,.755-.273l.041-.016a.224.224,0,0,1,.288.131.228.228,0,0,1,.014.085,2.769,2.769,0,0,1-.707,1.813,3.031,3.031,0,0,1-.775.575c-.267.153-.534.3-.8.442-1.066.578-2.13,1.153-3.136,1.815a7.385,7.385,0,0,0-1.388,1.121,1.05,1.05,0,0,0-.34.714.554.554,0,0,0,.194.323,2.195,2.195,0,0,0,.337.271,8.478,8.478,0,0,0,3.392,1.094,8.751,8.751,0,0,0,3.556-.214,4.917,4.917,0,0,0,1.571-.783,7.419,7.419,0,0,0,.659-.6c.219-.206.427-.426.64-.639.842-.865,1.645-1.767,2.43-2.686s1.565-1.844,2.308-2.792a.276.276,0,0,1,.387-.047.279.279,0,0,1,.106.217c0,.647.012,1.294,0,1.942L415.2,228.5l-.277-.268,1.408-.04-.25.259c.013-1.553.012-3.107.037-4.66a.232.232,0,0,1,.047-.137l0,0a3.028,3.028,0,0,0,.462-.95,3.7,3.7,0,0,0,.148-1.075,4.6,4.6,0,0,0-.612-2.108,15.07,15.07,0,0,0-1.221-1.923c-.23-.3-.472-.6-.728-.879q-.19-.213-.394-.414c-.067-.067-.137-.133-.207-.2l-.106-.1-.054-.047c-.011-.016-.056-.029-.026-.041Zm-12.817-52.058a20.809,20.809,0,0,1,.439-3.2,12.173,12.173,0,0,1,.446-1.563,6.544,6.544,0,0,1,.736-1.473.157.157,0,0,1,.258.18l0,.006,0,0a6.286,6.286,0,0,0-.768,1.37,11.979,11.979,0,0,0-.513,1.514A20.72,20.72,0,0,0,400.612,163.865Zm5.657-23.442c-.749,1.223-1.521,2.429-2.281,3.644l-2.321,3.618a.217.217,0,0,1-.4-.126v-.007c.093-2.156.221-4.31.33-6.465l.043-.808.021-.4a2.314,2.314,0,0,1,.062-.451,2.689,2.689,0,0,1,.364-.806l.4-.7c.527-.936,1.04-1.881,1.494-2.847a4.074,4.074,0,0,1,1.009-1.371,4.97,4.97,0,0,1,.678-.508c.12-.074.242-.145.368-.209.151-.074.189-.09.244-.166a.276.276,0,0,0,.046-.222c-.028-.073-.016-.069-.1-.082a5.728,5.728,0,0,0-.753.133l-1.575.368c-.264.06-.528.12-.8.169a1.957,1.957,0,0,1-.444.042,2.292,2.292,0,0,0-.379,0c-.535.038-1.078.084-1.623.083a3.947,3.947,0,0,1-1.634-.259,1.348,1.348,0,0,1-.188-.117,1.822,1.822,0,0,1-.16-.159c-.084-.108-.166-.217-.244-.33a3.92,3.92,0,0,1-.219-.352,1.955,1.955,0,0,1-.093-.192.6.6,0,0,1-.057-.242.081.081,0,0,1,.065-.08l.014,0a3.389,3.389,0,0,0,.707-.224,1.151,1.151,0,0,0,.543-.426.556.556,0,0,0-.1-.6,2.516,2.516,0,0,0-.525-.509.114.114,0,0,1-.043-.108l.165-1,.039-.251a1.23,1.23,0,0,0,.014-.23,1.055,1.055,0,0,0-.115-.435.935.935,0,0,0-.287-.334c-.122-.083-.279-.157-.43-.245a1.6,1.6,0,0,1-.442-.345.67.67,0,0,1-.128-.618,2.306,2.306,0,0,1,.252-.493,4.013,4.013,0,0,1,.31-.429,8.894,8.894,0,0,1,.714-.751c.237-.236.452-.472.385-.684a4.683,4.683,0,0,0-.386-.875,6.277,6.277,0,0,1-.73-1.975,3.337,3.337,0,0,1-.02-.554c.007-.157,0-.32,0-.485-.014-.331-.04-.673-.05-1.02a5.429,5.429,0,0,1,.288-2.109,4.451,4.451,0,0,1,1.241-1.765l0,0a.286.286,0,0,1,.126-.063,8.232,8.232,0,0,1,1.855-.182,4.766,4.766,0,0,1,1.87.379,3.774,3.774,0,0,1,.81.534c.233.187.469.373.7.577a4.111,4.111,0,0,1,1.143,1.535,12.536,12.536,0,0,1,.584,1.747,8.329,8.329,0,0,1,.289,1.834c.019.619.006,1.195.057,1.777s.135,1.166.229,1.746a5.723,5.723,0,0,0,.178.816.52.52,0,0,0,.022.052s0,0,0,0a.077.077,0,0,0-.02-.021.2.2,0,0,0-.074-.044.258.258,0,0,0-.157-.008.232.232,0,0,0-.065.028.155.155,0,0,0-.029.02.3.3,0,0,0-.027.028c-.01.018,0,0,0,0,.007-.015.016-.039.026-.066a3.369,3.369,0,0,0,.093-.4c.109-.57.147-1.159.287-1.782a1.752,1.752,0,0,1,.477-.924,1.066,1.066,0,0,1,.237-.166l.13-.06.107-.04c.143-.053.29-.1.442-.148a2.726,2.726,0,0,1,.976-.122,1.381,1.381,0,0,1,.939.471,2.054,2.054,0,0,1,.419.9,3.892,3.892,0,0,1,.085.941,5.565,5.565,0,0,1-.361,1.811,4.363,4.363,0,0,1-.974,1.565,2.616,2.616,0,0,1-1.659.784l.083-.062c-.175.4-.36.8-.561,1.192-.1.195-.2.389-.321.577a1.819,1.819,0,0,1-.422.519.031.031,0,0,1-.038-.049l.005,0a1.792,1.792,0,0,0,.372-.514c.1-.19.2-.387.288-.585.179-.4.343-.8.5-1.208a.1.1,0,0,1,.078-.061h.005a2.38,2.38,0,0,0,1.469-.788,4.049,4.049,0,0,0,.851-1.484,5.19,5.19,0,0,0,.277-1.694,3.469,3.469,0,0,0-.1-.834,1.631,1.631,0,0,0-.342-.694.89.89,0,0,0-.626-.295,2.247,2.247,0,0,0-.787.121c-.134.042-.267.091-.4.145l-.1.041-.072.037a.539.539,0,0,0-.126.093,1.248,1.248,0,0,0-.3.657c-.112.546-.142,1.154-.243,1.759a3.889,3.889,0,0,1-.1.476,1.26,1.26,0,0,1-.053.143.6.6,0,0,1-.059.1.351.351,0,0,1-.064.069.5.5,0,0,1-.05.038.385.385,0,0,1-.091.038.349.349,0,0,1-.212-.009.422.422,0,0,1-.121-.075.672.672,0,0,1-.057-.062l-.032-.048a.95.95,0,0,1-.073-.15,6.028,6.028,0,0,1-.228-.926c-.1-.6-.195-1.19-.246-1.8s-.046-1.227-.067-1.8A7.675,7.675,0,0,0,406,119.8a11.979,11.979,0,0,0-.556-1.643,3.547,3.547,0,0,0-.979-1.309c-.214-.19-.444-.377-.674-.566a3.094,3.094,0,0,0-.672-.46,5.735,5.735,0,0,0-3.316-.194l.129-.066a3.86,3.86,0,0,0-1.1,1.517,5.045,5.045,0,0,0-.287,1.895c0,.332.02.667.028,1.014,0,.174,0,.351-.01.532a2.794,2.794,0,0,0,.007.462,6.162,6.162,0,0,0,.637,1.839,4.764,4.764,0,0,1,.392,1,.732.732,0,0,1-.015.339.876.876,0,0,1-.141.287,2.773,2.773,0,0,1-.372.4,8.58,8.58,0,0,0-.712.7,3.561,3.561,0,0,0-.3.387,2.147,2.147,0,0,0-.225.4.35.35,0,0,0,.061.338,1.336,1.336,0,0,0,.351.284c.139.087.29.16.446.272a1.205,1.205,0,0,1,.359.44,1.312,1.312,0,0,1,.128.545,1.475,1.475,0,0,1-.024.277l-.046.25-.175,1-.043-.108a2.722,2.722,0,0,1,.566.563,1,1,0,0,1,.174.389.65.65,0,0,1-.071.441,1.337,1.337,0,0,1-.644.508,3.573,3.573,0,0,1-.756.231l.079-.083a.67.67,0,0,0,.043.147,1.738,1.738,0,0,0,.082.173,3.386,3.386,0,0,0,.212.332c.076.108.158.213.241.317a1.758,1.758,0,0,0,.128.124,1.172,1.172,0,0,0,.156.093,3.782,3.782,0,0,0,1.541.215c.534-.006,1.067-.059,1.607-.1a2.9,2.9,0,0,1,.429-.013,2.1,2.1,0,0,0,.358-.053c.259-.056.519-.125.779-.193l1.564-.423a5.449,5.449,0,0,1,.835-.171.5.5,0,0,1,.308.089.5.5,0,0,1,.182.273.682.682,0,0,1-.086.552.725.725,0,0,1-.192.2,2.262,2.262,0,0,1-.2.113c-.113.062-.222.131-.329.2a4.52,4.52,0,0,0-.6.481,3.6,3.6,0,0,0-.854,1.247c-.453.992-.96,1.95-1.482,2.9l-.4.709a2.425,2.425,0,0,0-.3.66,1.742,1.742,0,0,0-.051.349l-.027.4-.053.808c-.146,2.153-.273,4.307-.436,6.459l-.4-.133,2.437-3.541c.826-1.171,1.639-2.351,2.476-3.515a.031.031,0,0,1,.052.035Z" transform="translate(-167.526 -18.431)" fill="#020202"/>
    <path id="Path_288" data-name="Path 288" d="M397.39,130.993a1.61,1.61,0,0,1,.919-.861,2.071,2.071,0,0,1,1.315-.044,2.974,2.974,0,0,1,1.118.6,5.4,5.4,0,0,1,.433.443,4.543,4.543,0,0,1,.342.513,5.144,5.144,0,0,1-.539-.276c-.171-.1-.349-.174-.511-.27a5.642,5.642,0,0,0-1.008-.407,2.467,2.467,0,0,0-1.018-.088A2.681,2.681,0,0,0,397.39,130.993Zm2.265,3.453a.27.27,0,0,1-.267-.232l-.283-2.023a.27.27,0,1,1,.534-.075l.283,2.023a.27.27,0,0,1-.267.307Zm-2.265,5.225a8.786,8.786,0,0,0-1.092-.483,3.208,3.208,0,0,0-.563-.15.914.914,0,0,0-.514.026c-.028.022-.052.037-.082.059s-.064.063-.089.1a.694.694,0,0,0-.12.21.822.822,0,0,0,.023.488,7.348,7.348,0,0,0,.482,1.061.213.213,0,0,1-.093.286h0l-.016.008c-.394.2-.815.539-.847.883a.727.727,0,0,0,.187.511c.07.081.151.159.231.237l.274.215.005,0a.28.28,0,0,1,.1.255,10.24,10.24,0,0,0-.077,2.2,1.589,1.589,0,0,0,.12.479c.065.162.145.326.229.49.167.329.359.652.554.973s.393.635.6.966a2,2,0,0,1,.289,1.22,2.4,2.4,0,0,1-.141.6l-.179.542-.358,1.085c-.941,2.9-1.729,5.838-2.514,8.781q-.6,2.2-1.228,4.4l-.628,2.2a15.3,15.3,0,0,0-.518,2.174,10.023,10.023,0,0,0,.221,4.374,6.455,6.455,0,0,0,2.534,3.481l-.03-.016a5.953,5.953,0,0,0,1.019.332,5.647,5.647,0,0,0,1.069.144,3.719,3.719,0,0,0,1.067-.125,2.93,2.93,0,0,0,.954-.507h0a.031.031,0,0,1,.042.047,2.825,2.825,0,0,1-.943.621,3.931,3.931,0,0,1-1.118.227,5.243,5.243,0,0,1-1.138-.076,6.275,6.275,0,0,1-1.111-.29.129.129,0,0,1-.026-.013l0,0a6.729,6.729,0,0,1-1.762-1.556l-.188-.231c-.059-.079-.107-.166-.161-.249-.1-.169-.214-.335-.311-.507a8.023,8.023,0,0,1-.465-1.092,8.145,8.145,0,0,1-.434-2.318,11.075,11.075,0,0,1,.122-2.342,11.668,11.668,0,0,1,.233-1.15c.1-.388.222-.74.333-1.106l.674-2.182q.67-2.183,1.377-4.354c.952-2.893,1.9-5.787,2.7-8.726l.294-1.1.146-.552a2.027,2.027,0,0,0,.093-.519,1.581,1.581,0,0,0-.284-.951c-.217-.3-.448-.617-.663-.933s-.419-.648-.608-.992a5.077,5.077,0,0,1-.26-.541,2.188,2.188,0,0,1-.16-.623,9.982,9.982,0,0,1,.1-2.348l.11.259-.318-.258a3.938,3.938,0,0,1-.287-.316,1.227,1.227,0,0,1-.266-.891,1.319,1.319,0,0,1,.461-.781,2.671,2.671,0,0,1,.707-.439l-.111.295a6.863,6.863,0,0,1-.451-1.158,1.164,1.164,0,0,1,.026-.7,1.02,1.02,0,0,1,.2-.3,1.656,1.656,0,0,1,.122-.117,1.248,1.248,0,0,1,.172-.1,1.151,1.151,0,0,1,.674.009,3.417,3.417,0,0,1,.584.211,6.716,6.716,0,0,1,1.057.6.032.032,0,0,1,.008.044A.033.033,0,0,1,397.389,139.67Zm2.67,17.812a19.92,19.92,0,0,1,.142,2.229c.016.741,0,1.481-.032,2.221s-.087,1.477-.171,2.214a19.726,19.726,0,0,1-.347,2.206,19.7,19.7,0,0,1-.143-2.229c-.016-.741,0-1.481.033-2.22s.088-1.477.172-2.214A19.944,19.944,0,0,1,400.06,157.483Z" transform="translate(-166.099 -28.348)" fill="#020202"/>
    <path id="Path_289" data-name="Path 289" d="M417.335,171.023c-.395,1.318-.8,2.634-1.224,3.94s-.84,2.618-1.289,3.917l-1.328,3.9c-.451,1.3-.926,2.588-1.413,3.874l0,.013a.166.166,0,0,1-.017.032,9.87,9.87,0,0,1-.831,1.076,3.4,3.4,0,0,1-1.089.873.936.936,0,0,1-.392.072.618.618,0,0,1-.387-.166.91.91,0,0,1-.132-.148l-.095-.133c-.063-.089-.129-.176-.2-.261a3.7,3.7,0,0,0-.919-.875l.043.009a3.188,3.188,0,0,0-2.038.878,3.969,3.969,0,0,0-1.047,1.99,9.937,9.937,0,0,0,.3,4.565,14.152,14.152,0,0,0,.765,2.169,6.952,6.952,0,0,0,1.214,1.888,3.048,3.048,0,0,0,1.829,1.02,3.134,3.134,0,0,0,1.052-.068,4.077,4.077,0,0,0,.516-.166l.254-.1.247-.125a13.667,13.667,0,0,0,3.475-2.921,41.151,41.151,0,0,0,2.878-3.645,88.827,88.827,0,0,0,4.914-7.953.031.031,0,0,1,.043-.013.032.032,0,0,1,.014.041c-.635,1.431-1.34,2.83-2.093,4.2s-1.553,2.722-2.421,4.034c-.435.654-.883,1.3-1.351,1.934s-.971,1.242-1.491,1.839a17.577,17.577,0,0,1-1.684,1.687,9.552,9.552,0,0,1-1.989,1.376l-.278.135-.291.112a4.713,4.713,0,0,1-.6.181,3.752,3.752,0,0,1-1.275.058,3.64,3.64,0,0,1-2.167-1.239,5.716,5.716,0,0,1-.717-.992,8.564,8.564,0,0,1-.538-1.079,12.664,12.664,0,0,1-.707-2.275,10.645,10.645,0,0,1-.122-4.715,4.179,4.179,0,0,1,1.135-2.079,3.52,3.52,0,0,1,2.173-.95h0a.076.076,0,0,1,.041.009,3.848,3.848,0,0,1,1.029.908c.073.085.146.172.215.26l.1.133a.625.625,0,0,0,.093.095.413.413,0,0,0,.467.018,3.112,3.112,0,0,0,.922-.83,9.5,9.5,0,0,0,.742-1.061l-.021.044c.419-1.309.85-2.615,1.305-3.912l1.39-3.882c.458-1.3.947-2.581,1.43-3.868s.983-2.568,1.494-3.846a.032.032,0,0,1,.059.021Zm-10.248-7.229a3.339,3.339,0,0,1,.023.768,1.616,1.616,0,0,1-.082.389.467.467,0,0,1-.312.312l.012-.168a7.818,7.818,0,0,1,1.014.419,3.071,3.071,0,0,1,.915.657.738.738,0,0,1-.085,1.153,1.888,1.888,0,0,1-.241.174.8.8,0,0,1-.336.072,2.523,2.523,0,0,1-.573-.059l.174-.2a1.672,1.672,0,0,1,.077.554,1.045,1.045,0,0,1-.164.557.8.8,0,0,1-.481.333,1.623,1.623,0,0,1-.544.047c-.342-.028-.679-.052-1.017-.092s-.676-.07-1.014-.117c.341-.011.681-.009,1.021-.012s.681.01,1.017.01a.888.888,0,0,0,.789-.319,1.106,1.106,0,0,0,.029-.861v0a.153.153,0,0,1,.1-.191.156.156,0,0,1,.072,0,2.231,2.231,0,0,0,.5.046.657.657,0,0,0,.19-.032,1.954,1.954,0,0,0,.2-.14.525.525,0,0,0,.218-.342.563.563,0,0,0-.157-.383,3.121,3.121,0,0,0-.808-.628,7.621,7.621,0,0,0-.953-.474l-.009,0a.086.086,0,0,1,.021-.164.335.335,0,0,0,.216-.2,1.5,1.5,0,0,0,.114-.346A4.406,4.406,0,0,0,407.087,163.794Zm-3.387-2.18,1.437.666-1.54-.369a.158.158,0,1,1,.074-.308.171.171,0,0,1,.03.01Z" transform="translate(-174.51 -49.037)" fill="#020202"/>
    <path id="Path_290" data-name="Path 290" d="M293.846,126.888a7.86,7.86,0,0,0,1.5.854,5.014,5.014,0,0,0,1.686.424,5.093,5.093,0,0,1-1.742-.276,8.073,8.073,0,0,1-1.625-.743.158.158,0,1,1,.163-.27l.011.008Zm-.122,2.435,4.061,1.028-4.126-.72a.157.157,0,1,1,.054-.31Zm9.82-3.406c.057-.127.117-.251.18-.371l.1-.179a.31.31,0,0,1,.085-.118.137.137,0,0,1,.047-.019.115.115,0,0,1,.081.018.139.139,0,0,1,.052.071.3.3,0,0,1,.016.081l-.047-.087a10.684,10.684,0,0,1,1.472.964,8.107,8.107,0,0,1,.669.577,3.644,3.644,0,0,1,.569.681c-.468-.359-.947-.676-1.419-1.015s-.945-.675-1.4-1.034l-.026-.02a.063.063,0,0,1-.021-.067c0-.006,0-.022,0-.021a.093.093,0,0,0,.026.028.078.078,0,0,0,.057.011.061.061,0,0,0,.024-.009c.007-.012-.022.02-.039.043l-.137.159C303.737,125.717,303.642,125.819,303.544,125.917Zm-6.516-17a5.992,5.992,0,0,1,.77-1.261,6.941,6.941,0,0,1,1.031-1.075,6.519,6.519,0,0,1,2.681-1.333,8.01,8.01,0,0,1,3.006-.052,9.492,9.492,0,0,1,2.841.938,11.386,11.386,0,0,1,4.3,4.013A16.29,16.29,0,0,1,313,112.762a15.306,15.306,0,0,1,.9,2.81c.112.481.135,1,.268,1.413a3.281,3.281,0,0,0,.694,1.16,8.772,8.772,0,0,0,2.288,1.643c1.7.9,3.539,1.549,5.321,2.381a15.417,15.417,0,0,1,2.593,1.472,5.492,5.492,0,0,1,1.108,1.068,2.264,2.264,0,0,1,.221.328,2.048,2.048,0,0,1,.178.345,5.311,5.311,0,0,1,.286.705A5.489,5.489,0,0,1,327,129.08a6.173,6.173,0,0,1-1.333,2.628.031.031,0,0,1-.049-.039v0a6.415,6.415,0,0,0,1.068-2.648,5.277,5.277,0,0,0-.3-2.767,4.826,4.826,0,0,0-.288-.638,1.684,1.684,0,0,0-.168-.3,1.794,1.794,0,0,0-.2-.27,4.928,4.928,0,0,0-1.03-.914,16.546,16.546,0,0,0-2.52-1.355c-1.758-.8-3.589-1.508-5.324-2.471a8.659,8.659,0,0,1-2.381-1.835,3.494,3.494,0,0,1-.729-1.368,1.972,1.972,0,0,1-.074-.385c-.02-.133-.032-.256-.039-.372-.018-.239-.047-.477-.082-.714a13.237,13.237,0,0,0-.759-2.791,12.811,12.811,0,0,0-1.314-2.584,10.788,10.788,0,0,0-.893-1.139,11.4,11.4,0,0,0-1.047-.992,10.517,10.517,0,0,0-2.418-1.524,9.42,9.42,0,0,0-5.515-.88,6.952,6.952,0,0,0-4.528,3.219v0a.031.031,0,0,1-.056-.029Zm11.109,10.633c.805.723,1.568,1.474,2.358,2.194.392.362.792.714,1.208,1.045a7.332,7.332,0,0,0,.646.461,1.96,1.96,0,0,0,.727.308,1.744,1.744,0,0,1-.8-.171,4.946,4.946,0,0,1-.718-.4,10.472,10.472,0,0,1-1.277-1.012,15.3,15.3,0,0,1-2.145-2.426Zm-72.147,57.469,6.019,49.254s3.01.777,4.175-1.068l-5.922-48.186" transform="translate(-64.844 -12.027)" fill="#020202"/>
  </g>
</svg>
