<svg xmlns="http://www.w3.org/2000/svg" width="923.427" height="530.928" viewBox="0 0 923.427 530.928">
  <g id="Group_59" data-name="Group 59" transform="translate(-87.412 -123.603)">
    <path id="Path_40" data-name="Path 40" d="M694.69,308.171c-1.143-1.495-2.145-3.077-3.147-4.677C672.218,273.11,587.783,287.51,587.783,287.51c-9.547,73.252-26.164,64.619-29.241,60.012s-8.633-49.849-12.308-56c-10.62-.932-32.318-.774-32.318-.774-20.942.493-40.635,18.92-60.012,48.935-19.377,30-53.541,55.387-53.541,55.387s10.146.932,13.838,23.087c2.268.7,9.073-2.3,14.032-4.73a26.851,26.851,0,0,1,14.26-2.62c7.983.738,19.465,3.288,28.643,11.974a34.254,34.254,0,0,0,3.587,2.919c1.161-.65,1.811-1.09,1.811-1.09,18.92-7.842,30-35.079,30-35.079a30.7,30.7,0,0,1-2.637-10.849,59.535,59.535,0,0,1,.158-11.2c.4-3.64.686-7.244.791-10.866a58.5,58.5,0,0,0-.474-10.937A30.483,30.483,0,0,1,506.9,356.56a62.49,62.49,0,0,1-.228,11.183c-.4,3.622-.633,7.227-.721,10.867a61.635,61.635,0,0,0,.58,10.919,114.766,114.766,0,0,0,6.84,28.4,76.71,76.71,0,0,0,15.385,3.394,47.526,47.526,0,0,0,7.754.246,78.73,78.73,0,0,0,7.912-.844,22.817,22.817,0,0,1-7.684,2.883,28.876,28.876,0,0,1-4.115.492,40.7,40.7,0,0,1-4.15-.159,32.154,32.154,0,0,1-8.018-1.934,24.736,24.736,0,0,1-7.086-4.079,53.831,53.831,0,0,0,5.855,11.535,103.931,103.931,0,0,1,37.681,9.442c3.007,1.389,5.767,3.253,8.546,4.624a47.5,47.5,0,0,0,8.844,3.359,76.451,76.451,0,0,0,18.849,2.672c3.235.106,6.313-.07,9.653-.176a82.916,82.916,0,0,1,9.829.475c6.471.668,12.924,1.406,19.324,2.532,2.444.422,4.871.879,7.3,1.354a27.917,27.917,0,0,1-2.884-4.888,36.714,36.714,0,0,1-2.76-8.141,49.849,49.849,0,0,1-1.108-8.545,46.549,46.549,0,0,1,.334-8.686l.018-.088.035-.123a41.946,41.946,0,0,0,1.776-9.6,69.363,69.363,0,0,0,.106-9.934,93.584,93.584,0,0,0-1.213-9.882c-.633-3.218-1.477-6.576-1.934-9.97a97.97,97.97,0,0,1-.633-20.414c.175-3.394.527-6.787,1.037-10.128a99.7,99.7,0,0,1,1.917-9.97,180.125,180.125,0,0,0-1.372,20.15,114.557,114.557,0,0,0,1.46,19.974c.228,1.653.633,3.271.967,4.889l1.09,4.993a79.474,79.474,0,0,1,1.283,10.216,54.31,54.31,0,0,1-2.338,20.362,52.3,52.3,0,0,0-.668,8.176,48.957,48.957,0,0,0,.651,8.317,43.462,43.462,0,0,0,2.11,8.088,30.474,30.474,0,0,0,2.55,5.292c3.815.774,7.6,1.653,11.341,2.691a74.354,74.354,0,0,1,18.005,7.332A81.217,81.217,0,0,0,650.7,457.77q-4.88-1.135-9.829-1.97a.062.062,0,0,0-.035-.018c-3.042-.527-6.1-.984-9.178-1.389-6.4-.826-12.818-1.547-19.236-2.057a87.429,87.429,0,0,0-9.565-.369c-3.112.105-6.523.334-9.759.228a77.031,77.031,0,0,1-19.482-2.919,51.438,51.438,0,0,1-9.214-3.693c-1.477-.721-2.919-1.688-4.273-2.479-1.354-.826-2.708-1.688-4.132-2.392a90.236,90.236,0,0,0-17.865-7.068,132.308,132.308,0,0,0-18.9-4.185l-14.541,1.389a6.065,6.065,0,0,1,.967,2.057C509.4,445.022,504,492.479,504,492.479c20.766,15.227,135.708,38.771,135.708,38.771,74.1,12.466,74.782-53.33,74.782-53.33C727.746,359.848,701.688,317.243,694.69,308.171ZM601.973,428.528a28.871,28.871,0,0,1-4.115.492,40.825,40.825,0,0,1-4.15-.158,32.2,32.2,0,0,1-8.018-1.934,24.73,24.73,0,0,1-7.086-4.079,76.667,76.667,0,0,0,15.385,3.394,47.488,47.488,0,0,0,7.754.246,78.675,78.675,0,0,0,7.913-.844,22.818,22.818,0,0,1-7.684,2.883Z" transform="translate(237.32 121.71)" fill="#fff"/>
    <path id="Path_41" data-name="Path 41" d="M503.673,328.419a18.209,18.209,0,0,0-1.684-2.166,14.766,14.766,0,0,0-2.012-1.821,12.039,12.039,0,0,0-2.316-1.342,8.22,8.22,0,0,0-2.488-.673l.275-.054a23.27,23.27,0,0,1-5.551,1.854,16.624,16.624,0,0,1-5.935.194,11.665,11.665,0,0,1-5.6-2.446,22.637,22.637,0,0,1-3.875-4.521,80.1,80.1,0,0,1-5.648-10.071c-1.65-3.464-3.135-6.967-4.519-10.565l1.421.938a9.747,9.747,0,0,1-4.806-.73,5.073,5.073,0,0,1-2.144-1.9,5.987,5.987,0,0,1-.83-2.624,12.333,12.333,0,0,1,.665-4.684,22,22,0,0,1,1.8-4.129,10.786,10.786,0,0,0,1.848-6.937,9.826,9.826,0,0,0-.971-3.437l-.958-1.794c-.332-.636-.653-1.283-.953-1.945a23.264,23.264,0,0,1-1.48-4.121,39.535,39.535,0,0,1-.962-4.195c-.306-1.4-.4-2.842-.577-4.264-.056-1.436-.143-2.868-.067-4.3a38.57,38.57,0,0,1,4.131-16.58,1.031,1.031,0,0,1,1.862.071l.017.039a66.779,66.779,0,0,0,8.157,13.928,52.276,52.276,0,0,0,11.6,11.276,37.524,37.524,0,0,0,14.786,6.295,38.644,38.644,0,0,0,16.036-.43l.037-.009a.668.668,0,0,1,.675.241,25.516,25.516,0,0,1,4.335,9.79,48.074,48.074,0,0,1,1.193,10.518,68.941,68.941,0,0,1-.751,10.525,43.543,43.543,0,0,0-.694,10.037,21.952,21.952,0,0,0,2.573,9.289,15.462,15.462,0,0,0,6.708,6.382,18.256,18.256,0,0,0,9.26,1.647,28.523,28.523,0,0,0,9.42-2.425,1.777,1.777,0,0,1,2.473,1.842l0,.023a264.384,264.384,0,0,1-6.01,33.27,106.578,106.578,0,0,1-5.522,16.164,43.4,43.4,0,0,1-4.276,7.605,23.227,23.227,0,0,1-2.97,3.406,12.736,12.736,0,0,1-3.952,2.634,8.625,8.625,0,0,1-5,.551,8.815,8.815,0,0,1-4.415-2.355,6.625,6.625,0,0,1-1.52-2.173,18.873,18.873,0,0,1-.721-2.168c-.394-1.406-.693-2.789-.988-4.177-1.161-5.535-1.959-11.082-2.845-16.617l-2.6-16.591c-.446-2.761-.913-5.518-1.453-8.257a39.137,39.137,0,0,0-2.174-8.018l-.011-.025a.175.175,0,0,1,.313-.156,36.174,36.174,0,0,1,2.746,8c.7,2.722,1.321,5.46,1.925,8.2,1.219,5.478,2.246,10.988,3.348,16.478,1.082,5.49,2.2,10.982,3.435,16.389.322,1.343.65,2.691,1.046,3.973a16.331,16.331,0,0,0,.643,1.8,3.7,3.7,0,0,0,.912,1.211,5.46,5.46,0,0,0,6.135,1.016,14.18,14.18,0,0,0,5.394-5.071,44.331,44.331,0,0,0,3.79-7.1,103.038,103.038,0,0,0,5.143-15.66,313.871,313.871,0,0,0,6.1-32.791l2.469,1.864a31.984,31.984,0,0,1-10.628,2.566,21.592,21.592,0,0,1-10.915-2.125,18.35,18.35,0,0,1-7.976-7.826,24.907,24.907,0,0,1-2.7-10.616,44.93,44.93,0,0,1,.99-10.608,66.592,66.592,0,0,0,1.107-10.133,44.754,44.754,0,0,0-.777-10.109,24.288,24.288,0,0,0-3.665-9.2l.711.232a42.592,42.592,0,0,1-16.577.14,36.4,36.4,0,0,1-7.926-2.515,43.2,43.2,0,0,1-7.261-4.028,57.952,57.952,0,0,1-12.093-11.3,68.33,68.33,0,0,1-8.969-14.009l1.879.11a36.423,36.423,0,0,0-3.209,15.588,39.9,39.9,0,0,0,.836,7.972,36.444,36.444,0,0,0,.979,3.89,23.393,23.393,0,0,0,1.366,3.684c.275.6.574,1.194.886,1.786.313.607.633,1.126,1.007,1.871a12.976,12.976,0,0,1,1.295,4.519,13.839,13.839,0,0,1-2.354,8.835,14.2,14.2,0,0,0-2.118,6.959,2.364,2.364,0,0,0,1.3,2.149,7.032,7.032,0,0,0,3.328.512h.019a1.423,1.423,0,0,1,1.4.94c1.258,3.512,2.678,7.023,4.193,10.453a77.929,77.929,0,0,0,5.1,9.965,20.791,20.791,0,0,0,3.339,4.233,9.841,9.841,0,0,0,4.632,2.215,19.4,19.4,0,0,0,10.7-1.333l.072-.029a.4.4,0,0,1,.2-.025,9.048,9.048,0,0,1,2.817.923,12.889,12.889,0,0,1,2.4,1.586,14.622,14.622,0,0,1,1.961,2.063,18.643,18.643,0,0,1,1.553,2.352.176.176,0,0,1-.065.24.183.183,0,0,1-.237-.059Z" transform="translate(279.725 84.893)" fill="#fff"/>
    <path id="Path_43" data-name="Path 43" d="M459.391,251.158a5.356,5.356,0,0,1-.483-4.207l.29-1.047.454-.97c.158-.321.3-.655.475-.967l.6-.88a23.184,23.184,0,0,1,2.686-3.283c1.007-.977,2.078-1.879,3.129-2.815a85.955,85.955,0,0,1,14.181-8.7c2.494-1.184,5.014-2.316,7.534-3.441,2.548-1.046,5.113-2.056,7.683-3.049,2.576-.943,5.191-1.757,7.793-2.621,1.316-.4,2.584-.845,3.991-1.234a40.1,40.1,0,0,1,4.14-.881,41.176,41.176,0,0,1,16.651.678,34.745,34.745,0,0,1,14.617,7.744,45.839,45.839,0,0,1,10.021,13.276,71.384,71.384,0,0,1,5.724,15.661l.025.146a81.454,81.454,0,0,0,7.1,21.455,72.536,72.536,0,0,0,5.728,9.728,62.723,62.723,0,0,0,7.165,8.659l4.181,3.873a44.485,44.485,0,0,1,4.232,4.238,39.27,39.27,0,0,1,6.578,9.979,34.6,34.6,0,0,1,2.452,23.134.175.175,0,0,1-.343-.069l0-.02a33.779,33.779,0,0,0-.452-11.377,35.583,35.583,0,0,0-3.861-10.564,44.623,44.623,0,0,0-3.01-4.728,43.133,43.133,0,0,0-3.668-4.237,41.243,41.243,0,0,0-4.114-3.812l-4.467-3.868a64.4,64.4,0,0,1-13.739-19.347,83.763,83.763,0,0,1-4.212-11.073,70.31,70.31,0,0,1-2.575-11.6l.025.145a81.847,81.847,0,0,0-4.685-15.413,40.767,40.767,0,0,0-8.927-13.3,32.207,32.207,0,0,0-6.52-4.711,29,29,0,0,0-7.556-2.749,36.431,36.431,0,0,0-15.935.38,37.747,37.747,0,0,0-3.823,1.1c-1.206.425-2.487.977-3.762,1.462l-7.679,2.874c-2.521,1.016-5.048,2.014-7.591,2.977l-7.475,3.213a105.452,105.452,0,0,0-14.2,7.726c-1.057.805-2.152,1.586-3.178,2.434a25.4,25.4,0,0,0-2.807,2.8l-.643.756c-.187.267-.343.551-.518.827l-.513.84-.354.9a5.063,5.063,0,0,0-.081,3.757l.017.037a.174.174,0,0,1-.3.166Z" transform="translate(281.545 70.455)" fill="#fff"/>
    <path id="Path_44" data-name="Path 44" d="M461.559,258.062a33.831,33.831,0,0,1,7.892-4.216,29.827,29.827,0,0,1,4.31-1.294,11.264,11.264,0,0,1,4.518-.208,27.179,27.179,0,0,0-4.215,1.276l-4.107,1.554C467.208,256.207,464.465,257.271,461.559,258.062Z" transform="translate(283.727 97.524)" fill="#fff"/>
    <path id="Path_45" data-name="Path 45" d="M466.824,262.968a2.136,2.136,0,1,0-2.062-2.135,2.136,2.136,0,0,0,2.062,2.135Z" transform="translate(286.156 102.447)" fill="#fff"/>
    <path id="Path_46" data-name="Path 46" d="M463.976,276.72a27.266,27.266,0,0,0,3.208-.089c1.041-.095,2.066-.221,3.084-.415s2.031-.425,3.048-.7,2.043-.578,3.13-.85a10.738,10.738,0,0,1-2.739,1.889,12.864,12.864,0,0,1-3.18,1.063A9.69,9.69,0,0,1,463.976,276.72Z" transform="translate(285.561 114.554)" fill="#fff"/>
    <path id="Path_47" data-name="Path 47" d="M516.463,432.312a104.432,104.432,0,0,0-16.255-4.532,49.2,49.2,0,0,0-16.543-.528l-2.027.342-1.979.538a34.347,34.347,0,0,0-3.864,1.331,45.125,45.125,0,0,0-7.217,3.92c-2.325,1.524-4.531,3.269-7.128,4.777a30.825,30.825,0,0,1-8.306,3.19,33.626,33.626,0,0,1-8.821.889,19.407,19.407,0,0,1-8.931-2.167,8.07,8.07,0,0,1-2.01-1.74c-.51-.626-.824-1.083-1.27-1.6a13.546,13.546,0,0,0-2.879-2.5,40.661,40.661,0,0,0-7.433-3.372,37.071,37.071,0,0,1-7.966-3.614,13.61,13.61,0,0,1-3.3-3.149c-.449-.579-.852-1.132-1.284-1.644-.212-.266-.435-.492-.663-.75-.248-.294-.534-.587-.744-.883a73.344,73.344,0,0,1-4.617-7.264c-1.413-2.467-2.819-4.926-4.168-7.427l.412.3-3.62-.79a19.408,19.408,0,0,1-3.664-1,15.257,15.257,0,0,1-6.068-4.591,7.8,7.8,0,0,1-1.749-3.539,4.962,4.962,0,0,1,1.092-3.9,10,10,0,0,1,6.857-3.5,19.44,19.44,0,0,1,3.814.156l3.685.265q3.688.233,7.378.346c4.919.151,9.842.116,14.731-.19a83.3,83.3,0,0,0,14.417-2.02,29.925,29.925,0,0,0,6.609-2.42,13.209,13.209,0,0,0,2.727-1.892,17.259,17.259,0,0,0,2.251-2.507,4.069,4.069,0,0,0,.995-2.255c-.029-.181-.059-.251-.29-.45a4.056,4.056,0,0,0-1.119-.5,18.014,18.014,0,0,0-6.671-.091,21.976,21.976,0,0,0-3.338.734,6.312,6.312,0,0,0-1.28.539l-.379.246c-.166.115-.333.207-.5.3a9.282,9.282,0,0,1-1.011.489,16.6,16.6,0,0,1-4.015,1.043c-.661.094-1.319.16-1.975.206a9.063,9.063,0,0,1-2.276-.084,8.014,8.014,0,0,1-4.225-2.136,9.138,9.138,0,0,1-2.328-3.99,11.78,11.78,0,0,1,1.087-8.57,8.265,8.265,0,0,1,3.237-3.5,4.556,4.556,0,0,1,1.494-.484,3.768,3.768,0,0,1,.921-.007,3.44,3.44,0,0,1,.472.086l.2.053.023,0a3.333,3.333,0,0,0,1.073-.068,35.3,35.3,0,0,0,6.584-2.214q1.668-.709,3.325-1.484l1.652-.783q.89-.425,1.809-.8a28.24,28.24,0,0,1,7.653-1.884,31.337,31.337,0,0,1,7.786.269,59.64,59.64,0,0,1,7.461,1.512,47.393,47.393,0,0,1,13.906,6.191,41.544,41.544,0,0,1,5.924,4.816,46.608,46.608,0,0,0,5.628,4.431,48.1,48.1,0,0,0,28.045,6.394h.015a.176.176,0,0,1,.034.35,46.829,46.829,0,0,1-29.155-4.974,48.434,48.434,0,0,1-6.209-4.458,42.886,42.886,0,0,0-18.96-9.75,56.522,56.522,0,0,0-7.1-1.236,27.833,27.833,0,0,0-7-.062,25.123,25.123,0,0,0-6.674,1.738c-.53.224-1.053.463-1.571.719l-1.687.826q-1.694.815-3.424,1.58a35.488,35.488,0,0,1-7.427,2.533,6.363,6.363,0,0,1-2.606,0l-.2-.047c-.068-.016-.013,0-.026,0l.017,0c.01,0,.012,0,0,0a.866.866,0,0,0-.256.1,4.823,4.823,0,0,0-1.656,1.931,8.09,8.09,0,0,0-.794,5.784,5.676,5.676,0,0,0,1.32,2.372,4.35,4.35,0,0,0,2.275,1.188,5.269,5.269,0,0,0,1.416.062c.578-.031,1.15-.08,1.713-.151a13.183,13.183,0,0,0,3.156-.754,5.7,5.7,0,0,0,.661-.306,3.083,3.083,0,0,0,.3-.171l.4-.252a9.3,9.3,0,0,1,2.124-.9,25.228,25.228,0,0,1,3.906-.8,20.931,20.931,0,0,1,8.054.3,7.062,7.062,0,0,1,2.209,1.088,3.905,3.905,0,0,1,1.5,2.672,4.978,4.978,0,0,1-.51,2.616,9.369,9.369,0,0,1-1.14,1.871,18.989,18.989,0,0,1-2.76,2.935,16.252,16.252,0,0,1-3.4,2.237A32.738,32.738,0,0,1,437,390.389a76.717,76.717,0,0,1-14.968,1.576c-4.986.105-9.956-.064-14.908-.38q-3.714-.243-7.414-.612l-3.7-.4a18.371,18.371,0,0,0-3.575-.2,8.8,8.8,0,0,0-6.051,2.968,3.8,3.8,0,0,0-.9,3.007,6.746,6.746,0,0,0,1.479,3.037,13.617,13.617,0,0,0,5.64,4.23,18.3,18.3,0,0,0,3.483.913l3.639.709a.6.6,0,0,1,.4.283l.012.02a122.012,122.012,0,0,0,9.152,14.113c.212.273.439.473.654.713.253.261.537.529.78.807.506.549.962,1.122,1.4,1.642a11.5,11.5,0,0,0,2.924,2.569,35.121,35.121,0,0,0,7.608,3.039,40.3,40.3,0,0,1,8.128,3.337,16.555,16.555,0,0,1,3.583,2.964c.5.541,1.015,1.233,1.414,1.69A5.316,5.316,0,0,0,437,437.4a16.584,16.584,0,0,0,7.435,1.684,32.486,32.486,0,0,0,8.032-.751,27.76,27.76,0,0,0,7.519-2.789c2.312-1.316,4.63-3,7.065-4.536a47.721,47.721,0,0,1,7.779-3.987,36.848,36.848,0,0,1,4.212-1.262l2.141-.486,2.172-.279a49.169,49.169,0,0,1,17.176,1.283,91.372,91.372,0,0,1,16.073,5.71.176.176,0,0,1-.125.328Z" transform="translate(225.155 175.572)" fill="#fff"/>
    <path id="Path_48" data-name="Path 48" d="M393.007,384.273c3.424-.294,6.848-.431,10.272-.545,3.424-.131,6.848-.149,10.272-.167l5.136.037a19.206,19.206,0,0,1,5.22.72,76.915,76.915,0,0,1,9.492,4.108c-1.653-.474-3.273-1.033-4.91-1.547a37.93,37.93,0,0,0-4.843-1.5,21.534,21.534,0,0,0-4.959-.436l-5.136.037c-3.424-.018-6.848-.036-10.272-.166C399.855,384.7,396.431,384.566,393.007,384.273Z" transform="translate(231.743 197.135)" fill="#fff"/>
    <path id="Path_49" data-name="Path 49" d="M394,385.708c2.3,1.775,4.5,3.668,6.687,5.58,1.13.919,2.134,2,3.235,2.767a11.458,11.458,0,0,0,3.673,1.753c1.272.382,2.743.44,4.193.71a42.427,42.427,0,0,1,4.29.937,17.25,17.25,0,0,1,7.8,3.887,13.823,13.823,0,0,0-3.892-1.791,32.028,32.028,0,0,0-4.159-1.03c-1.411-.244-2.82-.5-4.244-.671a38.609,38.609,0,0,1-4.375-.672,12.411,12.411,0,0,1-4.087-2.041,35.365,35.365,0,0,1-3.2-3.065C397.906,390,395.9,387.914,394,385.708Z" transform="translate(232.493 198.762)" fill="#fff"/>
    <path id="Path_50" data-name="Path 50" d="M381.182,373.034a34.651,34.651,0,0,0-4.132-6.457l.271.176a13.954,13.954,0,0,1-7.23-3.469,6.427,6.427,0,0,1-1.833-3.953,8.368,8.368,0,0,1,.1-2.216,19.458,19.458,0,0,1,.653-2.056,11.6,11.6,0,0,1,6.078-5.794,10.627,10.627,0,0,1,4.282-1.025,7.659,7.659,0,0,1,4.463,1.4l-2.313.739a11.113,11.113,0,0,1,1.437-2.688,12.1,12.1,0,0,1,1.986-2.191,12.678,12.678,0,0,1,5.243-2.682,15.644,15.644,0,0,1,5.706-.3l1.359.175a8.311,8.311,0,0,1,1.556.385,13.2,13.2,0,0,1,2.683,1.267,20.383,20.383,0,0,1,7.358,8.4,41.319,41.319,0,0,1,3.449,10.238l-3.318.2a19.534,19.534,0,0,1,2.008-6.472,13.866,13.866,0,0,1,4.5-5.205,12.473,12.473,0,0,1,6.562-2.034,11.954,11.954,0,0,1,1.672.05l.83.053a4.1,4.1,0,0,1,.961.157,10.619,10.619,0,0,1,3.137,1.53,21.6,21.6,0,0,1,7.263,10.507,51.149,51.149,0,0,1,2.664,12.17,61.851,61.851,0,0,0-3.908-11.643,21.152,21.152,0,0,0-7.3-9.076,9.044,9.044,0,0,0-2.461-1.047,1.953,1.953,0,0,0-.568-.053l-.716-.006a10.379,10.379,0,0,0-6.44,1.841,13.561,13.561,0,0,0-4.857,9.509v.012a1.684,1.684,0,0,1-3.316.191,38.28,38.28,0,0,0-3.238-9.321,18.1,18.1,0,0,0-6.088-7.048,9.788,9.788,0,0,0-1.982-.966,4.851,4.851,0,0,0-.951-.252l-1.209-.169a13.14,13.14,0,0,0-4.592.148,9.417,9.417,0,0,0-3.958,1.863,9.231,9.231,0,0,0-2.615,3.418l-.071.168a1.455,1.455,0,0,1-1.909.769,1.517,1.517,0,0,1-.334-.2,5.841,5.841,0,0,0-5.932-.374,9.516,9.516,0,0,0-5.121,4.3,5.424,5.424,0,0,0,.311,6.188,12.79,12.79,0,0,0,6.182,3.684l.059.017a.385.385,0,0,1,.213.159A28.472,28.472,0,0,1,381.182,373.034Z" transform="translate(212.949 165.913)" fill="#fff"/>
    <path id="Path_51" data-name="Path 51" d="M375.95,361.61a8.158,8.158,0,0,0-4.654-4.14,8.631,8.631,0,0,0-5.968.449,5.242,5.242,0,0,0-3.594,3.974,9.207,9.207,0,0,0,1.506,5.466,26.97,26.97,0,0,0,3.8,4.939c.352.388.724.742,1.091,1.1l1.192,1.042c.851.735,1.673,1.485,2.487,2.241,3.262,3.018,6.31,6.187,9.35,9.4a1.651,1.651,0,0,1,.431.873l.018.112a11.884,11.884,0,0,0,.993,2.951,16.118,16.118,0,0,0,4.02,5.25c.858.776,1.714,1.3,2.862,2.177a21.319,21.319,0,0,1,5.226,5.982,25.967,25.967,0,0,1,2.991,7.289l-.08-.251a10.829,10.829,0,0,0,4.285,5.4,14.024,14.024,0,0,0,6.96,1.911,30.748,30.748,0,0,0,7.63-.79,48.735,48.735,0,0,0,7.5-2.279,39.36,39.36,0,0,1-7.215,3.31,29.851,29.851,0,0,1-7.9,1.617A15.782,15.782,0,0,1,400.67,418a12.954,12.954,0,0,1-3.41-2.737,15.9,15.9,0,0,1-2.332-3.661l-.032-.082-.049-.17a24.131,24.131,0,0,0-2.853-6.231,19.839,19.839,0,0,0-4.575-4.977c-.807-.619-2.061-1.4-3.041-2.267a19.4,19.4,0,0,1-2.8-2.9,17.767,17.767,0,0,1-2.15-3.458,14.7,14.7,0,0,1-1.263-4.062l.45.984c-2.944-3.2-5.983-6.359-9.03-9.442-.768-.764-1.542-1.521-2.327-2.248l-1.245-1.169c-.4-.422-.81-.841-1.181-1.278a28.9,28.9,0,0,1-3.892-5.706,10.9,10.9,0,0,1-1.332-7.12,6.007,6.007,0,0,1,.72-1.83,10.5,10.5,0,0,1,1.231-1.494l1.528-1.051,1.64-.674a9.559,9.559,0,0,1,6.893.2A8.253,8.253,0,0,1,375.95,361.61Z" transform="translate(206.317 176.141)" fill="#fff"/>
    <path id="Path_52" data-name="Path 52" d="M371.248,378.008a10.474,10.474,0,0,1,.107-5.931,6.884,6.884,0,0,1,1.51-2.706,3.737,3.737,0,0,1,2.768-1.288,5.591,5.591,0,0,0-1.887,1.964,10.842,10.842,0,0,0-1.035,2.46C372.148,374.246,371.805,376.088,371.248,378.008Z" transform="translate(214.956 185.396)" fill="#fff"/>
    <path id="Path_53" data-name="Path 53" d="M373.448,356.493c1.209-.3,2.2-.5,3.244-.71a18.358,18.358,0,0,1,3.334-.433,5.009,5.009,0,0,1-3.063,1.83,4.357,4.357,0,0,1-3.515-.686Z" transform="translate(216.91 175.74)" fill="#fff"/>
    <path id="Path_54" data-name="Path 54" d="M377.858,347.61a15.8,15.8,0,0,0,.6,4.519,7.882,7.882,0,0,0,2.254,3.832,5.6,5.6,0,0,0,4.249,1.284,14.393,14.393,0,0,0,2.339-.386l2.262-.817-2.193,1.026a14.772,14.772,0,0,1-2.364.615,6.271,6.271,0,0,1-4.832-1.027,8.947,8.947,0,0,1-2.962-4.1,17.235,17.235,0,0,1-1.108-4.934.881.881,0,0,1,1.756-.136q0,.041,0,.08Z" transform="translate(218.919 169.162)" fill="#fff"/>
    <path id="Path_55" data-name="Path 55" d="M381.128,352.857a44.137,44.137,0,0,1,3.225,5.827,21.716,21.716,0,0,1,2.1,6.477,2.672,2.672,0,0,0,1.626,1.869,9.9,9.9,0,0,0,2.923.936,9.169,9.169,0,0,0,3.147.027,4.189,4.189,0,0,0,2.788-1.4,4.151,4.151,0,0,1-2.622,2.082,9.84,9.84,0,0,1-3.428.384,9.218,9.218,0,0,1-3.417-.822,3.93,3.93,0,0,1-2.436-2.978,31.487,31.487,0,0,0-1.692-6.161Z" transform="translate(222.734 173.85)" fill="#fff"/>
    <path id="Path_56" data-name="Path 56" d="M394.854,354.821a23.5,23.5,0,0,0,2.575,7.842,13.019,13.019,0,0,0,1.119,1.667,13.133,13.133,0,0,1,1.4,2.035,11.5,11.5,0,0,1,.962,2.3c.241.842.355,1.541.522,2.237a6.809,6.809,0,0,0,.5,1.8,5.22,5.22,0,0,0,1.28,1.334,4.764,4.764,0,0,0,3.54.974,5.907,5.907,0,0,0,3.358-2.026,16.554,16.554,0,0,0,2.439-3.536l-.037.113a44.955,44.955,0,0,0,.875-6.279,20.413,20.413,0,0,0-.419-6.33,20.637,20.637,0,0,1,.883,6.343,45.622,45.622,0,0,1-.427,6.438.331.331,0,0,1-.027.093l-.01.021a17.655,17.655,0,0,1-2.337,3.964,7.29,7.29,0,0,1-3.982,2.743,6.5,6.5,0,0,1-4.924-.947,7.159,7.159,0,0,1-1.914-1.742,3.669,3.669,0,0,1-.618-1.284l-.329-1.1a12.6,12.6,0,0,0-1.529-3.819,10.452,10.452,0,0,0-1.245-1.552A15.748,15.748,0,0,1,395,364.184a26.494,26.494,0,0,1-3.611-8.793,1.761,1.761,0,0,1,3.432-.789c.01.042.018.084.024.126Z" transform="translate(230.477 174.137)" fill="#fff"/>
    <path id="Path_57" data-name="Path 57" d="M391.492,371.66c.07,0,.123.017.193.017l.158.106Z" transform="translate(230.594 188.109)" fill="#fff"/>
    <path id="Path_58" data-name="Path 58" d="M445.862,379.068c-30.208-4.59-58.676-16.3-65.744-19.342a11.337,11.337,0,0,0-3.868-.932c-6.435-.334-8.651,1.758-9.249,3.921a5.011,5.011,0,0,0,2.268,5.539l31.421,19.763.017-.017a27.378,27.378,0,0,1,5.451-4.994,23.317,23.317,0,0,1-2.725,4.4,16.628,16.628,0,0,1,8.932.035c36.38,3.446,45.523-4.15,45.523-4.15C453.985,379.649,445.862,379.068,445.862,379.068Zm-26.533-3.007,7.385,5.381-16.933-2.532-15.245-10.216Zm9.495,9.126c-6.295-.58-12.572-1.3-18.849-2a1.179,1.179,0,0,1-.352-.123c-5.8-3.5-11.587-7.033-17.32-10.655l-8.6-5.468c-2.813-1.882-5.679-3.693-8.475-5.627,3.007,1.583,5.961,3.253,8.932,4.871l8.844,5.047c5.838,3.323,11.6,6.769,17.372,10.233,6.189.756,12.414,1.53,18.6,2.409,6.242.879,12.5,1.793,18.726,2.884-6.312-.387-12.607-.968-18.884-1.565Z" transform="translate(211.901 178.326)" fill="#e24444"/>
    <path id="Path_59" data-name="Path 59" d="M391.844,371.783l-.352-.123c.07,0,.123.017.193.017Z" transform="translate(230.594 188.109)" fill="#e24444"/>
    <path id="Path_60" data-name="Path 60" d="M314.519,245.029s-4.515-2.709-8.729,2.107c0,0-7.525-10.692-39.431-1.433,0,0,4.214,8.055,7.224,8.055S267.864,267.6,259.737,267c0,0-13.846,20.167-3.311,39.732,10.383,19.283,17.843,25.409,28.142,12.9a7.811,7.811,0,0,1,1.053-1.065c2.962-2.443,16.075-12.6,20.722-5.025a7.382,7.382,0,0,1,.788,5.579c-2.121,8.884-12.041,41.607-40.771,28.547,0,0-33.482-12.556-25.585-42.3a37.15,37.15,0,0,1,3.645-8.649A23.239,23.239,0,0,0,246.14,278.4a18.362,18.362,0,0,0-7.682-10.421c-3.627-2.262-8.408-3.274-12.029,3.052a17.5,17.5,0,0,0-2.293,8.636c-.007,2.772.509,6.172,2.793,7.8l-2.793,5.418a37.043,37.043,0,0,0-5.771-8.508,25.3,25.3,0,0,1-7.077-14.446c-1.022-8.657.209-21.582,10.523-36.644,0,0,13.846-27.692,39.732-27.09S309.7,213.725,314.519,245.029Z" transform="translate(93.717 62.629)" fill="#fff"/>
    <path id="Path_61" data-name="Path 61" d="M245.221,249.347a48.429,48.429,0,0,1,13.72-1.13,34.508,34.508,0,0,1,6.869,1.042,13.889,13.889,0,0,1,6.2,3.1,21.047,21.047,0,0,0-6.469-1.822c-2.213-.318-4.446-.549-6.7-.65C254.342,249.605,249.817,249.584,245.221,249.347Z" transform="translate(119.671 94.431)" fill="#fff"/>
    <path id="Path_62" data-name="Path 62" d="M273.4,248.577a12.335,12.335,0,0,0-4.473,2.465,5.694,5.694,0,0,0-2.065,4.161,13.066,13.066,0,0,0,1.268,4.726l1.968,4.839a29.247,29.247,0,0,1,2.517,10.373,7.846,7.846,0,0,1-.511,2.762,5.487,5.487,0,0,1-1.708,2.27,8.234,8.234,0,0,1-5.172,1.229,8.6,8.6,0,0,0,4.648-1.859,5.465,5.465,0,0,0,1.439-4.391,20.034,20.034,0,0,0-1.013-4.92c-.506-1.63-1.111-3.244-1.755-4.853-.619-1.621-1.288-3.232-1.89-4.892-.288-.838-.58-1.673-.807-2.557a7.144,7.144,0,0,1-.28-2.825,6.463,6.463,0,0,1,2.855-4.7A11.251,11.251,0,0,1,273.4,248.577Z" transform="translate(134.839 94.771)" fill="#fff"/>
    <path id="Path_63" data-name="Path 63" d="M272.286,228.279q.846,5.061,1.258,10.176.47,5.107.581,10.244c.053,3.424,0,6.855-.265,10.289a29.376,29.376,0,0,1-2.308,10.167.47.47,0,0,1-.076.11,41.349,41.349,0,0,0-2.97,3.582,14.588,14.588,0,0,0-1.218,1.976,3.5,3.5,0,0,0-.446,2.227,3.405,3.405,0,0,1,.123-2.359,15,15,0,0,1,1.007-2.182,26.969,26.969,0,0,1,2.715-3.948l-.075.11a19.776,19.776,0,0,0,1.156-4.783c.261-1.651.366-3.336.491-5.016.2-3.372.234-6.764.253-10.158C272.512,241.921,272.363,235.115,272.286,228.279Z" transform="translate(135.951 79.379)" fill="#fff"/>
    <path id="Path_64" data-name="Path 64" d="M260.356,261.831a11.839,11.839,0,0,0-.767,2.035,4.367,4.367,0,0,0-.125,2,3.349,3.349,0,0,0,.829,1.773,11.05,11.05,0,0,0,1.568,1.49,10.177,10.177,0,0,1-1.073-.385,5.827,5.827,0,0,1-.959-.661A3.613,3.613,0,0,1,258.641,266a4.346,4.346,0,0,1,.346-2.351A4.965,4.965,0,0,1,260.356,261.831Z" transform="translate(129.82 104.822)" fill="#fff"/>
    <path id="Path_65" data-name="Path 65" d="M220.057,252.416a16.056,16.056,0,0,1,2.464,4.334,11.861,11.861,0,0,1,.683,2.477,6.765,6.765,0,0,1,.088,1.345l-.009.346.02.188a.656.656,0,0,0,.077.352,2.422,2.422,0,0,0,1.277,1.214,10.2,10.2,0,0,0,2.1.8,20.123,20.123,0,0,0,4.738.687,9.96,9.96,0,0,1-4.978.6,8.853,8.853,0,0,1-2.551-.654,3.889,3.889,0,0,1-2.157-2.07,2.1,2.1,0,0,1-.155-.835l-.006-.422.013-.264a7.445,7.445,0,0,0-.024-1.092,16.634,16.634,0,0,0-.36-2.291C220.934,255.576,220.485,254.022,220.057,252.416Z" transform="translate(100.589 97.683)" fill="#fff"/>
    <path id="Path_66" data-name="Path 66" d="M227.134,255.5a33.23,33.23,0,0,1-2.823,7,34.665,34.665,0,0,1-4.243,6.31,24.128,24.128,0,0,1-5.77,5.044,14.768,14.768,0,0,1-7.256,2.207,21,21,0,0,0,6.529-3.29,32.443,32.443,0,0,0,5.225-5.045,58.086,58.086,0,0,0,4.4-5.893C224.544,259.772,225.884,257.678,227.134,255.5Z" transform="translate(90.719 100.019)" fill="#fff"/>
    <path id="Path_67" data-name="Path 67" d="M231.013,302.624a26.778,26.778,0,0,0,5.359-3.136,45.774,45.774,0,0,0,4.673-4.005c1.512-1.4,2.867-2.957,4.275-4.485l2.05-2.366c.667-.808,1.333-1.621,2.067-2.4-.419.976-.907,1.919-1.393,2.868-.55.906-1.092,1.826-1.7,2.7a33.209,33.209,0,0,1-4.144,4.884,26.288,26.288,0,0,1-5.126,3.893A14.638,14.638,0,0,1,231.013,302.624Z" transform="translate(108.897 123.326)" fill="#fff"/>
    <path id="Path_68" data-name="Path 68" d="M219.641,266.1a24.42,24.42,0,0,0-5.484-5.8,3.435,3.435,0,0,0-3.308-.7,4.958,4.958,0,0,0-2.015,2.867,21.507,21.507,0,0,0-.885,3.828c-.09.647-.169,1.32-.227,1.942,0,.592.055,1.288.115,1.936a45.467,45.467,0,0,0,1.47,7.849,57.112,57.112,0,0,0,6.113,14.885,68.2,68.2,0,0,0,9.857,12.813c1.9,1.918,3.867,3.765,5.868,5.564,2.077,1.714,4.063,3.555,6.225,5.129,1.043.843,2.193,1.526,3.283,2.3,1.153.663,2.261,1.416,3.462,1.979a31.853,31.853,0,0,0,7.351,2.881,21.564,21.564,0,0,0,15.267-1.6,30.3,30.3,0,0,0,11.544-10.86.084.084,0,0,1,.113-.036.091.091,0,0,1,.036.112,28.439,28.439,0,0,1-11.075,11.937,21.856,21.856,0,0,1-7.925,2.658,23.268,23.268,0,0,1-8.364-.532,30.377,30.377,0,0,1-7.761-3.017c-1.244-.618-2.373-1.418-3.553-2.132-1.108-.816-2.279-1.551-3.33-2.435-2.2-1.654-4.131-3.587-6.169-5.4-1.04-.884-1.921-1.94-2.875-2.913-.92-1.008-1.915-1.942-2.769-3.009a104.476,104.476,0,0,1-9.679-13.134,64.888,64.888,0,0,1-6.949-14.807,38.622,38.622,0,0,1-1.6-8.1c-.046-.7-.088-1.362-.072-2.126.08-.724.178-1.4.289-2.091a22.776,22.776,0,0,1,1.041-4.061,5.711,5.711,0,0,1,2.778-3.431,3.387,3.387,0,0,1,2.343-.048,6.4,6.4,0,0,1,1.913,1.047,21.487,21.487,0,0,1,5.119,6.424.083.083,0,0,1-.031.114.088.088,0,0,1-.112-.027Z" transform="translate(90.155 102.188)" fill="#fff"/>
    <path id="Path_69" data-name="Path 69" d="M288.721,260.44a23.126,23.126,0,0,0-8.808-3.195,12.968,12.968,0,0,0-8.944,1.6,10.9,10.9,0,0,0-3.13,3.348l-2.731,3.922a58.661,58.661,0,0,1-6.051,7.512.521.521,0,0,1-.395.149l-.041,0c-11.248-.666-22.536-.933-33.793-.857-5.63.047-11.254.273-16.845.712a71.41,71.41,0,0,0-16.37,2.841l-.094.026-.129.027a28.472,28.472,0,0,0-8.319,3.621,38.48,38.48,0,0,0-3.839,2.657l-1.856,1.428c-.6.5-1.163,1.049-1.747,1.57a79.856,79.856,0,0,0-12.3,14.247,158,158,0,0,0-17.222,33.761c-1.079,2.987-2.261,5.936-3.256,8.952l-2.849,9.1c-.964,3-1.826,6.172-2.949,9.206-1.092,3.064-2.37,6.028-3.593,8.97l-3.766,8.84-1.961,4.405a49.317,49.317,0,0,1-2.232,4.461,5.647,5.647,0,0,1-.564.765c.119,0,.13-.27.136-.16a1.7,1.7,0,0,0,.021.515,6.593,6.593,0,0,0,.637,1.784,11.823,11.823,0,0,0,2.59,3.326,14.226,14.226,0,0,0,7.728,3.533l-1.13,2.744a50.376,50.376,0,0,1-5.025-4.5,14.875,14.875,0,0,1-2.237-2.89,5.25,5.25,0,0,1-.445-1.08,5.149,5.149,0,0,1-.115-.752,2.915,2.915,0,0,1,.167-.973,2.311,2.311,0,0,1,.592-.882,4.41,4.41,0,0,1,.385-.32c.117-.067.23-.121.348-.177a4.094,4.094,0,0,1,1.251-.349,13.076,13.076,0,0,1,3.693.261c1.133.205,2.217.48,3.3.764l3.22,1.024,3.115,1.249c8.136,3.671,15.352,8.545,22.864,12.833a215.453,215.453,0,0,0,23.113,11.694,242.676,242.676,0,0,0,24.367,8.871l.01,0a1.043,1.043,0,0,1,.731,1.082,231.226,231.226,0,0,0-.87,24.318,84.62,84.62,0,0,0,1.032,12.048,22.064,22.064,0,0,0,1.662,5.638,5.669,5.669,0,0,0,1.632,2.071c.179.078.353.161.526.253.183.056.378.053.565.1.42.05.994.02,1.484.033l48.916.133c16.305.08,32.609-.008,48.914-.027l48.915-.165-.564.249a79.118,79.118,0,0,1,10.89-9.545,59.769,59.769,0,0,1,12.634-7.138,36.739,36.739,0,0,1,14.323-2.875,29.636,29.636,0,0,1,7.382,1.071l6.777,2.271c2.265.735,4.536,1.451,6.811,2.115a30.84,30.84,0,0,0,6.751,1.458,19.044,19.044,0,0,1,7.253,2.353,11.928,11.928,0,0,1,3.141,2.427,5.517,5.517,0,0,1,1.48,4.05,22.533,22.533,0,0,1-.128,3.778,6.9,6.9,0,0,1-1.755,3.907,6.318,6.318,0,0,1-3.945,1.8,14.3,14.3,0,0,1-3.924-.123,27.581,27.581,0,0,1-3.655-.833l-3.42-1.034a26.729,26.729,0,0,0-3.33-.727,6.688,6.688,0,0,0-2.819.027l.338-2.327a29.914,29.914,0,0,0,15.352,5.357,37.849,37.849,0,0,0,8.333-.478c2.842-.388,5.66-.865,8.524-1.342,1.442-.228,2.874-.48,4.459-.581a9.237,9.237,0,0,1,2.6.153,4.871,4.871,0,0,1,2.655,1.566,7.352,7.352,0,0,1,1.346,2.4,12.713,12.713,0,0,1,.359,7.336,11.961,11.961,0,0,1-6.048,7.558,24.67,24.67,0,0,1-8.891,2.607l1.354-1.019a25.39,25.39,0,0,1-2.68,4.685,22.782,22.782,0,0,1-3.645,4.006,16.284,16.284,0,0,1-4.841,2.8,14.4,14.4,0,0,1-5.642.716l1.446-.594c-2.938,3.423-5.821,6.784-9.13,10.021-.422.4-.869.807-1.366,1.209a15.239,15.239,0,0,1-1.6,1.067,25.091,25.091,0,0,1-3.248,1.536,38.243,38.243,0,0,1-6.731,1.928,50.084,50.084,0,0,1-13.806.636c-1.149-.08-2.284-.266-3.427-.4l-3.386-.593-3.174-.519-3.231-.337a157.765,157.765,0,0,0-26.358.851c-8.808.893-17.59,2.222-26.329,3.77-4.336.77-8.63,1.79-13.005,2.753-4.356.967-8.727,1.91-13.11,2.8-8.77,1.752-17.578,3.347-26.438,4.616a392.293,392.293,0,0,1-53.5,4.232c-2.239.009-4.476.092-6.714.04l-6.714-.151c-4.478-.032-8.946-.35-13.415-.616-4.475-.191-8.925-.708-13.381-1.143-2.238-.247-4.43-.384-6.712-.739a58.116,58.116,0,0,1-6.7-1.446,50.491,50.491,0,0,1-23.341-13.852,42.736,42.736,0,0,1-11.5-24.47c-1.961-17.8-2.748-35.632-3.194-53.469q-.584-26.754-.146-53.5a.176.176,0,0,1,.352,0q.112,26.738,1.232,53.452c.789,17.79,1.762,35.613,3.973,53.228a40.289,40.289,0,0,0,11.166,22.956,47.915,47.915,0,0,0,22.208,12.906,55.221,55.221,0,0,0,6.373,1.318c2.126.315,4.39.443,6.583.665,4.42.393,8.832.869,13.269,1.019,4.431.225,8.86.5,13.3.5l6.655.093c2.218.033,4.437-.069,6.655-.1l6.654-.136,6.648-.343c4.435-.176,8.856-.564,13.28-.92,4.429-.288,8.832-.878,13.249-1.307,4.4-.549,8.811-1.092,13.2-1.75,8.788-1.274,17.526-2.874,26.234-4.63,4.353-.888,8.695-1.832,13.039-2.805,4.328-.962,8.709-2.01,13.15-2.807,8.811-1.577,17.667-2.935,26.6-3.857a152.744,152.744,0,0,1,27.033-.795l3.417.373,3.421.577,3.2.575c1.071.124,2.137.307,3.211.387a46.566,46.566,0,0,0,12.823-.523,34.833,34.833,0,0,0,6.112-1.715,21.725,21.725,0,0,0,2.8-1.3,12.009,12.009,0,0,0,1.184-.773c.371-.3.753-.637,1.14-1,3.082-2.981,6.039-6.375,8.916-9.7a1.727,1.727,0,0,1,1.361-.6l.085,0a11.015,11.015,0,0,0,4.238-.518,12.93,12.93,0,0,0,3.8-2.181,19.493,19.493,0,0,0,3.1-3.382,22.467,22.467,0,0,0,2.32-3.985l0-.009a1.714,1.714,0,0,1,1.35-1.011,21.52,21.52,0,0,0,7.647-2.168,8.7,8.7,0,0,0,4.523-5.51,8.99,8.99,0,0,0,.2-3.669,6.885,6.885,0,0,0-1.153-3.157,1.654,1.654,0,0,0-1.007-.6,6.372,6.372,0,0,0-1.713-.094c-1.3.067-2.724.291-4.136.5-2.84.443-5.725.9-8.612,1.264a40.891,40.891,0,0,1-8.939.407,32.553,32.553,0,0,1-16.873-6.145l-.026-.019a1.317,1.317,0,0,1,.364-2.308,8.633,8.633,0,0,1,4.271-.171,29.37,29.37,0,0,1,3.659.836l3.429,1.075a25.007,25.007,0,0,0,3.316.8c2.162.369,4.516.328,5.673-.878,1.22-1.189,1.3-3.542,1.239-5.891a5.125,5.125,0,0,0-.032-.8,1.393,1.393,0,0,0-.126-.563,3.467,3.467,0,0,0-.7-1.143,9.64,9.64,0,0,0-2.492-1.942,16.916,16.916,0,0,0-6.258-2.127,32.858,32.858,0,0,1-7.209-1.618c-2.3-.7-4.583-1.443-6.854-2.206L411,454.226a27.9,27.9,0,0,0-6.744-1.029,34.93,34.93,0,0,0-13.592,2.59,68.727,68.727,0,0,0-23.08,16l-.024.025a.757.757,0,0,1-.54.225l-48.91-.165c-16.3-.019-32.607-.108-48.91-.027l-48.909.134c-.528-.008-.978.032-1.57-.015a6.357,6.357,0,0,1-.937-.154l-.857-.4a7.011,7.011,0,0,1-2.184-2.617,23.464,23.464,0,0,1-1.881-6.025,86.091,86.091,0,0,1-1.226-12.281,232.874,232.874,0,0,1,.54-24.552l.741,1.085a243.6,243.6,0,0,1-24.724-8.628,218.015,218.015,0,0,1-23.541-11.52c-7.643-4.2-14.918-9.077-22.669-12.52l-2.939-1.165-3-.939c-1.022-.264-2.047-.518-3.053-.7a10.652,10.652,0,0,0-2.785-.223c-.125.032-.343.058-.313.076l-.02-.005a.159.159,0,0,0,.08-.049c.015-.048.117-.118.135-.222.053-.417,0-.026.23.292a12.31,12.31,0,0,0,1.772,2.227,47.583,47.583,0,0,0,4.7,4.169l.014.011a1.537,1.537,0,0,1-1.145,2.733,17.334,17.334,0,0,1-9.448-4.284,14.909,14.909,0,0,1-3.277-4.192,9.56,9.56,0,0,1-.955-2.717,4.395,4.395,0,0,1,.048-1.859,2.99,2.99,0,0,1,.661-1.22c.035-.1.012-.009.125-.213.69-1.192,1.39-2.7,2.051-4.11l1.96-4.342,3.794-8.779c1.245-2.952,2.514-5.854,3.582-8.807,1.111-2.958,1.938-5.952,2.945-9.035l2.927-9.181c1.023-3.045,2.235-6.029,3.343-9.045a160.7,160.7,0,0,1,17.718-34.268,95.771,95.771,0,0,1,5.944-7.68,77.547,77.547,0,0,1,6.89-6.893c.614-.535,1.207-1.093,1.839-1.609l1.961-1.471a40.665,40.665,0,0,1,4.073-2.74,30.008,30.008,0,0,1,9.244-3.818l-.222.053a73.121,73.121,0,0,1,16.955-2.744c5.668-.373,11.334-.526,16.994-.5,11.322.024,22.614.6,33.89,1.5l-.435.146a58.326,58.326,0,0,0,6.048-7.2l2.8-3.845a11.73,11.73,0,0,1,3.419-3.489,10.438,10.438,0,0,1,4.609-1.613,17.6,17.6,0,0,1,4.837.1,23.57,23.57,0,0,1,8.926,3.456.176.176,0,1,1-.186.3Z" transform="translate(26.161 100.761)" fill="#fff"/>
    <path id="Path_70" data-name="Path 70" d="M169.818,275.7a12.946,12.946,0,0,1,5.767,3.447,17.79,17.79,0,0,1,3.848,5.63,18.394,18.394,0,0,1,1.508,6.624,18.744,18.744,0,0,1-.172,3.361A18.383,18.383,0,0,1,179.9,298c-.39-1.088-.566-2.137-.853-3.163-.308-1.02-.492-2.034-.834-3a46.756,46.756,0,0,0-2-5.658,40.625,40.625,0,0,0-2.764-5.3,50.93,50.93,0,0,0-3.625-5.182Z" transform="translate(62.491 115.337)" fill="#fff"/>
    <path id="Path_71" data-name="Path 71" d="M175.07,299.663c.677,7.805,1.008,15.609,1.216,23.411.23,7.8.255,15.6.24,23.405-.081,7.8-.206,15.6-.536,23.4-.308,7.8-.741,15.6-1.523,23.394-.682-7.806-1.014-15.609-1.222-23.411-.229-7.8-.254-15.6-.235-23.405.085-7.8.21-15.6.541-23.4C173.861,315.257,174.292,307.459,175.07,299.663Z" transform="translate(64.909 133.511)" fill="#fff"/>
    <path id="Path_72" data-name="Path 72" d="M265.845,270.348q9.66,6.044,18.965,12.59,4.657,3.269,9.238,6.655l4.545,3.472a19.7,19.7,0,0,1,2.246,1.966l1.08,1.128.909,1.153a85.682,85.682,0,0,1,6.432,9.556q2.913,4.916,5.671,9.9,5.449,10.006,11.223,19.788,2.888,4.9,5.887,9.726l2.99,4.828a25.3,25.3,0,0,0,3.141,4.411c1.274,1.25,2.791,2.488,4.111,4.044a9.628,9.628,0,0,1,2.66,6.007,8.968,8.968,0,0,1-2.808,6.069,29.9,29.9,0,0,1-2.266,2.065c-.708.571-1.4,1.169-2.068,1.787-1.353,1.243-2.6,2.548-3.864,3.953-1.289,1.424-2.623,2.806-3.978,4.172a92.128,92.128,0,0,1-8.692,7.651,49.633,49.633,0,0,1-10.1,6.054,23.552,23.552,0,0,1-5.895,1.631,13.732,13.732,0,0,1-6.345-.552,1.375,1.375,0,0,1-.779-.6l-.011-.019c-1.32-2.186-2.765-4.367-4.227-6.5s-2.989-4.235-4.588-6.276a70.444,70.444,0,0,0-5.137-5.8,17.592,17.592,0,0,0-6.277-4.342l-.013,0a.176.176,0,0,1,.093-.338,17.024,17.024,0,0,1,7.03,3.736,52.408,52.408,0,0,1,5.794,5.464,107.943,107.943,0,0,1,9.89,12.432l-.79-.624a14.68,14.68,0,0,0,9.845-1.431,46.177,46.177,0,0,0,9.218-5.82,100.474,100.474,0,0,0,8.4-7.305c1.348-1.289,2.681-2.6,3.971-3.948,1.307-1.375,2.716-2.779,4.19-4.058.74-.644,1.5-1.27,2.282-1.867.71-.592,1.384-1.1,1.978-1.7a6.274,6.274,0,0,0,2.117-3.874,6.854,6.854,0,0,0-1.765-4.2c-1.077-1.386-2.437-2.641-3.758-4.149a14.025,14.025,0,0,1-.976-1.238l-.762-1.29-1.371-2.517L330.6,347.1q-2.654-5.031-5.421-9.991c-3.7-6.609-7.6-13.107-11.824-19.393-4.187-6.277-8.436-12.632-12.973-18.431l-.858-1.072-.895-.914a16.714,16.714,0,0,0-1.989-1.811l-4.42-3.512-8.925-7.008q-8.945-7-17.66-14.337a.176.176,0,0,1,.207-.285Z" transform="translate(135.107 111.261)" fill="#fff"/>
    <path id="Path_73" data-name="Path 73" d="M299.193,302.63c-3.078,11.567-5.985,23.163-8.412,34.8a136.064,136.064,0,0,0-2.611,17.5c-.166,2.829-.183,5.953-.432,8.98a52.128,52.128,0,0,1-1.543,9.142,48.76,48.76,0,0,1-8.724,16.247c-1.809,2.413-3.726,4.745-5.521,7.089-.863,1.164-1.739,2.319-2.514,3.564-.831,1.2-1.583,2.465-2.331,3.733a148.064,148.064,0,0,0-7.884,15.927c-2.434,5.441-4.532,11.031-6.583,16.657a146.317,146.317,0,0,1,12.068-33.916,60.929,60.929,0,0,1,4.781-7.816c1.773-2.452,3.589-4.791,5.3-7.21a46.3,46.3,0,0,0,8.021-15.218,48.68,48.68,0,0,0,1.51-8.5c.28-2.93.271-5.791.54-8.925a118.765,118.765,0,0,1,3.255-17.853,278.228,278.228,0,0,1,11.079-34.2Z" transform="translate(125.297 135.761)" fill="#fff"/>
    <path id="Path_74" data-name="Path 74" d="M308.377,327.395c3.869,3.005,7.535,6.206,11.259,9.187.941.725,1.88,1.439,2.8,2.066l1.533.913q.845.535,1.611,1.124A39.432,39.432,0,0,1,331,345.991a43.34,43.34,0,0,1,7.539,12.93,27.535,27.535,0,0,1,1.492,14.69,40.138,40.138,0,0,0-4-13.633,57.226,57.226,0,0,0-7.711-11.724,39.093,39.093,0,0,0-4.846-4.967c-.425-.378-.864-.725-1.3-1.049l-1.524-1.058a28.8,28.8,0,0,1-2.843-2.52A79.536,79.536,0,0,1,308.377,327.395Z" transform="translate(167.564 154.541)" fill="#fff"/>
    <path id="Path_75" data-name="Path 75" d="M286.3,342.643a38.324,38.324,0,0,1,6.911,15.68c.123.724.226,1.455.324,2.189.068.71.076,1.549.165,2.158a14.491,14.491,0,0,0,.881,3.63,35.822,35.822,0,0,0,3.748,7.079,62.077,62.077,0,0,0,4.924,6.553c.862,1.069,1.815,2.061,2.73,3.088.993.945,1.9,2,2.923,2.913a40.615,40.615,0,0,0,13.726,9.16,23.688,23.688,0,0,1-8.241-2.4,43.175,43.175,0,0,1-7.276-4.68A54.929,54.929,0,0,1,295.387,375.3a36.5,36.5,0,0,1-3.947-7.924,17.462,17.462,0,0,1-.813-4.616c-.046-.793-.025-1.365-.025-2.062l-.1-2.015a58.423,58.423,0,0,0-4.2-16.045Z" transform="translate(150.822 166.104)" fill="#fff"/>
    <path id="Path_76" data-name="Path 76" d="M308.377,376.459a17.8,17.8,0,0,1,2.313-6.41,27.2,27.2,0,0,1,4.172-5.461,29.96,29.96,0,0,1,5.406-4.215,30.664,30.664,0,0,1,3.009-1.611c1.053-.433,2.107-.854,3.18-1.205-1.866,1.294-3.7,2.538-5.451,3.892a53.426,53.426,0,0,0-4.962,4.32,44.141,44.141,0,0,0-4.26,4.983,33.656,33.656,0,0,0-3.406,5.707Z" transform="translate(167.564 177.415)" fill="#fff"/>
    <path id="Path_77" data-name="Path 77" d="M312,388.473a183.322,183.322,0,0,1,12.816-17.982q3.473-4.308,7.217-8.416a100.1,100.1,0,0,1,8.056-7.728,38.553,38.553,0,0,1,9.622-6.191,14.642,14.642,0,0,1,5.978-1.145,12.408,12.408,0,0,1,5.969,1.708,18.646,18.646,0,0,1,7.366,9.143,25.83,25.83,0,0,1,1.579,5.564,13.982,13.982,0,0,1-.117,5.969l-.563-1.233c3.956,2.018,7.765,4.2,11.542,6.479s7.491,4.637,11.076,7.2a64.053,64.053,0,0,1,10.128,8.564,24.6,24.6,0,0,1,3.916,5.516,9.38,9.38,0,0,1,.759,6.982l.019-.064a9.936,9.936,0,0,1-3.072,4.994,7.169,7.169,0,0,1-5.887,1.435,14.95,14.95,0,0,1-5.33-2.225,33.874,33.874,0,0,1-4.383-3.409l2.355-1.018a19.325,19.325,0,0,1-1.521,7.01,17.444,17.444,0,0,1-4.047,5.951,18.915,18.915,0,0,1-6.044,3.846,27.259,27.259,0,0,0-2.767,1.39,10.652,10.652,0,0,0-1.184.786,3.266,3.266,0,0,0-.4.358c-.095.081-.069.177.016-.136l-.6-1.683a11.5,11.5,0,0,1,2.67,3.388,9.067,9.067,0,0,1,0,8.607,12.7,12.7,0,0,1-2.526,3.37,13.509,13.509,0,0,1-7.469,3.554,26.734,26.734,0,0,1-3.919.182,13.518,13.518,0,0,1-4.148-.659l1.244,0a66.188,66.188,0,0,1-12.566,2.589A59.732,59.732,0,0,1,335,441.108a24.232,24.232,0,0,1-6.453-1.524,8.581,8.581,0,0,1-4.991-5.125,9.685,9.685,0,0,1,.787-6.933,11.865,11.865,0,0,1,1.912-2.837,5.2,5.2,0,0,1,3.3-1.895l-.146.017a14.317,14.317,0,0,1,1.852-.155,15.55,15.55,0,0,1,1.825.066,10.339,10.339,0,0,1,3.578.956l-.906,1.059a14.1,14.1,0,0,1-1.3-3.145,10.818,10.818,0,0,1-.417-3.362,6.951,6.951,0,0,1,.943-3.256,7.359,7.359,0,0,1,2.334-2.364.176.176,0,0,1,.244.049.181.181,0,0,1-.039.237,6.841,6.841,0,0,0-1.949,2.4,6.324,6.324,0,0,0-.6,2.95,9.773,9.773,0,0,0,.618,2.987,12.883,12.883,0,0,0,1.379,2.715.721.721,0,0,1-.849,1.081l-.057-.022a9.847,9.847,0,0,0-3.1-.594,13.948,13.948,0,0,0-1.617.036,12.689,12.689,0,0,0-1.571.222l-.07.011-.076.007a3.714,3.714,0,0,0-1.824,1.374,9.74,9.74,0,0,0-1.415,2.4,7.287,7.287,0,0,0-.357,5.18,5.9,5.9,0,0,0,3.612,3.326,21.588,21.588,0,0,0,5.671,1.1,56.488,56.488,0,0,0,12.058-.37,63.131,63.131,0,0,0,11.742-2.608,1.936,1.936,0,0,1,1.2-.009l.044.014a17.98,17.98,0,0,0,6.292.255,9.764,9.764,0,0,0,5.407-2.54,7.566,7.566,0,0,0,2.565-5,5.747,5.747,0,0,0-.629-2.662,8.263,8.263,0,0,0-1.721-2.315l-.125-.115a1.6,1.6,0,0,1-.472-1.568,3.23,3.23,0,0,1,.858-1.537,6.663,6.663,0,0,1,.838-.738,14.014,14.014,0,0,1,1.588-1.015,30.528,30.528,0,0,1,3.173-1.517,15.608,15.608,0,0,0,5.127-3.1,15.185,15.185,0,0,0,3.481-4.823,16.667,16.667,0,0,0,1.5-5.8l.006-.1a1.388,1.388,0,0,1,2.349-.914,32.992,32.992,0,0,0,3.905,3.279A12.6,12.6,0,0,0,398.843,407a4.962,4.962,0,0,0,4.193-.761,7.971,7.971,0,0,0,2.61-3.839l.02-.065a7.759,7.759,0,0,0-.42-5.8,19.767,19.767,0,0,0-3.515-5.282,60.054,60.054,0,0,0-9.808-8.538,133.886,133.886,0,0,0-22.881-12.659,1.022,1.022,0,0,1-.58-1.16l.017-.073a12.123,12.123,0,0,0-.229-4.951,23.323,23.323,0,0,0-1.7-4.919,16.755,16.755,0,0,0-6.449-7.53,10.463,10.463,0,0,0-9.258-.358,36.538,36.538,0,0,0-8.888,5.57,98.448,98.448,0,0,0-8.046,7.268c-2.594,2.546-5.1,5.2-7.541,7.915-4.845,5.465-9.561,11.079-14.084,16.857a.176.176,0,0,1-.246.035.18.18,0,0,1-.043-.234Z" transform="translate(170.29 169.415)" fill="#fff"/>
    <path id="Path_78" data-name="Path 78" d="M332.294,355.354a40.2,40.2,0,0,0,1.234,9.651,13.971,13.971,0,0,0,1.955,4.179,5.819,5.819,0,0,0,3.5,2.363,9.134,9.134,0,0,0,4.459-.05,12.439,12.439,0,0,0,4.232-1.863,26.518,26.518,0,0,0,6.791-6.856,20,20,0,0,1-5.993,7.973,11.815,11.815,0,0,1-9.913,2.5,7.433,7.433,0,0,1-4.426-3.1,13.876,13.876,0,0,1-1.936-4.825A26.468,26.468,0,0,1,332.294,355.354Z" transform="translate(185.305 175.744)" fill="#fff"/>
    <path id="Path_79" data-name="Path 79" d="M346.79,373.043a18.957,18.957,0,0,1,9.424,2.906A21.6,21.6,0,0,1,360.155,379a19.275,19.275,0,0,1,3.09,3.872c-1.251-1.083-2.454-2.158-3.733-3.134a38.96,38.96,0,0,0-3.946-2.72,37.587,37.587,0,0,0-4.238-2.237,38.305,38.305,0,0,0-4.537-1.742Z" transform="translate(196.695 189.158)" fill="#fff"/>
    <path id="Path_80" data-name="Path 80" d="M325.848,390.989a10.586,10.586,0,0,0,2.649,1.948c.951.552,1.918,1.071,2.9,1.577,1.955,1.005,3.939,1.968,5.934,2.914,3.976,1.93,8,3.776,11.891,6.053a60.667,60.667,0,0,1-12.653-4.47,47.309,47.309,0,0,1-5.871-3.323A14.133,14.133,0,0,1,325.848,390.989Z" transform="translate(180.814 202.767)" fill="#fff"/>
    <path id="Path_81" data-name="Path 81" d="M346.772,377.38a5.585,5.585,0,0,1,1.765,1.517,2.931,2.931,0,0,1,.619,2.412,3.932,3.932,0,0,1-1.485,2.079,9.5,9.5,0,0,1-2.095,1.219,7.934,7.934,0,0,0-.993.5,7.288,7.288,0,0,0-.872.5l-.759.665a6.891,6.891,0,0,0-.629.792,7.5,7.5,0,0,0-1.388,3.8,6.941,6.941,0,0,0,3.268,6.954,3.1,3.1,0,0,0,.943.43c.332.109.656.257,1,.347a15.337,15.337,0,0,0,2.156.26,18,18,0,0,0,2.232-.078c.739-.13,1.49-.24,2.257-.339-.707.279-1.431.548-2.166.8a18.7,18.7,0,0,1-2.292.482,15.029,15.029,0,0,1-2.393.012,10.662,10.662,0,0,1-1.193-.276,4.044,4.044,0,0,1-1.165-.411,7.3,7.3,0,0,1-3.555-3.464,9.247,9.247,0,0,1,.967-9.508,8.45,8.45,0,0,1,.844-.944l1-.786a12.626,12.626,0,0,1,2.22-1.008,5.336,5.336,0,0,0,3.272-2.275,2.261,2.261,0,0,0-.19-1.924,6.935,6.935,0,0,0-1.372-1.763Z" transform="translate(190.893 192.447)" fill="#fff"/>
    <path id="Path_82" data-name="Path 82" d="M335.4,358.208a16.9,16.9,0,0,0,.844,2.707,4.665,4.665,0,0,0,1.518,2.11,2.952,2.952,0,0,0,2.426.458,9.655,9.655,0,0,0,1.337-.343c.44-.168.873-.364,1.341-.518-.367.314-.77.588-1.165.888a9.522,9.522,0,0,1-1.37.6,3.47,3.47,0,0,1-3.056-.407,4.847,4.847,0,0,1-1.635-2.577,7.642,7.642,0,0,1-.24-2.918Z" transform="translate(188.02 177.908)" fill="#fff"/>
    <path id="Path_83" data-name="Path 83" d="M336.291,357.726a10.3,10.3,0,0,1,2.9-.389,9.785,9.785,0,0,1,2.942.468,5,5,0,0,1,2.472,1.792,4.051,4.051,0,0,1,.513,2.917,5.245,5.245,0,0,0-1.028-2.531,4.843,4.843,0,0,0-2.237-1.391,20.367,20.367,0,0,0-5.564-.867Z" transform="translate(188.733 177.247)" fill="#fff"/>
    <path id="Path_84" data-name="Path 84" d="M343.937,388.657a4.5,4.5,0,0,1,1.538-1.766,3.178,3.178,0,0,1,2.435-.5,4.1,4.1,0,0,1,2.01,1.422c.209.34.428.668.607,1.011.134.37.29.723.395,1.094-.515-.586-.97-1.17-1.484-1.679a4,4,0,0,0-1.723-1.035,2.756,2.756,0,0,0-1.928.25A8.769,8.769,0,0,0,343.937,388.657Z" transform="translate(194.531 199.23)" fill="#fff"/>
    <path id="Path_85" data-name="Path 85" d="M326.381,392.216a9.311,9.311,0,0,1,1.028-3.951,2.8,2.8,0,0,1,1.684-1.449,2.607,2.607,0,0,1,2.188.581,5.807,5.807,0,0,1,1.45,1.6,3.079,3.079,0,0,1,.367,2.177,4.807,4.807,0,0,1-2.736,3.017,5.464,5.464,0,0,0,2.1-3.128,2.741,2.741,0,0,0-.388-1.679,5.107,5.107,0,0,0-1.287-1.311,1.84,1.84,0,0,0-1.523-.516,2.434,2.434,0,0,0-1.315,1.051,13.986,13.986,0,0,0-1.57,3.61Z" transform="translate(181.218 199.567)" fill="#fff"/>
    <path id="Path_86" data-name="Path 86" d="M317.123,384.969a9.31,9.31,0,0,1-1.131,3.923,2.8,2.8,0,0,1-1.721,1.405,2.607,2.607,0,0,1-2.172-.638,5.8,5.8,0,0,1-1.407-1.635,3.078,3.078,0,0,1-.31-2.186,4.806,4.806,0,0,1,2.814-2.945,5.462,5.462,0,0,0-2.183,3.072,2.74,2.74,0,0,0,.344,1.689A5.1,5.1,0,0,0,312.609,389a1.84,1.84,0,0,0,1.509.556,2.434,2.434,0,0,0,1.342-1.016,14,14,0,0,0,1.664-3.568Z" transform="translate(169.026 196.627)" fill="#fff"/>
    <path id="Path_87" data-name="Path 87" d="M321.341,398.778a9.775,9.775,0,0,1,1.5-2.631,5.049,5.049,0,0,1,1.147-1.089,1.922,1.922,0,0,1,1.775-.276,2.417,2.417,0,0,1,1.1,1.353,5.663,5.663,0,0,1,.354,1.526,9.186,9.186,0,0,1-.133,3.024,24.737,24.737,0,0,0-.5-2.909,9.475,9.475,0,0,0-.421-1.342c-.2-.384-.44-.8-.742-.888-.571-.312-1.46.393-2.111,1.033a29.278,29.278,0,0,0-1.97,2.2Z" transform="translate(177.395 205.563)" fill="#fff"/>
    <path id="Path_88" data-name="Path 88" d="M314.2,370.649l-7.1,7.825s.053,10-5.011,10.427c0,0-2.567,2.321-.739,2.8,1.635.4,7.526-1.055,10.075-.756,0,0,12.08-2.391,14.137-1.09a5.154,5.154,0,0,1,2.233,3.71l.985-.106,38.1,2.268,16.528-25.074ZM363.292,388.2l-53.471-.9,6.981-11.236h53.577Z" transform="translate(161.734 187.343)" fill="#e24444"/>
    <path id="Path_89" data-name="Path 89" d="M283.452,382.738a19.887,19.887,0,0,1,6.864-3.215,23.458,23.458,0,0,1,7.7-.666.881.881,0,1,1-.132,1.757,1.018,1.018,0,0,1-.108-.015,22.151,22.151,0,0,0-7.289-.214A19.455,19.455,0,0,0,283.452,382.738Z" transform="translate(148.663 193.511)" fill="#fff"/>
    <path id="Path_90" data-name="Path 90" d="M291.669,391.578c4.947.092,9.894.264,14.842.734,1.224.109,2.5.309,3.687.447a20.416,20.416,0,0,0,3.6.072,21.259,21.259,0,0,0,6.892-1.654l.058-.026a.88.88,0,0,1,.71,1.61l-.049.02a22.637,22.637,0,0,1-7.56,1.367,21.663,21.663,0,0,1-3.8-.3c-1.264-.225-2.415-.478-3.647-.663C301.531,392.428,296.6,391.962,291.669,391.578Z" transform="translate(154.894 202.833)" fill="#fff"/>
    <path id="Path_91" data-name="Path 91" d="M293.837,400.414q2.516-.907,5.085-1.689a41.517,41.517,0,0,1,5.287-1.3.883.883,0,0,1,.281,1.743.913.913,0,0,1-.141.011h-.017a40.334,40.334,0,0,0-5.227.4C297.348,399.813,295.59,400.093,293.837,400.414Z" transform="translate(156.539 207.643)" fill="#fff"/>
    <path id="Path_92" data-name="Path 92" d="M297.6,373.854a11.01,11.01,0,0,0,3.125,2.266,17.356,17.356,0,0,0,3.7,1.225,5.851,5.851,0,0,1-2.056.106,7.044,7.044,0,0,1-2.009-.582,6.627,6.627,0,0,1-1.689-1.247A4.368,4.368,0,0,1,297.6,373.854Z" transform="translate(159.395 189.773)" fill="#fff"/>
    <path id="Path_93" data-name="Path 93" d="M313.629,393.145a1.758,1.758,0,0,1-.016-3.517l22.274-.209a1.724,1.724,0,0,1,1.775,1.741,1.758,1.758,0,0,1-1.742,1.775l-22.274.21Z" transform="translate(170.208 201.575)" fill="#fff"/>
    <path id="Path_94" data-name="Path 94" d="M348.435,392.765a1.758,1.758,0,0,1,0-3.517l61.4-.081h0a1.758,1.758,0,0,1,0,3.517l-61.4.081Z" transform="translate(196.607 201.385)" fill="#fff"/>
    <path id="Path_95" data-name="Path 95" d="M580.247,392.451a1.758,1.758,0,0,1,0-3.517l56.434-.069h0a1.758,1.758,0,0,1,0,3.517l-56.433.069Z" transform="translate(372.398 201.157)" fill="#fff"/>
    <path id="Path_96" data-name="Path 96" d="M398.676,390.749H394.5a.424.424,0,0,1-.425-.417.412.412,0,0,1,.411-.417h4.188a.417.417,0,1,1,0,.835Z" transform="translate(232.553 201.952)" fill="#fff"/>
    <path id="Path_97" data-name="Path 97" d="M89.178,395.457a1.758,1.758,0,0,1-.016-3.517l77.415-.72a1.807,1.807,0,0,1,1.775,1.741,1.759,1.759,0,0,1-1.742,1.776l-77.415.719Z" transform="translate(0 202.943)" fill="#fff"/>
    <path id="Path_98" data-name="Path 98" d="M255.51,257.376a2.51,2.51,0,1,0-2.423-2.508,2.51,2.51,0,0,0,2.423,2.508Z" transform="translate(125.637 97.639)" fill="#fff"/>
    <path id="Path_99" data-name="Path 99" d="M361.542,228.255l-20.535.765c-6.737.2-13.4.368-20.022.491-6.614.092-13.205.2-19.77.123-6.568-.049-13.135-.343-19.768-.526l.976-.977c-.106,3.789-.277,7.579-.328,11.368-.093,3.789-.1,7.579-.119,11.368-.005,7.578.154,15.157.368,22.736l-.9-.9,16.387-.455a1.259,1.259,0,0,1,.908.35l.048.046,6.258,6.019H302.9l6.052-6.225a1.583,1.583,0,0,1,1.122-.481h.041c8.592-.071,17.185-.247,25.777-.231q6.444-.032,12.888.053l12.888.163-1.66,1.66c.118-7.386.331-14.773.637-22.312Zm.248-.249.9,22.437c.306,7.618.519,15.388.637,23.16a1.635,1.635,0,0,1-1.61,1.66h-.05l-12.888.163q-6.444.077-12.888.053c-8.592.016-17.185-.161-25.777-.231l1.163-.481-6.225,6.052-.037.036a1.492,1.492,0,0,1-2.11-.03l-.006-.006-6.019-6.258.956.4-16.387-.455h-.05a.872.872,0,0,1-.847-.9h0c.214-7.578.373-15.157.368-22.736-.023-3.79-.026-7.579-.119-11.368-.051-3.789-.223-7.579-.328-11.368a.949.949,0,0,1,.923-.975h.054c6.737-.183,13.539-.477,20.341-.526,6.805-.074,13.584.031,20.34.123,6.746.123,13.454.287,20.087.491Z" transform="translate(146.402 78.108)" fill="#fff"/>
    <path id="Path_100" data-name="Path 100" d="M563.943,180.381l-30.223.523-29.966.378-59.518.418-29.61-.1-29.594-.374c-19.747-.3-39.6-.448-59.433-.4l.566-.566.105,22.736.262,22.736-.933-.933c17.484-.238,34.967-.464,52.451-.585l52.451-.289c17.484-.135,34.967.02,52.451.016,17.484-.021,34.967.208,52.451.348h.024a1.416,1.416,0,0,1,1,.422l6.084,6.193h-1.931l6.207-6.07.023-.023a1.229,1.229,0,0,1,.874-.349l16.387.238-1.03,1.03c.12-7.462.218-14.924.424-22.486Zm.249-.249.481,22.609c.207,7.6.3,15.292.424,22.988a1.015,1.015,0,0,1-1,1.03h-.032L547.68,227l.9-.371-6.07,6.207a1.35,1.35,0,0,1-1.909.021l0,0-.02-.019-6.193-6.084,1.02.422c-17.484.14-34.967.37-52.451.348-17.484,0-34.967.152-52.451.016l-52.451-.289c-17.483-.121-34.967-.346-52.451-.585h-.024a.921.921,0,0,1-.91-.933l.262-22.736.1-22.736a.568.568,0,0,1,.567-.567c19.907.05,39.8-.094,59.8-.4l30.023-.374,30.008-.1,59.716.418,29.651.377Z" transform="translate(179.917 41.867)" fill="#fff"/>
    <path id="Path_101" data-name="Path 101" d="M431.851,125.21c-12.894.367-25.568.622-38.171.842-12.628.262-25.106.379-37.579.476s-24.855.02-37.266-.258c-12.418-.212-24.894-.559-37.412-.621l.563-.563c-.005,3.789-.059,7.579-.017,11.368l.069,11.368c.009,7.579.194,15.157.3,22.736l-.92-.92,16.387-.307a1.17,1.17,0,0,1,.835.328l.033.032,6.237,6.04h-1.932l6.061-6.216a1.427,1.427,0,0,1,1.008-.432h.035l30.472-.265c10.157-.081,20.315-.155,30.472-.139,20.314-.009,40.629.288,60.943.558l-1.321,1.321.54-22.413Zm.249-.249.657,22.537.54,23.06a1.291,1.291,0,0,1-1.26,1.321h-.061c-20.314.27-40.629.568-60.943.558-10.157.016-20.314-.058-30.472-.139l-30.472-.265,1.043-.432-6.216,6.061-.028.027a1.345,1.345,0,0,1-1.9-.024l0,0-6.04-6.237.868.359-16.387-.307h-.031a.9.9,0,0,1-.89-.92c.111-7.579.3-15.157.305-22.736l.069-11.368c.042-3.789-.012-7.579-.017-11.368a.564.564,0,0,1,.563-.564c12.574-.062,25.19-.409,37.864-.621,12.68-.278,25.387-.356,38.009-.258s25.234.214,37.7.476C407.483,124.339,419.9,124.595,432.1,124.962Z" transform="translate(146.426)" fill="#fff"/>
  </g>
</svg>
