<?xml version="1.0" encoding="utf-8"?>
<!-- Generator: Adobe Illustrator 26.0.1, SVG Export Plug-In . SVG Version: 6.00 Build 0)  -->
<svg version="1.1" id="Capa_2" xmlns="http://www.w3.org/2000/svg" xmlns:xlink="http://www.w3.org/1999/xlink" x="0px" y="0px"
	 viewBox="0 0 800 800" style="enable-background:new 0 0 800 800;" xml:space="preserve">
<style type="text/css">
	.st0{opacity:0.7;}
	
		.st1{clip-path:url(#SVGID_00000064350303410064611190000007290409280217899189_);fill:url(#SVGID_00000171712990028115469330000008806321488767489951_);}
	
		.st2{clip-path:url(#SVGID_00000151536912989696739800000004995209291502451371_);fill:url(#SVGID_00000158013877964768353360000008491751647616657341_);}
	
		.st3{clip-path:url(#SVGID_00000070077044809887678730000008196179695839253181_);fill:url(#SVGID_00000109746527787216407360000012270552970669682819_);}
	.st4{fill:#01A66F;}
	.st5{opacity:0.4;}
	.st6{fill:url(#SVGID_00000095299615306173964590000013180409274940336559_);}
	.st7{fill:url(#SVGID_00000107566988652415170550000013343758307866501823_);}
	.st8{fill:none;stroke:#FFFFFF;stroke-width:2.472;stroke-miterlimit:10;stroke-dasharray:4.944,4.944;}
	.st9{fill:#F4F6F9;}
	.st10{opacity:0.7;fill:url(#SVGID_00000017488198164998289270000002035059114558858682_);}
</style>
<g>
	<g>
		<g class="st0">
			<defs>
				<rect id="SVGID_1_" x="165.95" y="121.25" class="st0" width="73" height="557.5"/>
			</defs>
			<clipPath id="SVGID_00000040542535731656158280000010584935546690351249_">
				<use xlink:href="#SVGID_1_"  style="overflow:visible;"/>
			</clipPath>
			
				<radialGradient id="SVGID_00000158012822239773257050000004967317849751068824_" cx="-55111.707" cy="-40844.3438" r="2738.812" gradientTransform="matrix(0 0.1191 -0.0249 0 -772.492 6972.7529)" gradientUnits="userSpaceOnUse">
				<stop  offset="0" style="stop-color:#666666"/>
				<stop  offset="0.1923" style="stop-color:#7C7C7C;stop-opacity:0.8077"/>
				<stop  offset="0.5918" style="stop-color:#B3B3B3;stop-opacity:0.4082"/>
				<stop  offset="1" style="stop-color:#F2F2F2;stop-opacity:0"/>
			</radialGradient>
			
				<path style="clip-path:url(#SVGID_00000040542535731656158280000010584935546690351249_);fill:url(#SVGID_00000158012822239773257050000004967317849751068824_);" d="
				M244.54,734.61c37.72,0,68.31-145.81,68.3-325.67c0-179.85-30.58-325.66-68.3-325.66c-37.73,0-68.31,145.81-68.31,325.66
				C176.23,588.8,206.81,734.61,244.54,734.61z"/>
		</g>
		<g class="st0">
			<defs>
				
					<rect id="SVGID_00000051365583705553504430000008221770937844228536_" x="561.05" y="121.25" class="st0" width="73" height="557.5"/>
			</defs>
			<clipPath id="SVGID_00000006687000465942730970000003631309707492822435_">
				<use xlink:href="#SVGID_00000051365583705553504430000008221770937844228536_"  style="overflow:visible;"/>
			</clipPath>
			
				<radialGradient id="SVGID_00000058550683598704041880000010395195182134791832_" cx="-54869.6523" cy="-45741.2773" r="2738.8269" gradientTransform="matrix(0 -0.1191 0.0249 0 1694.4236 -6143.9243)" gradientUnits="userSpaceOnUse">
				<stop  offset="0" style="stop-color:#666666"/>
				<stop  offset="0.1923" style="stop-color:#7C7C7C;stop-opacity:0.8077"/>
				<stop  offset="0.5918" style="stop-color:#B3B3B3;stop-opacity:0.4082"/>
				<stop  offset="1" style="stop-color:#F2F2F2;stop-opacity:0"/>
			</radialGradient>
			
				<path style="clip-path:url(#SVGID_00000006687000465942730970000003631309707492822435_);fill:url(#SVGID_00000058550683598704041880000010395195182134791832_);" d="
				M555.46,65.39c-37.71,0-68.31,145.81-68.3,325.67c0,179.85,30.58,325.66,68.3,325.66c37.73,0,68.32-145.8,68.32-325.66
				C623.77,211.2,593.19,65.39,555.46,65.39z"/>
		</g>
	</g>
	<g>
		<defs>
			<rect id="SVGID_00000161631660376164448220000010627407596707139004_" x="96.77" y="140.52" width="606.47" height="158.77"/>
		</defs>
		<clipPath id="SVGID_00000085967030651031607750000006545427272235421868_">
			<use xlink:href="#SVGID_00000161631660376164448220000010627407596707139004_"  style="overflow:visible;"/>
		</clipPath>
		
			<radialGradient id="SVGID_00000029003715441839677160000005767513852837771668_" cx="-70167.8047" cy="-92575.1016" r="2265.6167" gradientTransform="matrix(0.1296 0 0 0.0543 9503.4785 5155.2007)" gradientUnits="userSpaceOnUse">
			<stop  offset="0" style="stop-color:#666666"/>
			<stop  offset="0.1923" style="stop-color:#7C7C7C;stop-opacity:0.8077"/>
			<stop  offset="0.5918" style="stop-color:#B3B3B3;stop-opacity:0.4082"/>
			<stop  offset="1" style="stop-color:#F2F2F2;stop-opacity:0"/>
		</radialGradient>
		
			<path style="clip-path:url(#SVGID_00000085967030651031607750000006545427272235421868_);fill:url(#SVGID_00000029003715441839677160000005767513852837771668_);" d="
			M703.23,128.37c0-67.96-131.41-123.07-293.5-123.07c-162.09,0-293.5,55.11-293.5,123.07c0,67.97,131.41,123.08,293.5,123.08
			C571.83,251.45,703.23,196.34,703.23,128.37z"/>
	</g>
	<g>
		<path class="st4" d="M566.85,123.48v17.04h46.29c0-17.21-17.97-36.32-30.38-36.32S566.85,110.71,566.85,123.48z"/>
		<path class="st4" d="M233.15,123.48v17.04h-46.29c0-17.21,17.97-36.32,30.38-36.32S233.15,110.71,233.15,123.48z"/>
	</g>
	<g class="st5">
		
			<linearGradient id="SVGID_00000078006938396792168010000003515811945737966510_" gradientUnits="userSpaceOnUse" x1="589.9884" y1="103.1227" x2="589.9884" y2="144.0879">
			<stop  offset="0" style="stop-color:#FFFFFF"/>
			<stop  offset="1" style="stop-color:#1D1D1B"/>
		</linearGradient>
		<path style="fill:url(#SVGID_00000078006938396792168010000003515811945737966510_);" d="M566.85,123.48v17.04h46.29
			c0-17.21-17.97-36.32-30.38-36.32S566.85,110.71,566.85,123.48z"/>
		
			<linearGradient id="SVGID_00000105398199670968601180000009389040407068794262_" gradientUnits="userSpaceOnUse" x1="210.011" y1="103.1227" x2="210.011" y2="144.0879">
			<stop  offset="0" style="stop-color:#FFFFFF"/>
			<stop  offset="1" style="stop-color:#1D1D1B"/>
		</linearGradient>
		<path style="fill:url(#SVGID_00000105398199670968601180000009389040407068794262_);" d="M233.15,123.48v17.04h-46.29
			c0-17.21,17.97-36.32,30.38-36.32S233.15,110.71,233.15,123.48z"/>
	</g>
	<path class="st4" d="M400,104.19H232.3c3.11,3.54,5.19,8.4,5.19,14.97v576.65l161.04-59.06l1.47-0.54l1.47,0.54l161.04,59.06
		V119.16c0.01-6.57,2.08-11.43,5.19-14.97H400z"/>
	<polyline class="st8" points="247.88,104.19 247.88,680.58 400,624.88 551.87,680.58 552.12,104.19 	"/>
	<g>
		<path class="st9" d="M387.29,163.9h7.29v38.71h-7.29V163.9z M390.61,180.57h12.38c0.87,0,1.64-0.2,2.3-0.6
			c0.67-0.4,1.19-0.96,1.56-1.69c0.37-0.73,0.56-1.56,0.56-2.5c0-0.96-0.18-1.81-0.55-2.54c-0.36-0.74-0.88-1.3-1.54-1.7
			c-0.67-0.4-1.44-0.6-2.33-0.6h-12.38v-7.03h12.19c2.41,0,4.54,0.49,6.38,1.48c1.84,0.98,3.26,2.37,4.27,4.17
			c1.01,1.79,1.52,3.87,1.52,6.23c0,2.36-0.51,4.43-1.52,6.22s-2.44,3.16-4.27,4.14s-3.96,1.46-6.38,1.46h-12.19V180.57z"/>
		<path class="st9" d="M392.58,266.67c-2.14-1.18-3.79-2.85-4.97-5.01s-1.76-4.65-1.76-7.49v-10.97c0-2.84,0.59-5.34,1.76-7.49
			c1.17-2.16,2.83-3.82,4.97-5c2.14-1.18,4.61-1.77,7.42-1.77c2.8,0,5.28,0.59,7.41,1.77s3.79,2.85,4.97,5
			c1.17,2.16,1.76,4.66,1.76,7.49v10.97c0,2.84-0.58,5.34-1.76,7.49s-2.83,3.83-4.97,5.01c-2.14,1.18-4.61,1.77-7.41,1.77
			C397.19,268.45,394.72,267.86,392.58,266.67z M403.46,260.31c0.99-0.56,1.76-1.35,2.3-2.38c0.54-1.03,0.81-2.22,0.81-3.57v-11.34
			c0-1.35-0.27-2.54-0.81-3.57c-0.54-1.03-1.31-1.82-2.3-2.38s-2.15-0.84-3.46-0.84c-1.31,0-2.47,0.28-3.46,0.84
			s-1.76,1.35-2.3,2.38c-0.54,1.03-0.81,2.22-0.81,3.57v11.34c0,1.35,0.27,2.54,0.81,3.57c0.54,1.03,1.31,1.82,2.3,2.38
			s2.15,0.84,3.46,0.84C401.31,261.15,402.47,260.87,403.46,260.31z"/>
		<path class="st9" d="M387.29,294.77h7.29v38.71h-7.29V294.77z M390.61,311.43h12.38c0.87,0,1.64-0.2,2.3-0.6
			c0.67-0.4,1.19-0.96,1.56-1.69c0.37-0.73,0.56-1.56,0.56-2.5c0-0.96-0.18-1.81-0.55-2.54c-0.36-0.74-0.88-1.3-1.54-1.7
			c-0.67-0.4-1.44-0.6-2.33-0.6h-12.38v-7.03h12.19c2.41,0,4.54,0.49,6.38,1.48c1.84,0.98,3.26,2.37,4.27,4.17
			c1.01,1.79,1.52,3.87,1.52,6.23c0,2.36-0.51,4.43-1.52,6.22s-2.44,3.16-4.27,4.14s-3.96,1.46-6.38,1.46h-12.19V311.43z"/>
		<path class="st9" d="M392.33,397.62c-2.11-1.13-3.72-2.77-4.82-4.93c-1.1-2.16-1.65-4.75-1.65-7.79V360.2h7.29v24.89
			c0,2.22,0.59,3.94,1.78,5.17c1.19,1.22,2.87,1.84,5.03,1.84c2.18,0,3.87-0.61,5.07-1.84c1.2-1.22,1.8-2.95,1.8-5.17V360.2h7.29
			v24.71c0,3.04-0.55,5.63-1.66,7.79c-1.11,2.16-2.72,3.8-4.85,4.93s-4.67,1.69-7.65,1.69
			C396.99,399.31,394.44,398.74,392.33,397.62z"/>
		<path class="st9" d="M388.63,425.63h7.29v38.71h-7.29V425.63z M391.88,457.31h22.68v7.03h-22.68V457.31z"/>
		<path class="st9" d="M397.68,491.06h4.63l14.8,38.71h-7.85L400,503.33l-9.27,26.44h-7.85L397.68,491.06z M389.99,516.54h20.37
			v7.03h-20.37V516.54z"/>
		<path class="st9" d="M386.49,556.46h7.29v38.74h-7.29V556.46z M389.39,572.6h13.47c0.75,0,1.4-0.19,1.97-0.56
			c0.57-0.37,1.01-0.91,1.32-1.6c0.31-0.69,0.47-1.49,0.49-2.4c0-0.91-0.16-1.7-0.47-2.4s-0.75-1.22-1.32-1.6
			c-0.57-0.37-1.23-0.56-2-0.56h-13.47v-7.03h14.06c2.13,0,4,0.48,5.62,1.44c1.62,0.96,2.87,2.31,3.75,4.06
			c0.89,1.75,1.33,3.78,1.33,6.08s-0.44,4.33-1.33,6.08c-0.89,1.75-2.14,3.1-3.77,4.06s-3.49,1.44-5.6,1.44h-14.06V572.6z
			 M397.54,578.43l7.8-1.22l10.44,18h-8.84L397.54,578.43z"/>
	</g>
	
		<linearGradient id="SVGID_00000056403725430443960530000010448789004428661395_" gradientUnits="userSpaceOnUse" x1="399.9997" y1="100.2655" x2="399.9997" y2="646.4813">
		<stop  offset="0" style="stop-color:#FFFFFF"/>
		<stop  offset="8.193475e-04" style="stop-color:#FDFDFD"/>
		<stop  offset="0.023" style="stop-color:#C7C7C7"/>
		<stop  offset="0.0395" style="stop-color:#A5A5A5"/>
		<stop  offset="0.0485" style="stop-color:#989898"/>
		<stop  offset="0.0904" style="stop-color:#AEAEAE"/>
		<stop  offset="0.1583" style="stop-color:#CBCBCB"/>
		<stop  offset="0.2307" style="stop-color:#E2E2E2"/>
		<stop  offset="0.3085" style="stop-color:#F2F2F2"/>
		<stop  offset="0.3956" style="stop-color:#FCFCFC"/>
		<stop  offset="0.5112" style="stop-color:#FFFFFF"/>
		<stop  offset="0.6469" style="stop-color:#F1F1F1"/>
		<stop  offset="0.9019" style="stop-color:#CDCDCD"/>
		<stop  offset="0.9064" style="stop-color:#CCCCCC"/>
	</linearGradient>
	<path style="opacity:0.7;fill:url(#SVGID_00000056403725430443960530000010448789004428661395_);" d="M400,104.19H232.3
		c3.11,3.54,5.19,8.4,5.19,14.97v576.65l161.04-59.06l1.47-0.54l1.47,0.54l161.04,59.06V119.16c0.01-6.57,2.08-11.43,5.19-14.97H400
		z"/>
</g>
</svg>
