<?xml version="1.0" encoding="utf-8"?>
<!-- Generator: Adobe Illustrator 26.0.1, SVG Export Plug-In . SVG Version: 6.00 Build 0)  -->
<svg version="1.1" id="Capa_2" xmlns="http://www.w3.org/2000/svg" xmlns:xlink="http://www.w3.org/1999/xlink" x="0px" y="0px"
	 viewBox="0 0 800 800" enable-background="new 0 0 800 800" xml:space="preserve">
<g>
	<g>
		<g opacity="0.7">
			<defs>
				<rect id="SVGID_1_" x="91.258" y="32.301" opacity="0.7" width="96.297" height="735.4"/>
			</defs>
			<clipPath id="SVGID_00000008142510813662373290000017887189039113685642_">
				<use xlink:href="#SVGID_1_"  overflow="visible"/>
			</clipPath>
			
				<radialGradient id="SVGID_00000127727559317257117620000011686567845396213406_" cx="-55087.7344" cy="-38851.9023" r="3612.8032" gradientTransform="matrix(0 0.1191 -0.0249 0 -772.492 6972.7529)" gradientUnits="userSpaceOnUse">
				<stop  offset="0" style="stop-color:#666666"/>
				<stop  offset="0.1923" style="stop-color:#7C7C7C;stop-opacity:0.8077"/>
				<stop  offset="0.5918" style="stop-color:#B3B3B3;stop-opacity:0.4082"/>
				<stop  offset="1" style="stop-color:#F2F2F2;stop-opacity:0"/>
			</radialGradient>
			
				<path clip-path="url(#SVGID_00000008142510813662373290000017887189039113685642_)" fill="url(#SVGID_00000127727559317257117620000011686567845396213406_)" d="
				M194.93,841.391c49.751,0,90.102-192.341,90.095-429.595c0-237.244-40.343-429.579-90.095-429.579
				c-49.771,0-90.114,192.334-90.114,429.579C104.816,649.05,145.16,841.391,194.93,841.391z"/>
		</g>
		<g opacity="0.7">
			<defs>
				
					<rect id="SVGID_00000156562871162783337570000002964374152088936837_" x="612.442" y="32.301" opacity="0.7" width="96.298" height="735.4"/>
			</defs>
			<clipPath id="SVGID_00000130621030598180954050000006151027125918446721_">
				<use xlink:href="#SVGID_00000156562871162783337570000002964374152088936837_"  overflow="visible"/>
			</clipPath>
			
				<radialGradient id="SVGID_00000071540020622969613210000016729676745211436445_" cx="-54845.6758" cy="-43748.8594" r="3612.822" gradientTransform="matrix(0 -0.1191 0.0249 0 1694.4236 -6143.9243)" gradientUnits="userSpaceOnUse">
				<stop  offset="0" style="stop-color:#666666"/>
				<stop  offset="0.1923" style="stop-color:#7C7C7C;stop-opacity:0.8077"/>
				<stop  offset="0.5918" style="stop-color:#B3B3B3;stop-opacity:0.4082"/>
				<stop  offset="1" style="stop-color:#F2F2F2;stop-opacity:0"/>
			</radialGradient>
			
				<path clip-path="url(#SVGID_00000130621030598180954050000006151027125918446721_)" fill="url(#SVGID_00000071540020622969613210000016729676745211436445_)" d="
				M605.066-41.39c-49.75,0-90.103,192.341-90.094,429.595c0,237.244,40.345,429.577,90.094,429.577
				c49.771,0,90.117-192.333,90.117-429.577C695.183,150.951,654.836-41.39,605.066-41.39z"/>
		</g>
	</g>
	<g>
		<defs>
			<rect id="SVGID_00000136410299262440826030000010371861792853926307_" x="0" y="57.712" width="800" height="209.438"/>
		</defs>
		<clipPath id="SVGID_00000162350765550428960750000018219925090334178978_">
			<use xlink:href="#SVGID_00000136410299262440826030000010371861792853926307_"  overflow="visible"/>
		</clipPath>
		
			<radialGradient id="SVGID_00000137849931721572288070000013737041563182100610_" cx="-70143.8438" cy="-94171.4141" r="2988.6047" gradientTransform="matrix(0.1296 0 0 0.0543 9503.4785 5155.2007)" gradientUnits="userSpaceOnUse">
			<stop  offset="0" style="stop-color:#666666"/>
			<stop  offset="0.1923" style="stop-color:#7C7C7C;stop-opacity:0.8077"/>
			<stop  offset="0.5918" style="stop-color:#B3B3B3;stop-opacity:0.4082"/>
			<stop  offset="1" style="stop-color:#F2F2F2;stop-opacity:0"/>
		</radialGradient>
		
			<path clip-path="url(#SVGID_00000162350765550428960750000018219925090334178978_)" fill="url(#SVGID_00000137849931721572288070000013737041563182100610_)" d="
			M800,41.687c0-89.651-173.339-162.346-387.165-162.342c-213.82,0-387.163,72.691-387.163,162.34
			c0,89.665,173.344,162.356,387.163,162.356C626.661,204.041,800,131.35,800,41.687z"/>
	</g>
	<g>
		<path fill="#01A66F" d="M620.088,35.24v22.471h61.056c0-22.699-23.703-47.916-40.076-47.916S620.096,18.395,620.088,35.24z"/>
		<path fill="#01A66F" d="M179.911,35.24v22.471h-61.056c0-22.699,23.703-47.916,40.076-47.916S179.903,18.395,179.911,35.24z"/>
	</g>
	<g opacity="0.4">
		
			<linearGradient id="SVGID_00000088130946606235497580000009567392714203326907_" gradientUnits="userSpaceOnUse" x1="650.6161" y1="8.3853" x2="650.6161" y2="62.423">
			<stop  offset="0" style="stop-color:#FFFFFF"/>
			<stop  offset="1" style="stop-color:#1D1D1B"/>
		</linearGradient>
		<path fill="url(#SVGID_00000088130946606235497580000009567392714203326907_)" d="M620.088,35.24v22.471h61.056
			c0-22.699-23.703-47.916-40.076-47.916S620.096,18.395,620.088,35.24z"/>
		
			<linearGradient id="SVGID_00000072243895524488890650000010630838543998060186_" gradientUnits="userSpaceOnUse" x1="149.3831" y1="8.3853" x2="149.3831" y2="62.423">
			<stop  offset="0" style="stop-color:#FFFFFF"/>
			<stop  offset="1" style="stop-color:#1D1D1B"/>
		</linearGradient>
		<path fill="url(#SVGID_00000072243895524488890650000010630838543998060186_)" d="M179.911,35.24v22.471h-61.056
			c0-22.699,23.703-47.916,40.076-47.916S179.903,18.395,179.911,35.24z"/>
	</g>
	<path fill="#01A66F" d="M400,9.795H178.785c4.101,4.669,6.841,11.081,6.846,19.742v760.668l212.436-77.912l1.933-0.71l1.934,0.71
		l212.434,77.912V29.539c0.008-8.662,2.743-15.075,6.846-19.744H400z"/>
	<polyline fill="none" stroke="#FFFFFF" stroke-width="3.2608" stroke-miterlimit="10" stroke-dasharray="6.5216,6.5216" points="
		199.342,9.795 199.342,770.115 400,696.639 600.339,770.115 600.66,9.795 	"/>
	<g>
		<path fill="#F4F6F9" d="M383.229,88.563h9.623v51.064h-9.623V88.563z M387.619,110.548h16.33c1.147,0,2.16-0.263,3.038-0.79
			c0.879-0.527,1.564-1.27,2.055-2.23c0.492-0.96,0.738-2.06,0.738-3.301c0-1.264-0.241-2.382-0.72-3.354
			c-0.481-0.971-1.159-1.721-2.037-2.248c-0.879-0.527-1.903-0.79-3.074-0.79h-16.33v-9.271h16.084c3.184,0,5.989,0.649,8.412,1.949
			c2.423,1.299,4.301,3.132,5.636,5.496c1.335,2.365,2.002,5.105,2.002,8.218c0,3.114-0.667,5.848-2.002,8.201
			c-1.335,2.353-3.213,4.174-5.636,5.461c-2.423,1.287-5.228,1.931-8.412,1.931h-16.084V110.548z"/>
		<path fill="#F4F6F9" d="M390.217,224.129c-2.822-1.557-5.005-3.758-6.55-6.603c-1.545-2.845-2.318-6.14-2.318-9.886v-14.47
			c0-3.745,0.773-7.041,2.318-9.886c1.545-2.844,3.728-5.045,6.55-6.602c2.821-1.557,6.081-2.336,9.781-2.336
			c3.698,0,6.959,0.779,9.78,2.336c2.821,1.557,5.005,3.758,6.55,6.602c1.546,2.845,2.317,6.141,2.317,9.886v14.47
			c0,3.746-0.772,7.041-2.317,9.886c-1.546,2.845-3.729,5.046-6.55,6.603c-2.821,1.557-6.082,2.335-9.78,2.335
			C396.299,226.464,393.039,225.686,390.217,224.129z M404.564,215.735c1.311-0.738,2.324-1.785,3.038-3.143
			c0.714-1.358,1.072-2.926,1.072-4.706v-14.961c0-1.779-0.358-3.348-1.072-4.706c-0.714-1.357-1.726-2.406-3.038-3.143
			c-1.311-0.737-2.833-1.106-4.565-1.106c-1.733,0-3.255,0.368-4.566,1.106c-1.311,0.738-2.324,1.786-3.038,3.143
			c-0.715,1.358-1.071,2.927-1.071,4.706v14.961c0,1.78,0.356,3.348,1.071,4.706c0.714,1.358,1.726,2.406,3.038,3.143
			c1.311,0.738,2.833,1.107,4.566,1.107C401.731,216.842,403.253,216.473,404.564,215.735z"/>
		<path fill="#F4F6F9" d="M383.229,261.185h9.623v51.064h-9.623V261.185z M387.619,283.17h16.33c1.147,0,2.16-0.263,3.038-0.79
			c0.879-0.527,1.564-1.27,2.055-2.23c0.492-0.96,0.738-2.06,0.738-3.301c0-1.264-0.241-2.382-0.72-3.354
			c-0.481-0.971-1.159-1.721-2.037-2.248c-0.879-0.527-1.903-0.79-3.074-0.79h-16.33v-9.271h16.084c3.184,0,5.989,0.649,8.412,1.949
			c2.423,1.299,4.301,3.132,5.636,5.496c1.335,2.365,2.002,5.104,2.002,8.218c0,3.114-0.667,5.848-2.002,8.201
			c-1.335,2.353-3.213,4.174-5.636,5.461c-2.423,1.287-5.228,1.931-8.412,1.931h-16.084V283.17z"/>
		<path fill="#F4F6F9" d="M389.884,396.856c-2.786-1.487-4.905-3.653-6.357-6.498c-1.452-2.844-2.177-6.269-2.177-10.273v-32.591
			h9.623v32.837c0,2.928,0.784,5.198,2.353,6.813c1.568,1.615,3.781,2.423,6.638,2.423c2.881,0,5.11-0.808,6.691-2.423
			c1.579-1.615,2.37-3.886,2.37-6.813v-32.837h9.623v32.591c0,4.004-0.732,7.428-2.195,10.273c-1.463,2.845-3.594,5.011-6.392,6.498
			c-2.798,1.487-6.163,2.23-10.098,2.23C396.03,399.086,392.67,398.343,389.884,396.856z"/>
		<path fill="#F4F6F9" d="M385.002,433.806h9.623v51.064h-9.623V433.806z M389.287,475.599h29.923v9.271h-29.923V475.599z"/>
		<path fill="#F4F6F9" d="M396.943,520.117h6.11l19.526,51.064h-10.36l-12.221-34.874l-12.222,34.874h-10.36L396.943,520.117z
			 M386.793,553.726h26.867v9.272h-26.867V553.726z"/>
		<path fill="#F4F6F9" d="M382.175,606.391h9.623v51.1h-9.623V606.391z M386.003,627.675h17.771c0.983,0,1.849-0.246,2.598-0.738
			c0.75-0.491,1.328-1.194,1.739-2.106c0.408-0.913,0.626-1.967,0.649-3.161c0-1.194-0.205-2.248-0.614-3.161
			c-0.41-0.913-0.989-1.615-1.739-2.108c-0.748-0.491-1.627-0.737-2.633-0.737h-17.771v-9.272h18.544
			c2.809,0,5.279,0.633,7.41,1.898c2.131,1.264,3.781,3.049,4.952,5.355c1.171,2.307,1.756,4.981,1.756,8.025
			c0,3.044-0.585,5.718-1.756,8.024c-1.171,2.307-2.828,4.093-4.97,5.356s-4.607,1.896-7.392,1.896h-18.544V627.675z
			 M396.75,635.365l10.29-1.616l13.767,23.742h-11.659L396.75,635.365z"/>
	</g>
</g>
<g>
</g>
<g>
</g>
<g>
</g>
<g>
</g>
<g>
</g>
<g>
</g>
</svg>
