<svg xmlns="http://www.w3.org/2000/svg" xmlns:xlink="http://www.w3.org/1999/xlink" id="svg" width="400" height="400" viewBox="0, 0, 400,400"><g id="svgg"><path id="path0" d="M93.200 94.861 C 91.330 95.056,88.990 95.351,88.000 95.517 L 86.200 95.818 86.096 116.142 L 85.993 136.465 87.230 136.193 C 126.473 127.574,164.052 148.694,172.985 184.389 C 185.265 233.461,142.289 278.151,92.000 268.605 C 90.130 268.250,88.015 267.855,87.300 267.727 L 86.000 267.495 86.000 287.730 L 86.000 307.964 87.300 308.187 C 93.403 309.233,109.775 309.564,117.200 308.790 C 181.331 302.109,225.402 241.485,211.553 179.000 C 199.550 124.846,149.164 89.025,93.200 94.861 M289.800 106.118 C 244.411 129.585,222.216 179.086,234.455 229.553 C 241.713 259.483,268.197 290.457,295.357 300.784 L 296.400 301.180 296.400 278.448 L 296.400 255.715 292.663 252.475 C 262.226 226.087,261.922 180.508,291.992 151.896 L 296.400 147.702 296.400 125.451 C 296.400 107.911,296.294 103.202,295.900 103.211 C 295.625 103.218,292.880 104.526,289.800 106.118 M86.800 200.856 L 86.800 254.912 94.300 254.688 C 111.375 254.178,122.061 246.530,126.283 231.800 C 127.296 228.265,127.574 177.519,126.610 171.936 C 123.857 155.982,111.793 146.826,93.500 146.807 L 86.800 146.800 86.800 200.856 " stroke="none" fill="#808080" fill-rule="evenodd"/></g></svg>