<svg xmlns="http://www.w3.org/2000/svg" width="530.551" height="596.95" viewBox="0 0 530.551 596.95">
  <g id="Group_829" data-name="Group 829" transform="translate(-1145 -262)">
    <g id="man-working-from-home" transform="translate(1450.797 540)">
      <path id="Path_484" data-name="Path 484" d="M389.912,261.981l22.395,9.367c-1.16.318-2.3.679-3.455,1.014l-3.411,1.1c-2.278.73-4.538,1.53-6.789,2.329-2.251.816-4.5,1.633-6.728,2.518-2.192.859-4.392,1.736-6.548,2.69-1.2-7.717-3.008-15.958-5.371-17.875Zm22.395,9.367v15.915c-4.142,1.925-13.423,4.967-25.136,8.456,0,0-.61-7.1-1.8-14.7,2.277-.636,4.537-1.349,6.772-2.088,2.277-.73,4.538-1.53,6.789-2.329,2.252-.816,4.5-1.633,6.729-2.518L409,272.758C410.1,272.285,411.216,271.847,412.307,271.348ZM251.6,279.762c.851-.258,1.684-.541,2.509-.877l-1.143,4.537a37.191,37.191,0,0,0-3.532-3.068C250.154,280.174,250.885,279.985,251.6,279.762Z" transform="translate(-223.479 -113.711)" fill="#080808"/>
      <path id="Path_485" data-name="Path 485" d="M323.413,276.309c-11.954-1.925-44.652-12.564-50.539-17.041-4.331-3.3-9.29-8.705-9.934-21.6q-1.417,8.8-2.913,17.608l-.034.206a8.659,8.659,0,0,1,2.337-.9,8.327,8.327,0,0,1,2.819-.223,8.2,8.2,0,0,1-2.621,1.057,8.454,8.454,0,0,1-2.561.241L257.62,269.28c2.14,1.452,4.262,2.913,6.359,4.417l3.3,2.355,3.274,2.4c2.183,1.6,4.374,3.18,6.522,4.83s4.322,3.24,6.454,4.916l.009.009a.317.317,0,0,1,.094.163c1.65-.473,3.317-.911,4.976-1.366l5.3-1.358c3.541-.894,7.09-1.719,10.63-2.578,3.566-.8,7.116-1.633,10.682-2.389s7.132-1.512,10.725-2.166c-3.506,1-7.047,1.908-10.579,2.8s-7.09,1.719-10.63,2.587c-3.558.791-7.107,1.624-10.673,2.389l-5.354,1.126c-1.693.327-3.377.67-5.07.98,0,.009.017.017.017.026.309,3.463.6,6.926.808,10.4-.542-3.386-1-6.78-1.435-10.183-2.174-1.538-4.3-3.137-6.445-4.7-2.192-1.581-4.34-3.231-6.5-4.855l-3.24-2.449-3.2-2.492c-2.037-1.573-4.048-3.188-6.041-4.821l-.688,4a.372.372,0,0,1-.43.3.159.159,0,0,1-.06-.017l-9.315-3.24a.416.416,0,0,1-.258-.481l1.822-7.167a38.333,38.333,0,0,1-4.572-2.939c-1.143.825-2.269,1.659-3.42,2.475-1.255.868-2.492,1.762-3.764,2.621,1.169-.988,2.355-1.951,3.541-2.922,1.1-.9,2.217-1.779,3.334-2.664a.5.5,0,0,1,.06-.18c-.662-2.544-1.246-5.1-1.856-7.666-.645-2.647-1.237-5.311-1.813-7.975-.6-2.664-1.177-5.328-1.71-8.009-.559-2.673-1.074-5.345-1.556-8.035.739,2.63,1.444,5.268,2.1,7.915.688,2.638,1.323,5.294,1.942,7.949.636,2.655,1.255,5.311,1.822,7.975.559,2.527,1.126,5.053,1.641,7.588.92-.215,1.839-.412,2.767-.576.894-.155,1.788-.275,2.7-.352l1.005-3.944,4.09-15.907.009-.026v-.009a28.7,28.7,0,0,0,1.211-4.271,9.071,9.071,0,0,0-.026-4.3,3.927,3.927,0,0,0-1.134-1.736,7.7,7.7,0,0,0-.877-.636l-.481-.318-.249-.206c-.034-.009-.06-.034-.155-.069a28.46,28.46,0,0,0-4.383-.645c-5.981-.541-11.988-.859-17.986-1.186,3,.043,6.007.129,9.014.241s6.007.232,9.015.464c.748.06,1.5.129,2.252.215a12.374,12.374,0,0,1,2.286.4,1.114,1.114,0,0,1,.344.18l.189.155.464.292a7.677,7.677,0,0,1,.954.67,4.514,4.514,0,0,1,1.341,1.977,9.8,9.8,0,0,1,.129,4.623,27.286,27.286,0,0,1-1.2,4.383l-4,15.907-3.97,15.554,8.542,3.025,3.274-17.557q1.663-8.791,3.394-17.574a81.24,81.24,0,0,1,1.186-16.843l-15.735-1.65a7.694,7.694,0,0,1-4.3-1.813,35.87,35.87,0,0,1-3.824-.773c-.326-.077-.653-.163-.98-.266-.163-.052-.326-.1-.5-.163a.222.222,0,0,0-.06-.017h-.026a1,1,0,0,0-.172.034,9.964,9.964,0,0,0-1.753.739c-1.186.576-2.354,1.212-3.54,1.813-1.177.627-2.381,1.22-3.6,1.787a38.569,38.569,0,0,1,6.763-4.374,10.8,10.8,0,0,1,1.96-.765,1.83,1.83,0,0,1,.335-.034,1.3,1.3,0,0,1,.4.086c.138.069.292.12.439.18l.937.344c1.195.421,2.389.868,3.575,1.358-1.246-1.186-2.14-3.1-1.615-6.23l.8-21.218L240,189.153s-2.372.533,2.312-12.994l7.485-21.527s-29.4,3.627-30.464,4.692,6.179,72.874,16.2,107.18c0,0,45.6,32.6,48.365,33.67,1.349.507,26.623-5.551,54.234-12.83C338.133,287.344,335.358,278.234,323.413,276.309ZM227.044,175.446c-.7-4.228-1.366-8.456-1.951-12.7.928,4.185,1.77,8.387,2.6,12.59s1.582,8.422,2.372,12.633c.722,4.219,1.487,8.439,2.174,12.667l1.023,6.342c.31,2.123.645,4.237.928,6.359-.472-2.088-.894-4.185-1.349-6.282l-1.255-6.308c-.825-4.2-1.573-8.422-2.363-12.633-.722-4.219-1.487-8.43-2.174-12.667Zm79.448-49.791c-1.564,0-3.558.851-5.543,1.28s-6.531-.43-6.961-1.7-3.111-11.833-3.549-11.335-1.28,1.384-1.28,1.384-.146,12.856.137,14.24,5.543,8.353,13.354,7.64,8.955-9.943,8.955-9.943S308.047,125.655,306.492,125.655Zm1.289,3.816a3.187,3.187,0,0,1-1.916.464,4.248,4.248,0,0,1-1.848-.584,4.146,4.146,0,0,1-1.367-1.28,9.729,9.729,0,0,0,3.266,1.014,3.8,3.8,0,0,0,1.573-.215,8.376,8.376,0,0,0,1.556-.8,3.255,3.255,0,0,1-1.263,1.4Z" transform="translate(-219.232 -92.882)" fill="#080808"/>
      <path id="Path_486" data-name="Path 486" d="M299.95,111.849s7.1-6.677,6.534-14.916c0,0,1.847-1.7,4.83,1.136,0,0,2.557.71,5.54-2.415s4.546,1.421,4.546,1.421,1.563,4.83,1.989,3.551a7.55,7.55,0,0,0-5.256-9.376,43.383,43.383,0,0,0-15.342-1.7c-1.7.284-5.256,3.125-5.256,7.1s-1.7,8.949-1.563,10.512S299.95,111.849,299.95,111.849Zm6.393-1.7a9.756,9.756,0,0,1,4.326-.606,8.613,8.613,0,0,1,2.166.472,5.957,5.957,0,0,1,1.889,1.128,13.132,13.132,0,0,0-2.025-.687,14.9,14.9,0,0,0-2.08-.324A29.664,29.664,0,0,0,306.342,110.145Zm12.074.318a5.691,5.691,0,0,1,2.054-1.433,3.994,3.994,0,0,1,2.492-.306,23.645,23.645,0,0,0-2.263.851C319.958,109.88,319.229,110.211,318.417,110.463Zm-6.676,2.7a.888.888,0,1,0-.858-.888A.888.888,0,0,0,311.74,113.163Zm9.091-.568a.888.888,0,1,0-.858-.888.888.888,0,0,0,.858.888Z" transform="translate(-230.023 -89.446)" fill="#080808"/>
      <path id="Path_487" data-name="Path 487" d="M295.677,108.992a2.244,2.244,0,0,0-1.295,1.449,3.587,3.587,0,0,0,0,1.951,35.985,35.985,0,0,0,1.46,3.833,26.156,26.156,0,0,1,1.179,4.018,3.056,3.056,0,0,0,.907,1.68,2.377,2.377,0,0,0,1.865.563,2.4,2.4,0,0,1-2.048-.338,3.385,3.385,0,0,1-1.172-1.822,32.988,32.988,0,0,0-1.285-3.894c-.237-.646-.478-1.29-.736-1.929a9.084,9.084,0,0,1-.616-2.028,3.9,3.9,0,0,1,.171-2.137A2.276,2.276,0,0,1,295.677,108.992Zm23.155,9.66a3.835,3.835,0,0,1-.029,2.783,2.092,2.092,0,0,1-1.029,1.088,1.965,1.965,0,0,1-1.428.012,3.12,3.12,0,0,0,1.208-.418,2.156,2.156,0,0,0,.708-.92,10.4,10.4,0,0,0,.57-2.544Zm4.262-16.194a49.03,49.03,0,0,0-.012,5.858,26.739,26.739,0,0,0,.334,2.887c.173.937.446,1.9.61,2.877a16.685,16.685,0,0,1-.064,5.936,26.213,26.213,0,0,1-1.863,5.6,39.415,39.415,0,0,0,1.415-5.675,17.333,17.333,0,0,0-.071-5.762c-.142-.957-.391-1.891-.557-2.883a19.268,19.268,0,0,1-.257-2.958A30.172,30.172,0,0,1,323.093,102.457Zm-23.3,25.459a6.322,6.322,0,0,1-1.226,3.135,4.969,4.969,0,0,1-1.263,1.182,3.221,3.221,0,0,1-1.639.481,6.063,6.063,0,0,0,1.368-.855A8.022,8.022,0,0,0,298.1,130.7a13.733,13.733,0,0,0,.885-1.339C299.253,128.887,299.531,128.413,299.8,127.916Z" transform="translate(-229.728 -91.276)" fill="#080808"/>
      <path id="Path_488" data-name="Path 488" d="M292,133.83a69.917,69.917,0,0,0-12.617,3.831,24.251,24.251,0,0,1-6.564,1.4,58.307,58.307,0,0,0-6.5.747,4.75,4.75,0,0,0-1.38.537,9.562,9.562,0,0,1-1.553.777,8.359,8.359,0,0,0-2.668,1.611,19.606,19.606,0,0,0-3.625,5.283c-.516.961-.928,1.979-1.382,2.976-.41,1.017-.822,2.036-1.207,3.066-.363,1.039-.748,2.07-1.094,3.116l-.986,3.155,0,.008,0,.012q-3.082,7.711-5.6,15.636c-.832,2.639-1.618,5.294-2.289,7.969-.331,1.338-.643,2.68-.877,4.024a18.086,18.086,0,0,0-.245,2.006,6.292,6.292,0,0,0,.015.956,1.235,1.235,0,0,0,.194.627l-.244-.125c4.881.959,9.766,1.916,14.657,2.819l7.331,1.367,3.669.62a36.208,36.208,0,0,0,3.6.441l.356,0c0-.019-.009,0,.013-.011a.412.412,0,0,1,.081-.064,2.692,2.692,0,0,0,.4-.627,10.973,10.973,0,0,0,.618-1.651,32.956,32.956,0,0,0,.79-3.582c.414-2.43.635-4.9.806-7.368q.233-3.708.151-7.435c-.036-2.482-.184-4.964-.462-7.437a.059.059,0,0,1,.117-.017c.416,2.457.7,4.939.879,7.431q.23,3.739.136,7.494a65.329,65.329,0,0,1-.616,7.49,33.943,33.943,0,0,1-.732,3.724,12.021,12.021,0,0,1-.649,1.856,3.721,3.721,0,0,1-.6.941c-.087.081-.183.16-.278.234a1.715,1.715,0,0,1-.41.18c-.2.02-.383.019-.576.025a34.911,34.911,0,0,1-3.813-.435l-3.7-.605c-2.456-.435-4.909-.869-7.353-1.352q-7.329-1.463-14.633-3.029l-.041-.009a.387.387,0,0,1-.2-.116,2.013,2.013,0,0,1-.5-1.288,7.294,7.294,0,0,1,.006-1.12,19.03,19.03,0,0,1,.306-2.111c.27-1.381.62-2.731,1.007-4.069.773-2.675,1.655-5.307,2.564-7.928.925-2.616,1.855-5.227,2.813-7.828l2.9-7.795L252,160.2a85.946,85.946,0,0,1,4.3-12.577,18.455,18.455,0,0,1,3.721-5.649,9.422,9.422,0,0,1,2.944-1.834,10.657,10.657,0,0,0,1.409-.693,5.725,5.725,0,0,1,1.7-.646,57.926,57.926,0,0,1,6.656-.677c1.091-.1,2.177-.212,3.244-.408a17.971,17.971,0,0,0,3.142-.779,57.642,57.642,0,0,1,12.864-3.23.059.059,0,0,1,.067.05.061.061,0,0,1-.048.067Z" transform="translate(-222.489 -95.671)" fill="#080808"/>
      <path id="Path_489" data-name="Path 489" d="M311.823,146.355a5.665,5.665,0,0,0-.073,1.569c.031.53.066,1.059.116,1.588l.324,3.171c.233,2.113.511,4.221.769,6.332l.411,3.163a4.535,4.535,0,0,1-.476,3.274,2.283,2.283,0,0,1-3.212.374,2.191,2.191,0,0,1-.832-1.529l-.171-1.585c-.238-2.112-.491-4.224-.813-6.324a30.057,30.057,0,0,0-.627-3.115,3.951,3.951,0,0,0-.266-.726.365.365,0,0,0-.248-.21l-.365-.158c-.488-.21-.981-.408-1.477-.6-1.981-.772-3.976-1.51-5.989-2.186a5.049,5.049,0,0,0-2.995-.451,2.441,2.441,0,0,0-1.375,2.4.211.211,0,0,1-.214.207.213.213,0,0,1-.18-.106,23.155,23.155,0,0,0-1.878-2.778,12.542,12.542,0,0,0-2.329-2.348,4.878,4.878,0,0,0-1.418-.739,7.9,7.9,0,0,1-1.605-.712,7.308,7.308,0,0,1-2.545-2.431.188.188,0,0,1-.02-.044l-.005-.018a2.356,2.356,0,0,1,.215-1.757,4.8,4.8,0,0,1,1.062-1.306,13.1,13.1,0,0,1,2.7-1.782,32.815,32.815,0,0,1,5.937-2.317.268.268,0,0,1,.3.4l-.008.013a4.759,4.759,0,0,0-.625,1.806,7.343,7.343,0,0,0-.079.981c.029.328.026.66.084.986a9.625,9.625,0,0,0,1.454,3.706,19.229,19.229,0,0,0,1.169,1.651c.457.5.886,1.025,1.364,1.507.493.466.961.961,1.477,1.405l1.567,1.312a.029.029,0,0,1,.006.041.031.031,0,0,1-.042.006l-1.627-1.246c-.537-.423-1.029-.9-1.548-1.349s-.95-.989-1.426-1.484a19.5,19.5,0,0,1-1.233-1.657,10.016,10.016,0,0,1-1.6-3.822c-.069-.343-.077-.7-.114-1.048a7.8,7.8,0,0,1,.06-1.058,5.193,5.193,0,0,1,.669-2.044l.294.411a37.588,37.588,0,0,0-5.8,2.339,12.521,12.521,0,0,0-2.561,1.7,2.572,2.572,0,0,0-1.1,2.433l-.026-.063a6.763,6.763,0,0,0,2.3,2.223,7.332,7.332,0,0,0,1.482.675,5.456,5.456,0,0,1,1.569.835,12.154,12.154,0,0,1,2.4,2.489,23.57,23.57,0,0,1,1.855,2.881l-.393.1a3.816,3.816,0,0,1,.411-1.627,2.152,2.152,0,0,1,1.274-1.111,5.356,5.356,0,0,1,3.2.507c2.009.71,3.994,1.48,5.966,2.284l1.478.6.369.155a.573.573,0,0,1,.342.288,4.109,4.109,0,0,1,.292.765c.3,1.033.48,2.083.677,3.13.386,2.1.7,4.2,1,6.311l.217,1.582a1.716,1.716,0,0,0,.66,1.191,1.77,1.77,0,0,0,2.478-.293,3.138,3.138,0,0,0,.459-1.37,5.5,5.5,0,0,0-.054-1.527l-.376-3.171c-.25-2.114-.45-4.234-.63-6.356-.091-1.061-.166-2.124-.208-3.189-.026-.532-.036-1.066-.043-1.6a5.594,5.594,0,0,1,.154-1.6.029.029,0,0,1,.055.017Z" transform="translate(-228.376 -95.881)" fill="#080808"/>
      <path id="Path_490" data-name="Path 490" d="M309.051,139.929a13.174,13.174,0,0,1,1.1,1.861c.157.326.271.674.409,1.013a6.575,6.575,0,0,1,.249,1.076,4.464,4.464,0,0,1-.179,2.235,3.318,3.318,0,0,1-1.5,1.727.232.232,0,0,1-.314-.094.229.229,0,0,1-.026-.084v-.008a12.9,12.9,0,0,0-.654-3.026,3.725,3.725,0,0,0-.786-1.3,1.151,1.151,0,0,0-.627-.321.877.877,0,0,0-.59.341,8.336,8.336,0,0,0-1.255,2.8c-.3.995-.551,2.012-.77,3.023l0-.1.268,1.845a.309.309,0,0,1-.608.109v-.007a16.774,16.774,0,0,1-.283-2.631c-.047-.876-.025-1.75.015-2.621a42.537,42.537,0,0,1,.541-5.191.03.03,0,0,1,.034-.024.03.03,0,0,1,.025.031q-.085,2.6-.084,5.195a30.815,30.815,0,0,0,.358,5.118l-.609.1-.215-1.852v-.01a.254.254,0,0,1,.005-.087,26.8,26.8,0,0,1,.92-3.038,9.384,9.384,0,0,1,1.5-2.814,1.066,1.066,0,0,1,.751-.389,1.352,1.352,0,0,1,.745.384,3.91,3.91,0,0,1,.877,1.344,13.568,13.568,0,0,1,.916,3.054l-.341-.186a3.041,3.041,0,0,0,1.216-1.482,3.982,3.982,0,0,0,.215-1.989c-.018-.343-.125-.678-.177-1.022-.107-.332-.19-.675-.318-1s-.251-.661-.4-.983L309,139.96a.029.029,0,0,1,0-.023.03.03,0,0,1,.014-.018.031.031,0,0,1,.038.009Zm-4.287,14.122a.888.888,0,1,0-.858-.888.888.888,0,0,0,.858.888Zm.639,4.9a.888.888,0,1,0-.858-.888A.888.888,0,0,0,305.4,158.952Zm.533,4.688a.888.888,0,1,0-.858-.888A.888.888,0,0,0,305.936,163.64Zm5.662-25.377c3.549.088,7.094.324,10.629.687,1.769.171,3.531.419,5.287.718a21.243,21.243,0,0,1,5.2,1.416,3.078,3.078,0,0,1,.61.4,5.915,5.915,0,0,1,.488.5c.294.317.613.621.931.934a13.534,13.534,0,0,1,1.768,2.05,16.4,16.4,0,0,1,2.184,4.915,54.675,54.675,0,0,1,1.651,10.529,69.591,69.591,0,0,0-2.087-10.4,17.206,17.206,0,0,0-2.19-4.737,12.982,12.982,0,0,0-1.722-1.954c-.317-.307-.644-.611-.956-.941a2.886,2.886,0,0,0-.951-.769,20.914,20.914,0,0,0-5.024-1.411c-1.736-.322-3.491-.556-5.245-.8C318.661,138.944,315.131,138.595,311.6,138.263Zm-48.7,7.509a7.681,7.681,0,0,1,4.854.561,9.48,9.48,0,0,1,3.756,3.244,14.344,14.344,0,0,1,1.225,2.17,23.136,23.136,0,0,1,.855,2.324c.178.8.4,1.6.539,2.406.093.817.2,1.627.278,2.44-.206-.794-.375-1.59-.562-2.38s-.463-1.554-.689-2.328c-.3-.747-.57-1.508-.909-2.234a14.008,14.008,0,0,0-1.22-2.057,9.485,9.485,0,0,0-3.471-3.177,8.645,8.645,0,0,0-4.655-.968Zm21.024,37.435c.408,1.087.838,2.161,1.338,3.2.473,1.055.992,2.087,1.542,3.1a44.641,44.641,0,0,0,3.721,5.813,33.288,33.288,0,0,0,4.646,5.081l1.314,1.121c.45.359.936.669,1.4,1.009l.7.51c.243.155.5.293.745.441l1.5.886a24.374,24.374,0,0,1-5.953-3.62,30.777,30.777,0,0,1-4.821-5.07,39.84,39.84,0,0,1-3.653-5.961,34.653,34.653,0,0,1-2.477-6.514Zm-36.982,10.036c-.026,3.54-.1,7.078-.162,10.617s-.168,7.076-.248,10.614l0,.03-.005.033a7.727,7.727,0,0,0,.521,4.177A5.432,5.432,0,0,0,250,221.49c.336.109.665.235,1.005.334l1.054.2c.73.108,1.483.186,2.228.268q2.241.238,4.491.424c6,.5,12.014.763,18.027.9a160.855,160.855,0,0,0,18.013-.6c5.951-.575,11.995-1.486,17.4-4.076a.239.239,0,0,1,.305.089,4.571,4.571,0,0,0,1.713,1.575,5.455,5.455,0,0,0,2.3.625,8.545,8.545,0,0,0,2.42-.255c.392-.115.785-.235,1.176-.365l1.141-.474-1.116.537c-.384.151-.773.294-1.164.433a8.2,8.2,0,0,1-2.466.374,5.324,5.324,0,0,1-4.4-2.226l.3.089a34.656,34.656,0,0,1-8.552,3.109,79.3,79.3,0,0,1-8.963,1.524,153.635,153.635,0,0,1-18.129.775c-6.048-.039-12.086-.423-18.106-.96q-2.258-.2-4.512-.464c-.753-.089-1.5-.173-2.26-.291l-1.164-.236c-.382-.113-.758-.259-1.137-.389a6.312,6.312,0,0,1-3.4-3.338,8.534,8.534,0,0,1-.469-4.7l-.007.062c.187-3.534.336-7.069.556-10.6S246.693,196.776,246.936,193.244Z" transform="translate(-222.941 -96.311)" fill="#080808"/>
      <path id="Path_491" data-name="Path 491" d="M272.632,207.078c.1,1.946.154,3.892.222,5.837l-.133-.2a69.915,69.915,0,0,0,21.3,4.064,49.913,49.913,0,0,0,10.78-.845l2.645-.572c.874-.222,1.721-.535,2.584-.8l1.293-.4c.421-.16.83-.351,1.247-.525l2.493-1.068-.211.32a3.915,3.915,0,0,1,.678-1.639,4.932,4.932,0,0,1,1.191-1.219,7.268,7.268,0,0,1,3.051-1.247,15.554,15.554,0,0,1,1.613-.2c.539,0,1.078-.047,1.613-.007s1.072.044,1.6.125l1.584.235-1.6-.089c-.53-.027-1.062,0-1.591-.006s-1.054.079-1.579.114a15.143,15.143,0,0,0-1.541.295,7.437,7.437,0,0,0-2.755,1.3,3.864,3.864,0,0,0-1.482,2.4l0,.026a.391.391,0,0,1-.208.294,39.478,39.478,0,0,1-10.407,3.771,46.787,46.787,0,0,1-11.035.9,59.6,59.6,0,0,1-10.955-1.425c-1.793-.42-3.571-.894-5.322-1.456a44.239,44.239,0,0,1-5.166-1.935l-.01,0a.211.211,0,0,1-.123-.2C272.478,210.969,272.534,209.024,272.632,207.078Z" transform="translate(-226.71 -105.989)" fill="#080808"/>
      <path id="Path_492" data-name="Path 492" d="M252.664,218.215a11.4,11.4,0,0,1,3.474-3.146,15.981,15.981,0,0,1,4.383-1.782,19.4,19.4,0,0,1,2.348-.328,14.516,14.516,0,0,1,2.363-.038c.787.017,1.563.176,2.341.26.767.165,1.528.351,2.281.551-.781-.069-1.547-.2-2.318-.264-.775-.024-1.543-.131-2.315-.093a20.738,20.738,0,0,0-4.568.487,17.269,17.269,0,0,0-4.29,1.6A14.508,14.508,0,0,0,252.664,218.215Zm59.8-4.483a10.005,10.005,0,0,0,.835,1.478,4.218,4.218,0,0,0,1.143,1.162,2.341,2.341,0,0,0,.351.171,1.185,1.185,0,0,1,.437.287,1.082,1.082,0,0,1,.164,1.014,4.3,4.3,0,0,1-.923,1.557l0,0-.017.016a3.715,3.715,0,0,0-.97,1.511,1.918,1.918,0,0,0,.207,1.639c.287.467.917.922,1.158,1.638a1.371,1.371,0,0,1-.059,1.154,1.743,1.743,0,0,1-.868.711l.079-.054a4.793,4.793,0,0,0-1.045,1.718,2.188,2.188,0,0,0-.1.994,2.066,2.066,0,0,0,.46.912,1.925,1.925,0,0,1-.6-.879,2.392,2.392,0,0,1-.017-1.092,3.606,3.606,0,0,1,.384-1.022,5.641,5.641,0,0,1,.6-.913.152.152,0,0,1,.051-.041l.029-.014a1.3,1.3,0,0,0,.591-.551.909.909,0,0,0,0-.745c-.193-.553-.713-.9-1.145-1.512a2.454,2.454,0,0,1-.4-1.026,2.515,2.515,0,0,1,.116-1.092,4.242,4.242,0,0,1,1.168-1.736l-.02.02a4.224,4.224,0,0,0,.853-1.332.646.646,0,0,0-.027-.61.791.791,0,0,0-.261-.192,2.755,2.755,0,0,1-.4-.23,3.872,3.872,0,0,1-1.127-1.353A7.72,7.72,0,0,1,312.469,213.733Zm10.583.6c-.018.361-.036.716-.053,1.071-.716-.006-1.438-.035-2.155-.112a14.781,14.781,0,0,1-2.5-.42,14.778,14.778,0,0,1,2.5-.42C321.578,214.372,322.318,214.342,323.052,214.331Zm-.189,3.983c-.024.361-.036.716-.053,1.065-.657-.012-1.308-.041-1.965-.112a14.783,14.783,0,0,1-2.5-.42,14.8,14.8,0,0,1,2.5-.42C321.519,218.355,322.188,218.326,322.863,218.314Zm-.178,3.835c-.012.361-.03.716-.041,1.065-.6-.018-1.2-.047-1.8-.112a14.779,14.779,0,0,1-2.5-.42,14.8,14.8,0,0,1,2.5-.42C321.46,222.2,322.075,222.167,322.685,222.149Zm-1.841,4.694c.557-.059,1.113-.089,1.663-.107-.018.361-.029.71-.041,1.048-.539-.012-1.083-.042-1.622-.1a14.766,14.766,0,0,1-2.5-.42A14.792,14.792,0,0,1,320.844,226.843Zm-18.244,8.81s-10.664-10.54-14.645-3.7-1.244,11.849,1.714,15.232c3.6,4.122,3.785,5.356,4.854,6.577s13.14,15.978,28.184,15.148c8.776-.484,8.626-5.16,6.978-8.974a15.944,15.944,0,0,0-5.56-6.686C319.319,249.887,308.579,242.108,302.6,235.653Z" transform="translate(-223.933 -106.807)" fill="#e24444"/>
      <path id="Path_493" data-name="Path 493" d="M306.54,235.874c2.293.108,4.58.262,6.868.412l6.858.465c2.284.181,4.57.314,6.855.435,1.142.071,2.286.112,3.429.131.57,0,1.145.04,1.713,0l.856-.041.847-.133a27.03,27.03,0,0,1-6.86.5c-2.3-.027-4.59-.165-6.88-.3-2.288-.179-4.575-.359-6.856-.6S308.808,236.225,306.54,235.874Zm22.822,19.243a.3.3,0,0,1-.151-.551c.463-.273,11.393-6.69,15.483-5.356a.3.3,0,1,1-.185.562c-3.834-1.256-14.886,5.238-15,5.3A.3.3,0,0,1,329.362,255.117Z" transform="translate(-231.51 -110.039)" fill="#080808"/>
      <path id="Path_494" data-name="Path 494" d="M394.82,201.364h.006l.021,0,25.781,9.554.023.01a42.951,42.951,0,0,1,7.28,4.324,27.573,27.573,0,0,1,6.009,6.006,13.964,13.964,0,0,1,2.014,3.816,29.379,29.379,0,0,1,1.061,4.128,16.235,16.235,0,0,1-.575,8.535,11.761,11.761,0,0,1-2.311,3.7,13.263,13.263,0,0,1-3.46,2.629,16.237,16.237,0,0,1-4.062,1.492,17.86,17.86,0,0,1-2.132.316l-2.092.228c-5.579.6-11.156,1.2-16.74,1.746-11.167,1.093-22.338,2.164-33.532,2.987-2.8.208-5.6.4-8.4.564-2.809.141-5.6.337-8.452.211a7.193,7.193,0,0,1-3.994-1.625,15.012,15.012,0,0,1-2.909-3.129,32.252,32.252,0,0,1-3.855-7.532.223.223,0,0,1,.228-.3h.008a13.819,13.819,0,0,0,3.61-.011c.563-.108,1.16-.334,1.323-.812a2.256,2.256,0,0,0-.306-1.6,19.107,19.107,0,0,0-2.057-3c-.762-.958-1.551-1.9-2.334-2.847s-1.561-1.9-2.314-2.876a11.613,11.613,0,0,0-2.557-2.554,3.725,3.725,0,0,0-3.312-.678,4.821,4.821,0,0,0-2.524,2.346l-.006.011a.2.2,0,0,1-.376-.037,12.289,12.289,0,0,1-.6-3.69,5.874,5.874,0,0,1,.3-1.881,3.263,3.263,0,0,1,1.134-1.582l-.03.026a5.424,5.424,0,0,1,1.644-.989,17.884,17.884,0,0,1,1.753-.626c1.182-.361,2.378-.655,3.578-.921,2.4-.527,4.821-.948,7.244-1.333,4.848-.761,9.716-1.363,14.589-1.91,9.747-1.092,19.513-1.961,29.3-2.681l-.425.4c.617-3.9,1.416-7.657,2.171-11.474l2.351-11.4,4.725-22.8.219.6a5.625,5.625,0,0,0-1.7-.611c-.646-.148-1.31-.27-1.981-.368-1.341-.2-2.7-.342-4.065-.463-2.728-.24-5.471-.381-8.215-.506-5.49-.244-10.991-.357-16.492-.422-11-.128-22.014-.031-33.017.121l.4-.175a5.034,5.034,0,0,0-.838,1.538c-.225.593-.414,1.212-.584,1.84-.338,1.257-.6,2.546-.841,3.84-.471,2.591-.83,5.211-1.146,7.837-.626,5.253-1.08,10.532-1.472,15.815s-.712,10.575-.975,15.869c-.292,5.287-.486,10.589-.685,15.882v.006a.258.258,0,0,1-.265.249l-22.559-.586a.059.059,0,1,1,0-.118l22.566.183-.265.254c.135-5.306.287-10.6.527-15.906q.321-7.941.824-15.89c.343-5.295.747-10.588,1.325-15.87.293-2.641.628-5.28,1.08-7.91.23-1.315.486-2.628.824-3.935.17-.653.361-1.305.6-1.954a5.945,5.945,0,0,1,1.062-1.928.519.519,0,0,1,.374-.174h.025c5.51-.142,11.017-.193,16.526-.234s11.018-.029,16.528.018,11.022.16,16.534.4c2.756.123,5.512.286,8.27.538,1.379.129,2.757.275,4.138.49.69.1,1.382.233,2.076.4a6.31,6.31,0,0,1,2.146.836.538.538,0,0,1,.227.558l-.008.038-4.819,22.77-2.421,11.383c-.787,3.786-1.631,7.613-2.263,11.375l0,.024a.457.457,0,0,1-.421.38c-9.772.629-19.543,1.408-29.286,2.411-4.87.515-9.735,1.085-14.575,1.813-2.419.368-4.832.772-7.221,1.28-1.193.256-2.381.54-3.545.888a17.408,17.408,0,0,0-1.711.6,5.064,5.064,0,0,0-1.5.875l-.008.008-.022.018a2.807,2.807,0,0,0-.981,1.36,5.441,5.441,0,0,0-.284,1.736,11.893,11.893,0,0,0,.556,3.551l-.382-.025a5.207,5.207,0,0,1,2.773-2.534,4.1,4.1,0,0,1,3.641.746,12.684,12.684,0,0,1,2.638,2.633c.754.966,1.534,1.913,2.32,2.856s1.581,1.881,2.353,2.842a19.432,19.432,0,0,1,2.118,3.062,2.616,2.616,0,0,1,.333,1.932,1.466,1.466,0,0,1-.707.779,3.388,3.388,0,0,1-.931.315,14.178,14.178,0,0,1-3.738.035l.236-.3a30.39,30.39,0,0,0,3.851,7.37,14.477,14.477,0,0,0,2.834,2.98,6.585,6.585,0,0,0,3.692,1.457c2.751.088,5.572-.138,8.359-.313,2.795-.192,5.589-.42,8.381-.661q16.754-1.486,33.493-3.211l16.739-1.7c1.385-.169,2.82-.233,4.12-.508a15.266,15.266,0,0,0,3.819-1.383,11.193,11.193,0,0,0,5.36-5.808,15.345,15.345,0,0,0,.563-8.05,29.734,29.734,0,0,0-.993-4.023,13.174,13.174,0,0,0-1.861-3.611,26.835,26.835,0,0,0-5.78-5.9,42.3,42.3,0,0,0-7.116-4.335l.022.009L394.8,201.479l.021,0h-.006a.059.059,0,0,1,0-.118Z" transform="translate(-231.623 -99.801)" fill="#080808"/>
      <path id="Path_495" data-name="Path 495" d="M331.076,164c-4.333,4.9-6.392,63.007-6.392,63.007h4.12s-1.722-5.1.769-6.9c4.528-4.664,57.97-8.162,57.97-8.162.118-1.024.917-5.1,2.006-10.417,2.758-13.549,7.369-35.182,7.369-35.182C392.23,162.718,331.076,164,331.076,164Zm30.258,26.635c-5.179,0-9.375-1.243-9.375-2.77s4.2-2.77,9.375-2.77,9.376,1.243,9.376,2.77-4.2,2.77-9.376,2.77Zm-89.976,36.862a77.8,77.8,0,0,0-1.075,12.348,55.594,55.594,0,0,0,1.177,12.283,23.557,23.557,0,0,0,5.237,10.9,19.015,19.015,0,0,0,4.841,3.635l1.342.747c.45.244.923.452,1.384.679.924.451,1.851.9,2.806,1.286,3.782,1.639,7.669,3.054,11.593,4.356s7.879,2.517,11.85,3.679c7.938,2.354,15.952,4.4,23.989,6.455a15.965,15.965,0,0,1,9.8,7.59,16.739,16.739,0,0,1,1.277,2.9,21.337,21.337,0,0,1,.687,3.074l1.019,6.131c1.4,8.167,2.76,16.343,4.218,24.5L360.264,377l-.411-.355c6.114.088,12.243.007,18.346-.319,3.051-.163,6.1-.392,9.114-.789a43.986,43.986,0,0,0,4.461-.807,17.336,17.336,0,0,0,2.124-.647,5.114,5.114,0,0,0,1.736-1.023l-.15.412c-.436-10.481-.957-20.964-1.5-31.443s-1.23-20.95-1.916-31.419c-.718-10.467-1.541-20.929-2.674-31.357-.567-5.213-1.233-10.416-2.068-15.59-.425-2.585-.9-5.165-1.529-7.7a32.482,32.482,0,0,0-1.144-3.748,11.359,11.359,0,0,0-.836-1.761,2.423,2.423,0,0,0-1.385-1.239h0a.059.059,0,1,1,.023-.116,2.541,2.541,0,0,1,1.5,1.27,11.516,11.516,0,0,1,.89,1.771,32.732,32.732,0,0,1,1.237,3.75c.694,2.539,1.224,5.116,1.709,7.7.957,5.169,1.645,10.38,2.289,15.592,1.26,10.429,2.21,20.89,3.055,31.357.862,10.466,1.482,20.949,2.075,31.432s1.072,20.973,1.437,31.467v.019a.541.541,0,0,1-.151.393,6.067,6.067,0,0,1-2.181,1.315,18.416,18.416,0,0,1-2.273.681,45.06,45.06,0,0,1-4.585.806c-3.065.387-6.136.6-9.206.748-6.143.261-12.279.269-18.421.11a.428.428,0,0,1-.411-.355l-8.3-49.024c-1.385-8.17-2.871-16.323-4.311-24.484l-1.113-6.115a20.664,20.664,0,0,0-.711-2.976,16.076,16.076,0,0,0-1.267-2.761,15.207,15.207,0,0,0-9.432-7.092c-8.06-1.891-16.1-3.969-24.07-6.276-3.988-1.143-7.943-2.407-11.876-3.738s-7.833-2.775-11.646-4.454c-.961-.4-1.9-.857-2.835-1.32-.467-.234-.943-.446-1.4-.7l-1.369-.772a19.178,19.178,0,0,1-5.005-3.855,24.28,24.28,0,0,1-5.261-11.322,52.35,52.35,0,0,1-.956-12.43,78.063,78.063,0,0,1,1.375-12.364.059.059,0,0,1,.069-.047.061.061,0,0,1,.047.07ZM369.43,384.642s-5.114-.533-5.114,1.918.426,20.349,2.557,20.882,64.564,22.054,81.184,4.581c0,0,11.506-6.392-10.228-13.85s-35.372-14.916-35.372-14.916-20.669.639-21.1,2.77,2.77,9.8,2.77,9.8S370.5,399.025,369.43,384.642Z" transform="translate(-226.346 -99.9)" fill="#e24444"/>
      <path id="Path_496" data-name="Path 496" d="M385.475,419.643a.32.32,0,0,1-.073-.009.3.3,0,0,1-.213-.361,9.61,9.61,0,0,0-1.234-7.257.3.3,0,0,1,.485-.339,10.035,10.035,0,0,1,1.323,7.744A.3.3,0,0,1,385.475,419.643Zm30.47-1.385h-.01c-6.441-.215-12.739-6.935-13-7.22a.3.3,0,1,1,.434-.4c.063.069,6.4,6.825,12.59,7.032a.3.3,0,0,1-.01.592Z" transform="translate(-242.39 -134.604)" fill="#080808"/>
      <path id="Path_497" data-name="Path 497" d="M248.283,234.25c-.043-.009-.086-.009-.129-.017l-.052-.052A1.547,1.547,0,0,1,248.283,234.25ZM267,254.54v.052c.026-.155.052-.3.078-.455C267.051,254.273,267.026,254.4,267,254.54Zm118.188,22.55v.017l-.095.026C385.127,277.115,385.153,277.107,385.188,277.089Z" transform="translate(-223.292 -109.801)" fill="#080808"/>
      <path id="Path_498" data-name="Path 498" d="M238.274,291.463l1.012,17.8.923,17.8c.315,5.933.732,11.863.835,17.8.046,2.971.091,5.941.06,8.915l-.049,4.46c-.052,1.488-.07,2.975-.152,4.464a.089.089,0,0,1-.177.007c-.191-1.479-.319-2.961-.48-4.441l-.378-4.445c-.25-2.963-.424-5.929-.6-8.9-.335-5.932-.356-11.876-.48-17.817l-.391-17.82-.3-17.823a.089.089,0,0,1,.177-.007Zm48.369,33.669.5,18.124.408,18.125c.143,6.042.389,12.082.32,18.125-.04,3.022-.081,6.043-.2,9.065l-.178,4.533c-.095,1.511-.156,3.023-.281,4.534a.089.089,0,0,1-.178,0c-.148-1.509-.233-3.02-.352-4.529l-.249-4.53c-.164-3.02-.252-6.041-.34-9.061-.164-6.041-.013-12.085.035-18.128l.124-18.129.213-18.13a.089.089,0,0,1,.178,0Z" transform="translate(-221.885 -117.845)" fill="#080808"/>
      <ellipse id="Ellipse_11" data-name="Ellipse 11" cx="7.529" cy="1.421" rx="7.529" ry="1.421" transform="translate(11.4 242.12)" fill="#080808"/>
      <ellipse id="Ellipse_12" data-name="Ellipse 12" cx="7.529" cy="1.421" rx="7.529" ry="1.421" transform="translate(57.426 277.243)" fill="#080808"/>
      <path id="Path_499" data-name="Path 499" d="M353.044,313.885l.662,8.315.573,8.318c.18,2.773.513,5.541.485,8.321a63.544,63.544,0,0,1-.491,8.357.09.09,0,0,1-.177.007,63.463,63.463,0,0,1-1.106-8.3c-.233-2.771-.1-5.556-.13-8.334l-.041-8.338.048-8.341a.089.089,0,0,1,.177-.007Zm66.149-19.041.5,17.912.407,17.913c.143,5.971.388,11.941.318,17.914-.041,2.986-.081,5.973-.2,8.96l-.179,4.48c-.1,1.494-.157,2.987-.281,4.481a.089.089,0,0,1-.177,0c-.148-1.492-.233-2.984-.351-4.476l-.249-4.477c-.164-2.985-.252-5.97-.339-8.956-.163-5.971-.012-11.944.037-17.917l.126-17.917.215-17.918a.089.089,0,0,1,.177,0Z" transform="translate(-238.019 -118.32)" fill="#080808"/>
      <ellipse id="Ellipse_13" data-name="Ellipse 13" cx="7.529" cy="1.421" rx="7.529" ry="1.421" transform="translate(108.637 226.139)" fill="#080808"/>
      <ellipse id="Ellipse_14" data-name="Ellipse 14" cx="7.529" cy="1.421" rx="7.529" ry="1.421" transform="translate(173.834 245.633)" fill="#080808"/>
      <path id="Path_500" data-name="Path 500" d="M337.731,237.6h-4.118a.3.3,0,1,1,0-.592h4.118a.3.3,0,1,1,0,.592Z" transform="translate(-235.276 -110.198)" fill="#080808"/>
    </g>
    <line id="Line_3" data-name="Line 3" y1="162" transform="translate(1145.5 286.5)" fill="none" stroke="#cecece" stroke-linecap="round" stroke-width="1" stroke-dasharray="3"/>
    <line id="Line_23" data-name="Line 23" y1="262" transform="translate(1605.5 328.5)" fill="none" stroke="#cecece" stroke-linecap="round" stroke-width="1" stroke-dasharray="3"/>
    <line id="Line_4" data-name="Line 4" x2="345" transform="translate(1172.5 262.5)" fill="none" stroke="#e04648" stroke-linecap="round" stroke-width="1" stroke-dasharray="3"/>
  </g>
</svg>
